<svg width="240" height="241" viewBox="0 0 240 241" fill="none" xmlns="http://www.w3.org/2000/svg">
<path fill-rule="evenodd" clip-rule="evenodd" d="M100.984 13.1722C53.3466 20.2096 30.1653 107.171 37.2028 154.808C44.2403 202.445 88.5689 235.362 136.206 228.325C183.843 221.287 216.76 176.959 209.722 129.322C202.685 81.6846 148.621 6.13468 100.984 13.1722ZM58.7678 151.622C64.0371 187.291 97.3516 212.029 133.02 206.76C168.688 201.49 193.427 168.176 188.157 132.507C182.17 91.9761 134.91 30.1957 104.169 34.7371C79.3913 38.3976 51.2301 100.6 58.7678 151.622Z" fill="#F96B6B"/>
<path d="M133.02 206.76C97.3516 212.029 64.0371 187.291 58.7678 151.622C51.2301 100.6 79.3913 38.3976 104.169 34.7371C134.91 30.1957 182.17 91.9761 188.157 132.507C193.427 168.176 168.688 201.49 133.02 206.76Z" fill="#FFE6B8"/>
<path d="M38.1921 154.662C34.7022 131.039 38.7054 97.5621 49.5249 69.1209C60.372 40.6072 77.8891 17.5948 101.13 14.1614C112.748 12.445 124.83 15.754 136.582 22.5193C148.333 29.2838 159.692 39.4704 169.816 51.3913C190.08 75.252 205.249 105.881 208.733 129.468C215.69 176.558 183.15 220.379 136.06 227.335C88.9691 234.292 45.1488 201.753 38.1921 154.662ZM57.7785 151.768C63.1286 187.983 96.9514 213.099 133.166 207.749C169.381 202.399 194.497 168.576 189.147 132.361C186.117 111.855 172.692 86.1117 156.218 66.0847C147.972 56.0608 138.923 47.4192 129.967 41.5612C121.032 35.7174 112.06 32.5605 104.023 33.7478C97.4717 34.7157 90.8646 39.51 84.7968 46.726C78.7069 53.9684 73.0509 63.7777 68.4252 75.0389C59.1769 97.5537 53.978 126.043 57.7785 151.768ZM132.874 205.77C97.7519 210.959 64.9457 186.598 59.757 151.476C56.0198 126.179 61.1328 98.0559 70.2752 75.7989C74.8448 64.6742 80.4039 55.0578 86.3275 48.0132C92.2732 40.9424 98.4781 36.5887 104.316 35.7264C111.649 34.643 120.112 37.5057 128.872 43.235C137.61 48.9502 146.513 57.4353 154.674 67.3553C171.011 87.2159 184.21 112.629 187.168 132.654C192.357 167.776 167.996 200.582 132.874 205.77Z" stroke="black" stroke-width="2"/>
<path d="M115.338 137.573C116.026 142.078 115.661 146.682 114.27 151.022C112.879 155.362 110.5 159.32 107.321 162.586C104.142 165.851 100.249 168.335 95.9483 169.842C91.6473 171.35 87.0553 171.839 82.5332 171.272C81.9335 167.336 82.1127 163.32 83.0607 159.453C84.8328 152.489 89.0964 146.416 95.0445 142.384C100.993 138.352 108.213 136.64 115.338 137.573Z" fill="#669CAD" stroke="#020202" stroke-miterlimit="10"/>
<path d="M146.331 94.588C150.13 93.5158 154.105 93.216 158.021 93.7064C158.621 97.6424 158.441 101.658 157.493 105.525C155.721 112.489 151.458 118.562 145.51 122.594C139.562 126.626 132.342 128.338 125.216 127.405C124.107 120.298 125.644 113.032 129.536 106.983C133.428 100.934 139.404 96.524 146.331 94.588Z" fill="#669CAD" stroke="#020202" stroke-miterlimit="10"/>
<path d="M122.19 139.285C128.91 141.878 134.445 146.846 137.746 153.247C141.048 159.649 141.887 167.038 140.104 174.017C139.118 177.85 137.36 181.441 134.938 184.572C131.239 183.164 127.866 181.017 125.025 178.262C119.864 173.238 116.725 166.495 116.202 159.312C115.68 152.128 117.81 145.003 122.19 139.285Z" fill="#669CAD" stroke="#020202" stroke-miterlimit="10"/>
<path d="M166.096 136.08C168.922 138.884 171.169 142.217 172.711 145.888C169.149 148.73 164.976 150.708 160.52 151.666C156.065 152.624 151.447 152.536 147.032 151.408C142.616 150.28 138.522 148.144 135.071 145.167C131.621 142.19 128.907 138.453 127.144 134.25C132.737 129.737 139.789 127.431 146.967 127.769C154.146 128.106 160.951 131.063 166.096 136.08Z" fill="#669CAD" stroke="#020202" stroke-miterlimit="10"/>
<path d="M78.2781 113.745C85.182 111.784 92.5648 112.419 99.0326 115.53C105.5 118.64 110.605 124.011 113.384 130.629C107.805 135.147 100.765 137.465 93.5939 137.146C86.4224 136.828 79.616 133.894 74.4604 128.898C71.6344 126.094 69.3867 122.761 67.8451 119.091C70.9305 116.629 74.4781 114.811 78.2781 113.745Z" fill="#669CAD" stroke="#020202" stroke-miterlimit="10"/>
<path d="M105.616 80.407C109.315 81.8147 112.688 83.9618 115.529 86.717C120.69 91.7408 123.83 98.4832 124.352 105.667C124.875 112.85 122.744 119.976 118.364 125.694C111.645 123.1 106.11 118.132 102.808 111.731C99.5068 105.33 98.6678 97.9401 100.45 90.9617C101.437 87.1289 103.195 83.5376 105.616 80.407Z" fill="#669CAD" stroke="#020202" stroke-miterlimit="10"/>
</svg>
