<svg width="240" height="240" viewBox="0 0 240 240" fill="none" xmlns="http://www.w3.org/2000/svg">
<path fill-rule="evenodd" clip-rule="evenodd" d="M25.3377 163.2C29.1436 134.862 53.4817 112.941 82.839 112.941H132.687C131.861 111.045 131.11 109.103 130.454 107.114C129.592 104.513 129.158 101.796 129.158 99.0371C129.158 96.9473 129.407 94.8532 129.896 92.7818C123.918 88.8237 117.81 83.777 112.049 78.02C103.261 69.2276 96.1798 59.6831 92.1159 51.1444C86.0314 38.3617 88.5315 31.9036 91.696 28.7343C94.8653 25.5698 101.328 23.065 114.11 29.1494C115.434 29.7768 116.786 30.4871 118.151 31.2623C118.221 20.643 121.348 13.793 127.276 11.6387C139.906 7.0672 154.954 27.9548 163.295 50.96C165.592 57.2938 167.363 63.7379 168.498 69.8136C194.29 72.9275 215.371 89.6635 223.495 114.232C224.358 116.834 224.791 119.551 224.791 122.31C224.791 134.045 217.152 144.978 206.325 149.66C209.005 156.418 210.361 163.564 210.361 170.967C210.361 179.769 208.392 188.34 204.623 196.15H214.859C223.914 196.151 231.281 203.517 231.281 212.573C231.281 221.623 223.914 228.99 214.859 228.99L82.8386 228.995C67.3435 228.995 52.7754 222.961 41.806 212.001C38.8028 208.993 36.1733 205.718 33.9362 202.225C32.0539 202.797 30.0889 203.107 28.1007 203.107C17.0432 203.107 8.04807 194.111 8.04807 183.058C8.04807 172.938 15.5857 164.551 25.3377 163.2ZM130.427 20.3112C133.587 19.1671 145.622 29.2837 154.622 54.1062C156.472 59.2035 157.948 64.361 158.991 69.283C158.862 69.283 157.727 69.3109 157.284 69.3384C153.142 62.6082 147.56 55.661 140.982 49.0874C136.664 44.7692 132.166 40.867 127.696 37.5316C126.506 25.7591 128.96 20.8418 130.427 20.3112ZM48.3334 205.477C45.035 202.175 42.2673 198.48 40.0716 194.503L40.0595 194.478C39.7541 193.852 34.0425 182.145 34.0421 170.968C34.0421 144.06 55.9307 122.167 82.8386 122.167H140.206C141 122.167 141.807 121.964 142.54 121.53C144.736 120.239 145.47 117.411 144.178 115.215C142.167 111.802 140.497 108.107 139.215 104.222C138.666 102.557 138.384 100.809 138.384 99.0375C138.384 96.8322 138.809 94.6043 139.644 92.4086C139.847 91.8688 139.944 91.3151 139.944 90.7709C139.944 88.9118 138.813 87.1586 136.973 86.4576L137.014 86.3882C130.93 82.6286 124.568 77.4894 118.571 71.4926C110.508 63.4292 104.072 54.7933 100.447 47.182C97.0972 40.1471 97.2821 36.1983 98.2229 35.2574C99.159 34.3165 103.113 34.1364 110.143 37.481C113.441 39.0493 116.933 41.1482 120.485 43.6809C120.573 43.7503 120.665 43.8148 120.762 43.8793C125.32 47.1502 129.974 51.1265 134.458 55.6104C141.221 62.3776 147.033 69.8092 150.825 76.535L150.83 76.5302C151.762 78.191 153.672 79.1641 155.655 78.8136C156.684 78.6291 159.383 78.5092 159.71 78.5092C172.373 78.5092 184.228 82.1398 194.003 89.0038C203.746 95.8538 210.915 105.578 214.735 117.125C215.288 118.79 215.565 120.538 215.565 122.31C215.565 126.909 213.747 131.416 210.772 135.028C207.796 138.64 203.663 141.357 199.027 142.386C198.658 142.469 198.294 142.593 197.938 142.769C195.669 143.922 194.756 146.699 195.909 148.969C199.378 155.823 201.135 163.227 201.135 170.968C201.135 180.72 198.27 190.135 192.845 198.185C191.425 200.297 191.983 203.167 194.095 204.588C194.889 205.123 195.784 205.376 196.67 205.376H214.859C218.826 205.376 222.055 208.601 222.055 212.573C222.055 216.54 218.826 219.764 214.859 219.764H148.302C149.368 217.591 149.968 215.151 149.968 212.573C149.968 203.517 142.601 196.15 133.545 196.15H117.28V192.949C117.28 174.986 102.671 160.376 84.7073 160.376H78.6089C76.0627 160.376 73.996 162.438 73.996 164.989C73.996 167.535 76.0627 169.602 78.6089 169.602H84.7073C97.5824 169.602 108.054 180.074 108.054 192.949V200.763C108.054 203.309 110.121 205.376 112.667 205.376H133.545C137.512 205.376 140.741 208.6 140.741 212.572C140.741 216.539 137.512 219.764 133.545 219.764V219.769H82.8386C69.8069 219.769 57.5548 214.694 48.3334 205.477ZM29.4662 193.793C29.0141 193.848 28.5572 193.881 28.1007 193.881C22.1318 193.881 17.2743 189.028 17.2743 183.058C17.2743 178.219 20.4619 174.118 24.8442 172.73C25.0652 180.083 26.6431 187.196 29.4662 193.793Z" fill="#D6D6D6"/>
<path fill-rule="evenodd" clip-rule="evenodd" d="M130.427 20.3112C133.587 19.1671 145.622 29.2837 154.622 54.1062C156.472 59.2035 157.948 64.361 158.991 69.283C158.862 69.283 157.727 69.3109 157.284 69.3384C153.142 62.6082 147.56 55.661 140.982 49.0874C136.664 44.7692 132.166 40.867 127.696 37.5316C126.506 25.7591 128.96 20.8418 130.427 20.3112ZM29.4662 193.793C29.0141 193.848 28.5572 193.881 28.1007 193.881C22.1318 193.881 17.2743 189.028 17.2743 183.058C17.2743 178.219 20.4619 174.118 24.8442 172.73C25.0652 180.083 26.6431 187.196 29.4662 193.793Z" fill="#F2C0CF"/>
<path d="M40.0716 194.503C42.2673 198.48 45.035 202.175 48.3334 205.477C57.5548 214.694 69.8069 219.769 82.8386 219.769H133.545V219.764C137.512 219.764 140.741 216.539 140.741 212.572C140.741 208.6 137.512 205.376 133.545 205.376H112.667C110.121 205.376 108.054 203.309 108.054 200.763V192.949C108.054 180.074 97.5824 169.602 84.7073 169.602H78.6089C76.0627 169.602 73.996 167.535 73.996 164.989C73.996 162.438 76.0627 160.376 78.6089 160.376H84.7073C102.671 160.376 117.28 174.986 117.28 192.949V196.15H133.545C142.601 196.15 149.968 203.517 149.968 212.573C149.968 215.151 149.368 217.591 148.302 219.764H214.859C218.826 219.764 222.055 216.54 222.055 212.573C222.055 208.601 218.826 205.376 214.859 205.376H196.67C195.784 205.376 194.889 205.123 194.095 204.588C191.983 203.167 191.425 200.297 192.845 198.185C198.27 190.135 201.135 180.72 201.135 170.968C201.135 163.227 199.378 155.823 195.909 148.969C194.756 146.699 195.669 143.922 197.938 142.769C198.294 142.593 198.658 142.469 199.027 142.386C203.663 141.357 207.796 138.64 210.772 135.028C213.747 131.416 215.565 126.909 215.565 122.31C215.565 120.538 215.288 118.79 214.735 117.125C210.915 105.578 203.746 95.8538 194.003 89.0038C184.228 82.1398 172.373 78.5092 159.71 78.5092C159.383 78.5092 156.684 78.6291 155.655 78.8136C153.672 79.1641 151.762 78.191 150.83 76.5302L150.825 76.535C147.033 69.8092 141.221 62.3776 134.458 55.6104C129.974 51.1265 125.32 47.1502 120.762 43.8793C120.665 43.8148 120.573 43.7503 120.485 43.6809C116.933 41.1482 113.441 39.0493 110.143 37.481C103.113 34.1364 99.159 34.3165 98.2229 35.2574C97.2821 36.1983 97.0972 40.1471 100.447 47.182C104.072 54.7933 110.508 63.4292 118.571 71.4926C124.568 77.4894 130.93 82.6286 137.014 86.3882L136.973 86.4576C138.813 87.1586 139.944 88.9118 139.944 90.7709C139.944 91.3151 139.847 91.8688 139.644 92.4086C138.809 94.6043 138.384 96.8322 138.384 99.0375C138.384 100.809 138.666 102.557 139.215 104.222C140.497 108.107 142.167 111.802 144.178 115.215C145.47 117.411 144.736 120.239 142.54 121.53C141.807 121.964 141 122.167 140.206 122.167H82.8386C55.9307 122.167 34.0421 144.06 34.0421 170.968C34.0425 182.145 39.7541 193.852 40.0595 194.478L40.0716 194.503Z" fill="#F4BDCE"/>
<path d="M40.0716 194.503C42.2673 198.48 45.035 202.175 48.3334 205.477C57.5548 214.694 69.8069 219.769 82.8386 219.769H133.545V219.764C137.512 219.764 140.741 216.539 140.741 212.572C140.741 208.6 137.512 205.376 133.545 205.376H112.667C110.121 205.376 108.054 203.309 108.054 200.763V192.949C108.054 180.074 97.5824 169.602 84.7073 169.602H78.6089C76.0627 169.602 73.996 167.535 73.996 164.989C73.996 162.438 76.0627 160.376 78.6089 160.376H84.7073C102.671 160.376 117.28 174.986 117.28 192.949V196.15H133.545C142.601 196.15 149.968 203.517 149.968 212.573C149.968 215.151 149.368 217.591 148.302 219.764H214.859C218.826 219.764 222.055 216.54 222.055 212.573C222.055 208.601 218.826 205.376 214.859 205.376H196.67C195.784 205.376 194.889 205.123 194.095 204.588C191.983 203.167 191.425 200.297 192.845 198.185C198.27 190.135 201.135 180.72 201.135 170.968C201.135 163.227 199.378 155.823 195.909 148.969C194.756 146.699 195.669 143.922 197.938 142.769C198.294 142.593 198.658 142.469 199.027 142.386C203.663 141.357 207.796 138.64 210.772 135.028C213.747 131.416 215.565 126.909 215.565 122.31C215.565 120.538 215.288 118.79 214.735 117.125C210.915 105.578 203.746 95.8538 194.003 89.0038C184.228 82.1398 172.373 78.5092 159.71 78.5092C159.383 78.5092 156.684 78.6291 155.655 78.8136C153.672 79.1641 151.762 78.191 150.83 76.5302L150.825 76.535C147.033 69.8092 141.221 62.3776 134.458 55.6104C129.974 51.1265 125.32 47.1502 120.762 43.8793C120.665 43.8148 120.573 43.7503 120.485 43.6809C116.933 41.1482 113.441 39.0493 110.143 37.481C103.113 34.1364 99.159 34.3165 98.2229 35.2574C97.2821 36.1983 97.0972 40.1471 100.447 47.182C104.072 54.7933 110.508 63.4292 118.571 71.4926C124.568 77.4894 130.93 82.6286 137.014 86.3882L136.973 86.4576C138.813 87.1586 139.944 88.9118 139.944 90.7709C139.944 91.3151 139.847 91.8688 139.644 92.4086C138.809 94.6043 138.384 96.8322 138.384 99.0375C138.384 100.809 138.666 102.557 139.215 104.222C140.497 108.107 142.167 111.802 144.178 115.215C145.47 117.411 144.736 120.239 142.54 121.53C141.807 121.964 141 122.167 140.206 122.167H82.8386C55.9307 122.167 34.0421 144.06 34.0421 170.968C34.0425 182.145 39.7541 193.852 40.0595 194.478M40.0716 194.503C40.0716 194.503 40.066 194.492 40.0595 194.478M40.0716 194.503L40.0595 194.478M25.3377 163.2C29.1436 134.862 53.4817 112.941 82.839 112.941H132.687C131.861 111.045 131.11 109.103 130.454 107.114C129.592 104.513 129.158 101.796 129.158 99.0371C129.158 96.9473 129.407 94.8532 129.896 92.7818C123.918 88.8237 117.81 83.777 112.049 78.02C103.261 69.2276 96.1798 59.6831 92.1159 51.1444C86.0314 38.3617 88.5315 31.9036 91.696 28.7343C94.8653 25.5698 101.328 23.065 114.11 29.1494C115.434 29.7768 116.786 30.4871 118.151 31.2623C118.221 20.643 121.348 13.793 127.276 11.6387C139.906 7.0672 154.954 27.9548 163.295 50.96C165.592 57.2938 167.363 63.7379 168.498 69.8136C194.29 72.9275 215.371 89.6635 223.495 114.232C224.358 116.834 224.791 119.551 224.791 122.31C224.791 134.045 217.152 144.978 206.325 149.66C209.005 156.418 210.361 163.564 210.361 170.967C210.361 179.769 208.392 188.34 204.623 196.15H214.859C223.914 196.151 231.281 203.517 231.281 212.573C231.281 221.623 223.914 228.99 214.859 228.99L82.8386 228.995C67.3435 228.995 52.7754 222.961 41.806 212.001C38.8028 208.993 36.1733 205.718 33.9362 202.225C32.0539 202.797 30.0889 203.107 28.1007 203.107C17.0432 203.107 8.04807 194.111 8.04807 183.058C8.04807 172.938 15.5857 164.551 25.3377 163.2ZM154.622 54.1062C145.622 29.2837 133.587 19.1671 130.427 20.3112C128.96 20.8418 126.506 25.7591 127.696 37.5316C132.166 40.867 136.664 44.7692 140.982 49.0874C147.56 55.661 153.142 62.6082 157.284 69.3384C157.727 69.3109 158.862 69.283 158.991 69.283C157.948 64.361 156.472 59.2035 154.622 54.1062ZM28.1007 193.881C28.5572 193.881 29.0141 193.848 29.4662 193.793C26.6431 187.196 25.0652 180.083 24.8442 172.73C20.4619 174.118 17.2743 178.219 17.2743 183.058C17.2743 189.028 22.1318 193.881 28.1007 193.881Z" stroke="black" stroke-width="2"/>
<path d="M181.082 105.829C181.082 108.917 183.585 111.42 186.673 111.42C189.761 111.42 192.264 108.917 192.264 105.829C192.264 102.741 189.761 100.238 186.673 100.238C183.585 100.238 181.082 102.741 181.082 105.829Z" fill="#248472" stroke="black" stroke-width="2"/>
<path d="M82.8402 129.087C85.3874 129.087 87.4531 131.153 87.4531 133.7C87.4531 136.247 85.3874 138.313 82.8402 138.313C64.8346 138.313 50.1858 152.962 50.1858 170.967C50.1858 173.514 48.12 175.58 45.5729 175.58C43.0258 175.58 40.96 173.514 40.96 170.967C40.96 147.874 59.7469 129.087 82.8402 129.087Z" fill="#BE8899" stroke="black" stroke-width="2"/>
</svg>
