<svg width="240" height="240" viewBox="0 0 240 240" fill="none" xmlns="http://www.w3.org/2000/svg">
<path d="M102.418 199.338C110.958 190.775 115.228 178.958 114.489 166.126C114.463 165.653 114.407 165.188 114.35 164.722C114.308 164.369 114.265 164.014 114.235 163.656C102.026 193.36 78.9684 206.285 67.1282 211.178C67.4015 211.206 67.6784 211.24 67.9561 211.275C68.3819 211.328 68.8095 211.381 69.2286 211.409C82.0844 212.171 93.8785 207.901 102.418 199.338Z" fill="#248472"/>
<path d="M58.4964 209.24C58.9117 209.147 97.9174 199.523 112.227 155.37C112.262 155.324 112.291 155.272 112.32 155.22C112.348 155.168 112.377 155.116 112.412 155.07C110.219 147.477 106.434 140.46 101.31 134.46C82.1307 173.165 47.5103 193.176 37.4011 198.369C43.4019 203.493 50.4413 207.278 58.0117 209.471C58.1502 209.378 58.3348 209.286 58.4964 209.24Z" fill="#248472"/>
<path d="M33.8696 195.091C40.6552 191.699 78.7145 171.342 98.0559 130.882C95.1478 127.997 91.9395 125.389 88.4777 123.057C88.4663 123.069 88.4606 123.08 88.4548 123.092C88.449 123.103 88.4433 123.115 88.4316 123.127C84.5541 127.073 79.8687 126.289 76.0836 125.642C72.2985 124.996 69.8982 124.696 67.7747 126.843C65.6512 128.989 65.9513 131.482 66.5745 135.359C67.2206 139.168 68.0054 143.899 64.1279 147.846C60.2504 151.793 55.542 151.008 51.7798 150.362C48.0179 149.716 45.5945 149.415 43.4941 151.562C41.3937 153.708 41.6938 156.178 42.317 160.055L42.334 160.16C42.9545 163.972 43.7127 168.631 39.8704 172.542C35.9929 176.489 31.3075 175.704 27.5224 175.058C24.3605 174.504 22.1448 174.25 20.2753 175.427C23.8065 182.813 28.4457 189.645 33.8696 195.091Z" fill="#248472"/>
<path fill-rule="evenodd" clip-rule="evenodd" d="M30.7077 198.369C8.96607 176.65 -0.842984 135.937 19.0752 116.018C38.9934 96.1002 79.7071 105.909 101.426 127.628C111.973 138.176 118.228 151.747 119.059 165.849C119.128 166.911 119.151 167.972 119.151 169.034C119.151 182.005 114.42 193.822 105.649 202.593C96.1632 212.079 83.0999 216.833 68.9055 216.002C54.8035 215.171 41.2323 208.916 30.7077 198.369ZM102.418 199.338C110.958 190.775 115.228 178.958 114.489 166.126C114.463 165.653 114.407 165.188 114.35 164.722C114.308 164.369 114.265 164.014 114.235 163.656C102.026 193.36 78.9684 206.285 67.1282 211.178C67.4015 211.206 67.6784 211.24 67.9561 211.275C68.3819 211.328 68.8095 211.381 69.2286 211.409C82.0844 212.171 93.8785 207.901 102.418 199.338ZM112.32 155.22C112.291 155.272 112.262 155.324 112.227 155.37C97.9174 199.523 58.9117 209.147 58.4964 209.24C58.3348 209.286 58.1502 209.378 58.0117 209.471C50.4413 207.278 43.4019 203.493 37.4011 198.369C47.5103 193.176 82.1307 173.165 101.31 134.46C106.434 140.46 110.219 147.477 112.412 155.07C112.377 155.116 112.348 155.168 112.32 155.22ZM33.8696 195.091C40.6552 191.699 78.7145 171.342 98.0559 130.882C95.1478 127.997 91.9395 125.389 88.4777 123.057C88.4663 123.069 88.4606 123.08 88.4548 123.092C88.449 123.103 88.4433 123.115 88.4316 123.127C84.5541 127.073 79.8687 126.289 76.0836 125.642C72.2985 124.996 69.8982 124.696 67.7747 126.843C65.6512 128.989 65.9513 131.482 66.5745 135.359C67.2206 139.168 68.0054 143.899 64.1279 147.846C60.2504 151.793 55.542 151.008 51.7798 150.362C48.0179 149.716 45.5945 149.415 43.4941 151.562C41.3937 153.708 41.6938 156.178 42.317 160.055L42.334 160.16C42.9545 163.972 43.7127 168.631 39.8704 172.542C35.9929 176.489 31.3075 175.704 27.5224 175.058C24.3605 174.504 22.1448 174.25 20.2753 175.427C23.8065 182.813 28.4457 189.645 33.8696 195.091ZM76.8913 121.05C73.1063 120.403 68.4208 119.619 64.5204 123.566C60.6242 127.508 61.4259 132.233 62.0716 136.039L62.0738 136.052C62.7201 139.93 62.9971 142.422 60.8736 144.569C58.75 146.715 56.3729 146.415 52.5878 145.769C48.8027 145.123 44.1173 144.338 40.2398 148.285C36.3975 152.196 37.1557 156.854 37.7762 160.667L37.7932 160.771C38.4164 164.649 38.7165 167.118 36.6161 169.265C34.5157 171.411 32.1154 171.088 28.3304 170.465C25.3298 169.957 21.7293 169.38 18.4521 171.157C14.99 162.687 13.0052 153.686 13.0052 145.238C12.982 135.083 15.8209 125.805 22.3296 119.296C36.57 105.032 63.9665 108.379 84.4847 120.473C82.5459 121.904 80.261 121.627 76.8913 121.05Z" fill="#5900FE"/>
<path d="M64.5204 123.566C68.4208 119.619 73.1063 120.403 76.8913 121.05C80.261 121.627 82.5459 121.904 84.4847 120.473C63.9665 108.379 36.57 105.032 22.3296 119.296C15.8209 125.805 12.982 135.083 13.0052 145.238C13.0052 153.686 14.99 162.687 18.4521 171.157C21.7293 169.38 25.3298 169.957 28.3304 170.465C32.1154 171.088 34.5157 171.411 36.6161 169.265C38.7165 167.118 38.4164 164.649 37.7932 160.771L37.7762 160.667C37.1557 156.854 36.3975 152.196 40.2398 148.285C44.1173 144.338 48.8027 145.123 52.5878 145.769C56.3729 146.415 58.75 146.715 60.8736 144.569C62.9971 142.422 62.7201 139.93 62.0738 136.052L62.0716 136.039C61.4259 132.233 60.6242 127.508 64.5204 123.566Z" fill="#248472"/>
<path d="M67.1282 211.178C78.9684 206.285 102.026 193.36 114.235 163.656M67.1282 211.178L58.0117 209.471M67.1282 211.178C67.4015 211.206 67.6784 211.24 67.9561 211.275C68.3819 211.328 68.8095 211.381 69.2286 211.409C82.0844 212.171 93.8785 207.901 102.418 199.338C110.958 190.775 115.228 178.958 114.489 166.126C114.463 165.653 114.407 165.188 114.35 164.722C114.308 164.369 114.265 164.014 114.235 163.656M114.235 163.656L112.412 155.07M112.412 155.07C110.219 147.477 106.434 140.46 101.31 134.46M112.412 155.07C112.377 155.116 112.348 155.168 112.32 155.22C112.291 155.272 112.262 155.324 112.227 155.37C97.9174 199.523 58.9117 209.147 58.4964 209.24C58.3348 209.286 58.1502 209.378 58.0117 209.471M58.0117 209.471C50.4413 207.278 43.4019 203.493 37.4011 198.369M37.4011 198.369C47.5103 193.176 82.1307 173.165 101.31 134.46M37.4011 198.369L33.8696 195.091M101.31 134.46L98.0559 130.882M98.0559 130.882C78.7145 171.342 40.6552 191.699 33.8696 195.091M98.0559 130.882C95.1478 127.997 91.9395 125.389 88.4777 123.057M33.8696 195.091C28.4457 189.645 23.8065 182.813 20.2753 175.427M20.2753 175.427C22.1448 174.25 24.3605 174.504 27.5224 175.058C31.3075 175.704 35.9929 176.489 39.8704 172.542C43.7127 168.631 42.9545 163.972 42.334 160.16M20.2753 175.427L18.4521 171.157M42.317 160.055C41.6938 156.178 41.3937 153.708 43.4941 151.562C45.5945 149.415 48.0179 149.716 51.7798 150.362C55.542 151.008 60.2504 151.793 64.1279 147.846C68.0054 143.899 67.2206 139.168 66.5745 135.359C65.9513 131.482 65.6512 128.989 67.7747 126.843C69.8982 124.696 72.2985 124.996 76.0836 125.642C79.8687 126.289 84.5541 127.073 88.4316 123.127C88.4433 123.115 88.449 123.103 88.4548 123.092C88.4606 123.08 88.4663 123.069 88.4777 123.057M42.317 160.055L42.334 160.16M42.317 160.055C42.3227 160.09 42.3284 160.125 42.334 160.16M88.4777 123.057L84.4847 120.473M62.0738 136.052C62.7201 139.93 62.9971 142.422 60.8736 144.569C58.75 146.715 56.3729 146.415 52.5878 145.769C48.8027 145.123 44.1173 144.338 40.2398 148.285C36.3975 152.196 37.1557 156.854 37.7762 160.667M62.0738 136.052L62.0716 136.039M62.0738 136.052L62.0716 136.039M37.7932 160.771C38.4164 164.649 38.7165 167.118 36.6161 169.265C34.5157 171.411 32.1154 171.088 28.3304 170.465C25.3298 169.957 21.7293 169.38 18.4521 171.157M37.7932 160.771L37.7762 160.667M37.7932 160.771C37.7875 160.736 37.7818 160.702 37.7762 160.667M18.4521 171.157C14.99 162.687 13.0052 153.686 13.0052 145.238C12.982 135.083 15.8209 125.805 22.3296 119.296C36.57 105.032 63.9665 108.379 84.4847 120.473M84.4847 120.473C82.5459 121.904 80.261 121.627 76.8913 121.05C73.1063 120.403 68.4208 119.619 64.5204 123.566C60.6242 127.508 61.4259 132.233 62.0716 136.039M19.0752 116.018C-0.842984 135.937 8.96607 176.65 30.7077 198.369C41.2323 208.916 54.8035 215.171 68.9055 216.002C83.0999 216.833 96.1632 212.079 105.649 202.593C114.42 193.822 119.151 182.005 119.151 169.034C119.151 167.972 119.128 166.911 119.059 165.849C118.228 151.747 111.973 138.176 101.426 127.628C79.7071 105.909 38.9934 96.1002 19.0752 116.018Z" stroke="black" stroke-width="2.03994"/>
<path d="M135.809 139.207C146.291 145.24 158.81 146.306 171.014 142.271C171.464 142.123 171.899 141.949 172.334 141.774C172.665 141.641 172.996 141.508 173.334 141.386C141.482 137.281 123.03 118.355 115.239 108.184C115.283 108.455 115.322 108.732 115.36 109.009C115.419 109.434 115.478 109.861 115.56 110.273C118.151 122.888 125.328 133.175 135.809 139.207Z" fill="#FF8B07"/>
<path d="M114.877 99.3449C115.074 99.7221 134.466 134.908 180.818 137.303C180.871 137.324 180.929 137.338 180.987 137.353C181.044 137.367 181.102 137.382 181.156 137.403C187.923 133.32 193.72 127.848 198.191 121.346C155.84 112.837 127.551 84.5754 119.918 76.1548C116.522 83.2773 114.687 91.0565 114.529 98.9365C114.654 99.0463 114.791 99.2007 114.877 99.3449Z" fill="#FF8B07"/>
<path d="M122.17 71.8954C127.203 77.5716 156.717 109.065 200.804 117.276C202.838 113.72 204.527 109.946 205.883 105.999C205.869 105.991 205.856 105.988 205.844 105.986C205.831 105.983 205.818 105.981 205.804 105.972C200.988 103.248 200.533 98.5196 200.178 94.6962C199.823 90.8729 199.491 88.4767 196.868 86.9811C194.245 85.4855 191.915 86.4205 188.331 88.026C184.82 89.6357 180.453 91.6184 175.637 88.8945C170.821 86.1707 170.36 81.4196 170.011 77.6184C169.661 73.8174 169.324 71.3989 166.707 69.9256C164.09 68.4524 161.782 69.3814 158.198 70.9869L158.102 71.0305C154.58 72.6164 150.276 74.5546 145.504 71.8554C140.688 69.1316 140.233 64.4027 139.878 60.5793C139.595 57.3818 139.266 55.1759 137.646 53.6747C131.426 58.9972 126.027 65.2465 122.17 71.8954Z" fill="#FF8B07"/>
<path fill-rule="evenodd" clip-rule="evenodd" d="M118.186 69.6895C133.537 43.0674 170.325 23.0552 194.719 37.1395C219.114 51.2238 220.177 93.0889 204.819 119.689C197.361 132.607 185.871 142.161 172.465 146.613C171.457 146.955 170.437 147.252 169.412 147.527C156.883 150.884 144.244 149.372 133.502 143.171C121.884 136.463 113.911 125.075 111.039 111.15C108.192 97.313 110.721 82.5854 118.186 69.6895ZM135.809 139.207C146.291 145.24 158.81 146.306 171.014 142.271C171.464 142.123 171.899 141.949 172.334 141.774C172.665 141.641 172.996 141.508 173.334 141.386C141.482 137.281 123.03 118.355 115.239 108.184C115.283 108.455 115.322 108.732 115.36 109.009C115.419 109.434 115.478 109.861 115.56 110.273C118.151 122.888 125.328 133.175 135.809 139.207ZM180.987 137.353C180.929 137.338 180.871 137.324 180.818 137.303C134.466 134.908 115.074 99.7221 114.877 99.3449C114.791 99.2007 114.654 99.0463 114.529 98.9365C114.687 91.0565 116.522 83.2773 119.918 76.1548C127.551 84.5754 155.84 112.837 198.191 121.346C193.72 127.848 187.923 133.32 181.156 137.403C181.102 137.382 181.044 137.367 180.987 137.353ZM122.17 71.8954C127.203 77.5716 156.717 109.065 200.804 117.276C202.838 113.72 204.527 109.946 205.883 105.999C205.869 105.991 205.856 105.988 205.844 105.986C205.831 105.983 205.818 105.981 205.804 105.972C200.988 103.248 200.533 98.5196 200.178 94.6962C199.823 90.8729 199.491 88.4767 196.868 86.9811C194.245 85.4855 191.915 86.4205 188.331 88.026C184.82 89.6357 180.453 91.6184 175.637 88.8945C170.821 86.1707 170.36 81.4196 170.011 77.6184C169.661 73.8174 169.324 71.3989 166.707 69.9256C164.09 68.4524 161.782 69.3814 158.198 70.9869L158.102 71.0305C154.58 72.6164 150.276 74.5546 145.504 71.8554C140.688 69.1316 140.233 64.4027 139.878 60.5793C139.595 57.3818 139.266 55.1759 137.646 53.6747C131.426 58.9972 126.027 65.2465 122.17 71.8954ZM204.823 94.2878C204.468 90.4644 204.013 85.7355 199.191 82.9895C194.375 80.2464 190.018 82.2437 186.509 83.8525L186.497 83.858C182.919 85.4859 180.583 86.3986 177.96 84.9029C175.337 83.4073 175.012 81.0335 174.656 77.2102C174.301 73.3868 173.846 68.6579 169.03 65.934C164.258 63.2349 159.954 65.173 156.433 66.759L156.336 66.8026C152.752 68.4081 150.444 69.3371 147.827 67.8638C145.21 66.3906 144.901 63.9885 144.523 60.1711C144.237 57.1414 143.863 53.5142 141.298 50.8086C148.584 45.2722 156.765 41.0253 164.924 38.8389C174.727 36.1882 184.424 36.5289 192.396 41.1312C209.859 51.1948 213.717 78.5239 207.346 101.473C205.462 99.9707 205.138 97.692 204.823 94.2878Z" fill="#F4BDCE"/>
<path d="M199.191 82.9895C204.013 85.7355 204.468 90.4644 204.823 94.2878C205.138 97.692 205.462 99.9707 207.346 101.473C213.717 78.5239 209.859 51.1948 192.396 41.1312C184.424 36.5289 174.727 36.1882 164.924 38.8389C156.765 41.0253 148.584 45.2722 141.298 50.8086C143.863 53.5142 144.237 57.1414 144.523 60.1711C144.901 63.9885 145.21 66.3906 147.827 67.8638C150.444 69.3371 152.752 68.4081 156.336 66.8026L156.433 66.759C159.954 65.173 164.258 63.2349 169.03 65.934C173.846 68.6579 174.301 73.3868 174.656 77.2102C175.012 81.0335 175.337 83.4073 177.96 84.9029C180.583 86.3986 182.919 85.4859 186.497 83.858L186.509 83.8525C190.018 82.2437 194.375 80.2464 199.191 82.9895Z" fill="#FF8B07"/>
<path d="M115.239 108.184C123.03 118.355 141.482 137.281 173.334 141.386M115.239 108.184L114.529 98.9365M115.239 108.184C115.283 108.455 115.322 108.732 115.36 109.009C115.419 109.434 115.478 109.861 115.56 110.273C118.151 122.888 125.328 133.175 135.809 139.207C146.291 145.24 158.81 146.306 171.014 142.271C171.464 142.123 171.899 141.949 172.334 141.774C172.665 141.641 172.996 141.508 173.334 141.386M173.334 141.386L181.156 137.403M181.156 137.403C187.923 133.32 193.72 127.848 198.191 121.346M181.156 137.403C181.102 137.382 181.044 137.367 180.987 137.353C180.929 137.338 180.871 137.324 180.818 137.303C134.466 134.908 115.074 99.7221 114.877 99.3449C114.791 99.2007 114.654 99.0463 114.529 98.9365M114.529 98.9365C114.687 91.0565 116.522 83.2773 119.918 76.1548M119.918 76.1548C127.551 84.5754 155.84 112.837 198.191 121.346M119.918 76.1548L122.17 71.8954M198.191 121.346L200.804 117.276M200.804 117.276C156.717 109.065 127.203 77.5716 122.17 71.8954M200.804 117.276C202.838 113.72 204.527 109.946 205.883 105.999M122.17 71.8954C126.027 65.2465 131.426 58.9972 137.646 53.6747M137.646 53.6747C139.266 55.1759 139.595 57.3818 139.878 60.5793C140.233 64.4027 140.688 69.1316 145.504 71.8554C150.276 74.5546 154.58 72.6164 158.102 71.0305M137.646 53.6747L141.298 50.8086M158.198 70.9869C161.782 69.3814 164.09 68.4524 166.707 69.9256C169.324 71.3989 169.661 73.8174 170.011 77.6184C170.36 81.4196 170.821 86.1707 175.637 88.8945C180.453 91.6184 184.82 89.6357 188.331 88.026C191.915 86.4205 194.245 85.4855 196.868 86.9811C199.491 88.4767 199.823 90.8729 200.178 94.6962C200.533 98.5196 200.988 103.248 205.804 105.972C205.818 105.981 205.831 105.983 205.844 105.986C205.856 105.988 205.869 105.991 205.883 105.999M158.198 70.9869L158.102 71.0305M158.198 70.9869C158.166 71.0014 158.134 71.0159 158.102 71.0305M205.883 105.999L207.346 101.473M186.497 83.858C182.919 85.4859 180.583 86.3986 177.96 84.9029C175.337 83.4073 175.012 81.0335 174.656 77.2102C174.301 73.3868 173.846 68.6579 169.03 65.934C164.258 63.2349 159.954 65.173 156.433 66.759M186.497 83.858L186.509 83.8525M186.497 83.858L186.509 83.8525M156.336 66.8026C152.752 68.4081 150.444 69.3371 147.827 67.8638C145.21 66.3906 144.901 63.9885 144.523 60.1711C144.237 57.1414 143.863 53.5142 141.298 50.8086M156.336 66.8026L156.433 66.759M156.336 66.8026C156.368 66.7881 156.4 66.7735 156.433 66.759M141.298 50.8086C148.584 45.2722 156.765 41.0253 164.924 38.8389C174.727 36.1882 184.424 36.5289 192.396 41.1312C209.859 51.1948 213.717 78.5239 207.346 101.473M207.346 101.473C205.462 99.9707 205.138 97.692 204.823 94.2878C204.468 90.4644 204.013 85.7355 199.191 82.9895C194.375 80.2464 190.018 82.2437 186.509 83.8525M194.719 37.1395C170.325 23.0552 133.537 43.0674 118.186 69.6895C110.721 82.5854 108.192 97.313 111.039 111.15C113.911 125.075 121.884 136.463 133.502 143.171C144.244 149.372 156.883 150.884 169.412 147.527C170.437 147.252 171.457 146.955 172.465 146.613C185.871 142.161 197.361 132.607 204.819 119.689C220.177 93.0889 219.114 51.2238 194.719 37.1395Z" stroke="black" stroke-width="2.03994"/>
</svg>
