<svg width="240" height="240" viewBox="0 0 240 240" fill="none" xmlns="http://www.w3.org/2000/svg">
<path fill-rule="evenodd" clip-rule="evenodd" d="M208.267 135.637C205.327 140.116 201.159 143.704 196.283 145.898L189.526 148.938L192.153 155.867C193.353 159.045 193.96 162.42 193.96 165.801C193.954 173.078 191.186 180.332 185.596 185.928C179.999 191.518 172.746 194.286 165.473 194.292C162.088 194.292 158.717 193.685 155.535 192.481L148.607 189.859L145.563 196.615C143.368 201.49 139.783 205.662 135.301 208.598C130.815 211.532 125.474 213.239 119.663 213.243C113.852 213.239 108.517 211.535 104.031 208.598C99.5494 205.662 95.9641 201.49 93.7663 196.615L90.7225 189.859L83.7941 192.481C80.6162 193.685 77.2416 194.292 73.8598 194.292C66.5827 194.286 59.326 191.518 53.7289 185.928C48.1387 180.331 45.3785 173.082 45.3716 165.808C45.3716 162.423 45.9788 159.048 47.1833 155.867L49.8089 148.938L43.0529 145.898C38.1771 143.7 34.0055 140.108 31.0656 135.625C28.133 131.14 26.4248 125.802 26.4214 119.994C26.4248 114.19 28.133 108.856 31.0656 104.37C34.0059 99.8883 38.1741 96.2996 43.0529 94.1018L49.8089 91.0618L47.1833 84.133C45.9788 80.9517 45.3716 77.5767 45.3716 74.1919C45.3785 66.9148 48.1459 59.6649 53.7391 54.0614C59.3294 48.4746 66.5788 45.711 73.8526 45.7037C77.2374 45.7037 80.6124 46.3113 83.7937 47.5188L90.7187 50.1415L93.7659 43.3889C95.9636 38.5096 99.552 34.338 104.034 31.4015C108.524 28.4651 113.858 26.7603 119.669 26.7569C125.477 26.7603 130.811 28.4651 135.297 31.4015C139.775 34.3376 143.368 38.5096 145.565 43.3889L148.609 50.1415L155.534 47.5188C158.715 46.3113 162.09 45.7037 165.479 45.7037C172.752 45.711 180.002 48.4746 185.595 54.0614C191.185 59.6649 193.953 66.9182 193.96 74.1953C193.96 77.5767 193.352 80.9551 192.152 84.133L189.526 91.0618L196.282 94.1018C201.158 96.2962 205.329 99.8849 208.266 104.364C211.199 108.849 212.903 114.184 212.911 119.995C212.905 125.813 211.2 131.15 208.267 135.637Z" fill="#FB6836"/>
<path fill-rule="evenodd" clip-rule="evenodd" d="M221.438 95.7273C218.128 90.6821 213.809 86.3793 208.77 83.0669C209.378 80.1411 209.709 77.1701 209.709 74.1957C209.723 62.9122 205.361 51.5529 196.735 42.9231C188.116 34.304 176.76 29.9459 165.479 29.9523C162.502 29.9523 159.524 30.2903 156.594 30.894C153.285 25.8598 148.979 21.5401 143.934 18.2272C136.978 13.6622 128.6 11.0016 119.67 11.005C110.737 11.0016 102.355 13.6622 95.3986 18.2272C90.3538 21.5396 86.0476 25.856 82.7352 30.894C79.8056 30.2903 76.8312 29.9523 73.8534 29.9523C62.5733 29.9454 51.2178 34.3001 42.5982 42.9231C33.9719 51.5494 29.6104 62.9088 29.621 74.1919C29.621 77.1697 29.9557 80.1406 30.5628 83.0703C25.5213 86.3793 21.2045 90.6859 17.8955 95.7303C13.3305 102.687 10.6665 111.065 10.6699 119.995C10.6665 128.928 13.3301 137.306 17.8917 144.263C21.2041 149.311 25.5209 153.621 30.5624 156.93C29.9552 159.859 29.6206 162.83 29.6206 165.808C29.6099 177.088 33.9719 188.448 42.5914 197.067C51.2148 205.693 62.5771 210.051 73.8606 210.044C76.835 210.044 79.8094 209.706 82.7356 209.106C86.0413 214.144 90.3474 218.46 95.3923 221.769C102.349 226.338 110.727 228.998 119.664 228.995C128.6 228.998 136.979 226.338 143.935 221.769C148.979 218.46 153.289 214.144 156.598 209.106C159.524 209.706 162.495 210.044 165.473 210.044C176.757 210.051 188.116 205.693 196.735 197.067C205.362 188.448 209.723 177.084 209.709 165.801C209.709 162.827 209.378 159.859 208.771 156.93C213.809 153.621 218.129 149.318 221.442 144.273C226.003 137.313 228.667 128.932 228.66 119.995C228.667 111.061 226.003 102.68 221.438 95.7273ZM196.283 145.898C201.159 143.704 205.327 140.116 208.267 135.637C211.2 131.15 212.905 125.813 212.911 119.995C212.903 114.184 211.199 108.849 208.266 104.364C205.329 99.8849 201.158 96.2962 196.282 94.1018L189.526 91.0618L192.152 84.133C193.352 80.9551 193.96 77.5767 193.96 74.1953C193.953 66.9182 191.185 59.6649 185.595 54.0614C180.002 48.4746 172.752 45.711 165.479 45.7037C162.09 45.7037 158.715 46.3113 155.534 47.5188L148.609 50.1415L145.565 43.3889C143.368 38.5096 139.775 34.3376 135.297 31.4015C130.811 28.4651 125.477 26.7603 119.669 26.7569C113.858 26.7603 108.524 28.4651 104.034 31.4015C99.552 34.338 95.9636 38.5096 93.7659 43.3889L90.7187 50.1415L83.7937 47.5188C80.6124 46.3113 77.2374 45.7037 73.8526 45.7037C66.5788 45.711 59.3294 48.4746 53.7391 54.0614C48.1459 59.6649 45.3785 66.9148 45.3716 74.1919C45.3716 77.5767 45.9788 80.9517 47.1833 84.133L49.8089 91.0618L43.0529 94.1018C38.1741 96.2996 34.0059 99.8883 31.0656 104.37C28.133 108.856 26.4248 114.19 26.4214 119.994C26.4248 125.802 28.133 131.14 31.0656 135.625C34.0055 140.108 38.1771 143.7 43.0529 145.898L49.8089 148.938L47.1833 155.867C45.9788 159.048 45.3716 162.423 45.3716 165.808C45.3785 173.082 48.1387 180.331 53.7289 185.928C59.326 191.518 66.5827 194.286 73.8598 194.292C77.2416 194.292 80.6162 193.685 83.7941 192.481L90.7225 189.859L93.7663 196.615C95.9641 201.49 99.5494 205.662 104.031 208.598C108.517 211.535 113.852 213.239 119.663 213.243C125.474 213.239 130.815 211.532 135.301 208.598C139.783 205.662 143.368 201.49 145.563 196.615L148.607 189.859L155.535 192.481C158.717 193.685 162.088 194.292 165.473 194.292C172.746 194.286 179.999 191.518 185.596 185.928C191.186 180.332 193.954 173.078 193.96 165.801C193.96 162.42 193.353 159.045 192.153 155.867L189.526 148.938L196.283 145.898Z" fill="#F4D63A"/>
<path fill-rule="evenodd" clip-rule="evenodd" d="M208.267 135.637C205.327 140.116 201.159 143.704 196.283 145.898L189.526 148.938L192.153 155.867C193.353 159.045 193.96 162.42 193.96 165.801C193.954 173.078 191.186 180.332 185.596 185.928C179.999 191.518 172.746 194.286 165.473 194.292C162.088 194.292 158.717 193.685 155.535 192.481L148.607 189.859L145.563 196.615C143.368 201.49 139.783 205.662 135.301 208.598C130.815 211.532 125.474 213.239 119.663 213.243C113.852 213.239 108.517 211.535 104.031 208.598C99.5494 205.662 95.9641 201.49 93.7663 196.615L90.7225 189.859L83.7941 192.481C80.6162 193.685 77.2416 194.292 73.8598 194.292C66.5827 194.286 59.326 191.518 53.7289 185.928C48.1387 180.331 45.3785 173.082 45.3716 165.808C45.3716 162.423 45.9788 159.048 47.1833 155.867L49.8089 148.938L43.0529 145.898C38.1771 143.7 34.0055 140.108 31.0656 135.625C28.133 131.14 26.4248 125.802 26.4214 119.994C26.4248 114.19 28.133 108.856 31.0656 104.37C34.0059 99.8883 38.1741 96.2996 43.0529 94.1018L49.8089 91.0618L47.1833 84.133C45.9788 80.9517 45.3716 77.5767 45.3716 74.1919C45.3785 66.9148 48.1459 59.6649 53.7391 54.0614C59.3294 48.4746 66.5788 45.711 73.8526 45.7037C77.2374 45.7037 80.6124 46.3113 83.7937 47.5188L90.7187 50.1415L93.7659 43.3889C95.9636 38.5096 99.552 34.338 104.034 31.4015C108.524 28.4651 113.858 26.7603 119.669 26.7569C125.477 26.7603 130.811 28.4651 135.297 31.4015C139.775 34.3376 143.368 38.5096 145.565 43.3889L148.609 50.1415L155.534 47.5188C158.715 46.3113 162.09 45.7037 165.479 45.7037C172.752 45.711 180.002 48.4746 185.595 54.0614C191.185 59.6649 193.953 66.9182 193.96 74.1953C193.96 77.5767 193.352 80.9551 192.152 84.133L189.526 91.0618L196.282 94.1018C201.158 96.2962 205.329 99.8849 208.266 104.364C211.199 108.849 212.903 114.184 212.911 119.995C212.905 125.813 211.2 131.15 208.267 135.637Z" stroke="black" stroke-width="2"/>
<path fill-rule="evenodd" clip-rule="evenodd" d="M221.438 95.7273C218.128 90.6821 213.809 86.3793 208.77 83.0669C209.378 80.1411 209.709 77.1701 209.709 74.1957C209.723 62.9122 205.361 51.5529 196.735 42.9231C188.116 34.304 176.76 29.9459 165.479 29.9523C162.502 29.9523 159.524 30.2903 156.594 30.894C153.285 25.8598 148.979 21.5401 143.934 18.2272C136.978 13.6622 128.6 11.0016 119.67 11.005C110.737 11.0016 102.355 13.6622 95.3986 18.2272C90.3538 21.5396 86.0476 25.856 82.7352 30.894C79.8056 30.2903 76.8312 29.9523 73.8534 29.9523C62.5733 29.9454 51.2178 34.3001 42.5982 42.9231C33.9719 51.5494 29.6104 62.9088 29.621 74.1919C29.621 77.1697 29.9557 80.1406 30.5628 83.0703C25.5213 86.3793 21.2045 90.6859 17.8955 95.7303C13.3305 102.687 10.6665 111.065 10.6699 119.995C10.6665 128.928 13.3301 137.306 17.8917 144.263C21.2041 149.311 25.5209 153.621 30.5624 156.93C29.9552 159.859 29.6206 162.83 29.6206 165.808C29.6099 177.088 33.9719 188.448 42.5914 197.067C51.2148 205.693 62.5771 210.051 73.8606 210.044C76.835 210.044 79.8094 209.706 82.7356 209.106C86.0413 214.144 90.3474 218.46 95.3923 221.769C102.349 226.338 110.727 228.998 119.664 228.995C128.6 228.998 136.979 226.338 143.935 221.769C148.979 218.46 153.289 214.144 156.598 209.106C159.524 209.706 162.495 210.044 165.473 210.044C176.757 210.051 188.116 205.693 196.735 197.067C205.362 188.448 209.723 177.084 209.709 165.801C209.709 162.827 209.378 159.859 208.771 156.93C213.809 153.621 218.129 149.318 221.442 144.273C226.003 137.313 228.667 128.932 228.66 119.995C228.667 111.061 226.003 102.68 221.438 95.7273ZM196.283 145.898C201.159 143.704 205.327 140.116 208.267 135.637C211.2 131.15 212.905 125.813 212.911 119.995C212.903 114.184 211.199 108.849 208.266 104.364C205.329 99.8849 201.158 96.2962 196.282 94.1018L189.526 91.0618L192.152 84.133C193.352 80.9551 193.96 77.5767 193.96 74.1953C193.953 66.9182 191.185 59.6649 185.595 54.0614C180.002 48.4746 172.752 45.711 165.479 45.7037C162.09 45.7037 158.715 46.3113 155.534 47.5188L148.609 50.1415L145.565 43.3889C143.368 38.5096 139.775 34.3376 135.297 31.4015C130.811 28.4651 125.477 26.7603 119.669 26.7569C113.858 26.7603 108.524 28.4651 104.034 31.4015C99.552 34.338 95.9636 38.5096 93.7659 43.3889L90.7187 50.1415L83.7937 47.5188C80.6124 46.3113 77.2374 45.7037 73.8526 45.7037C66.5788 45.711 59.3294 48.4746 53.7391 54.0614C48.1459 59.6649 45.3785 66.9148 45.3716 74.1919C45.3716 77.5767 45.9788 80.9517 47.1833 84.133L49.8089 91.0618L43.0529 94.1018C38.1741 96.2996 34.0059 99.8883 31.0656 104.37C28.133 108.856 26.4248 114.19 26.4214 119.994C26.4248 125.802 28.133 131.14 31.0656 135.625C34.0055 140.108 38.1771 143.7 43.0529 145.898L49.8089 148.938L47.1833 155.867C45.9788 159.048 45.3716 162.423 45.3716 165.808C45.3785 173.082 48.1387 180.331 53.7289 185.928C59.326 191.518 66.5827 194.286 73.8598 194.292C77.2416 194.292 80.6162 193.685 83.7941 192.481L90.7225 189.859L93.7663 196.615C95.9641 201.49 99.5494 205.662 104.031 208.598C108.517 211.535 113.852 213.239 119.663 213.243C125.474 213.239 130.815 211.532 135.301 208.598C139.783 205.662 143.368 201.49 145.563 196.615L148.607 189.859L155.535 192.481C158.717 193.685 162.088 194.292 165.473 194.292C172.746 194.286 179.999 191.518 185.596 185.928C191.186 180.332 193.954 173.078 193.96 165.801C193.96 162.42 193.353 159.045 192.153 155.867L189.526 148.938L196.283 145.898Z" stroke="black" stroke-width="2"/>
<path d="M119.163 87.4804C119.78 86.0758 120.263 84.9062 120.608 84.0194C125.007 72.8393 126.474 67.7463 120.905 62.6291C120.118 61.9632 119.341 61.2867 118.593 60.5999C117.875 61.3318 117.14 62.0356 116.384 62.7257C111.029 68.0708 112.72 73.0947 117.578 84.0641C117.961 84.9505 118.503 86.0996 119.163 87.4804Z" fill="#5900FE"/>
<path fill-rule="evenodd" clip-rule="evenodd" d="M119.064 82.4778C116.807 77.3467 115.444 73.8566 115.139 71.0682C114.986 69.6705 115.112 68.5201 115.503 67.4696C115.894 66.419 116.595 65.3476 117.767 64.1715C118.067 63.897 118.365 63.6198 118.66 63.3392C118.966 63.6047 119.273 63.8679 119.581 64.1285C120.801 65.2557 121.548 66.2981 121.983 67.3333C122.418 68.3677 122.593 69.5133 122.499 70.9178C122.313 73.7158 121.102 77.2596 119.064 82.4778ZM120.209 85.0188C119.92 85.7276 119.571 86.5528 119.163 87.4804C118.729 86.5717 118.346 85.7633 118.025 85.0641C117.859 84.7009 117.709 84.3671 117.578 84.0641C112.72 73.0947 111.029 68.0708 116.384 62.7257C117.14 62.0356 117.875 61.3318 118.593 60.5999C119.341 61.2867 120.118 61.9632 120.905 62.6291C126.474 67.7463 125.007 72.8393 120.608 84.0194C120.491 84.3205 120.358 84.6543 120.209 85.0188Z" fill="black"/>
<path d="M92.5376 96.324C93.4172 96.6655 94.6183 97.104 96.0608 97.6004C95.5085 96.1929 95.0117 95.0058 94.6353 94.1364C89.8425 83.1394 87.2892 78.488 79.7328 78.809C78.711 78.9018 77.6896 78.9674 76.672 78.9989C76.6686 80.0199 76.6409 81.0417 76.5996 82.0733C76.5958 89.6438 81.3473 91.997 92.5376 96.324Z" fill="#5900FE"/>
<path fill-rule="evenodd" clip-rule="evenodd" d="M92.4573 94.1476C90.2074 89.0201 88.56 85.6569 86.7143 83.5444C85.7883 82.4846 84.8562 81.7975 83.8185 81.3734C82.7815 80.9495 81.5201 80.7398 79.864 80.8053C79.4569 80.8419 79.0492 80.8745 78.641 80.9024C78.6296 81.3059 78.6157 81.7091 78.5996 82.1125C78.6028 83.7762 78.8653 85.0315 79.3329 86.0523C79.8001 87.072 80.5254 87.9746 81.6226 88.8551C83.81 90.6106 87.2389 92.1147 92.4573 94.1476ZM76.5996 82.0733C76.6409 81.0417 76.6686 80.0199 76.672 78.9989C77.6896 78.9674 78.711 78.9018 79.7328 78.809C87.2892 78.488 89.8425 83.1394 94.6353 94.1364C94.7631 94.4316 94.9047 94.7633 95.0577 95.1279C95.3554 95.8372 95.696 96.6707 96.0608 97.6004C95.1105 97.2734 94.265 96.9715 93.5471 96.7059C93.1753 96.5683 92.8377 96.4405 92.5376 96.324C81.3473 91.997 76.5958 89.6438 76.5996 82.0733Z" fill="black"/>
<path d="M87.1301 120.506C85.743 119.898 84.5632 119.412 83.6797 119.067C72.5065 114.661 67.4135 113.187 62.2929 118.753C61.6304 119.543 60.9577 120.32 60.2637 121.075C60.9951 121.782 61.7027 122.528 62.3895 123.284C67.7239 128.625 72.7619 126.944 83.7346 122.09C84.6045 121.696 85.7672 121.165 87.1301 120.506Z" fill="#5900FE"/>
<path fill-rule="evenodd" clip-rule="evenodd" d="M83.7346 122.09C72.7619 126.944 67.7239 128.625 62.3895 123.284C61.7027 122.528 60.9951 121.782 60.2637 121.075C60.9577 120.32 61.6304 119.543 62.2929 118.753C67.4135 113.187 72.5065 114.661 83.6797 119.067C83.9764 119.183 84.3066 119.315 84.6668 119.462C85.379 119.752 86.2088 120.102 87.1301 120.506C86.2271 120.943 85.412 121.323 84.7117 121.645C84.3551 121.809 84.0282 121.957 83.7346 122.09ZM63.7949 120.075C64.9213 118.857 65.9631 118.113 66.9974 117.679C68.0319 117.245 69.1775 117.071 70.5819 117.166C73.3794 117.355 76.9213 118.568 82.1357 120.609C77.0111 122.86 73.5198 124.218 70.731 124.522C69.3312 124.675 68.1793 124.549 67.1284 124.158C66.0783 123.768 65.0089 123.069 63.8368 121.903C63.564 121.603 63.2862 121.303 63.0035 121.004C63.2702 120.696 63.5338 120.386 63.7949 120.075Z" fill="black"/>
<path d="M78.4764 159.939C78.5727 160.953 78.6352 161.975 78.6625 162.993C79.6839 162.993 80.7121 163.027 81.7373 163.065C89.3044 163.068 91.661 158.32 95.9982 147.127C96.3465 146.24 96.7919 145.029 97.2853 143.587C95.8709 144.156 94.6839 144.649 93.8039 145.032C82.8069 149.811 78.1554 152.375 78.4764 159.939Z" fill="#5900FE"/>
<path fill-rule="evenodd" clip-rule="evenodd" d="M95.9982 147.127C96.1167 146.825 96.2465 146.486 96.3856 146.113C96.6552 145.389 96.9598 144.538 97.2853 143.587C96.3536 143.962 95.5205 144.304 94.8088 144.603C94.4402 144.758 94.1042 144.902 93.8039 145.032C82.8069 149.811 78.1554 152.375 78.4764 159.939C78.5727 160.953 78.6352 161.975 78.6625 162.993C79.6839 162.993 80.7121 163.027 81.7373 163.065C89.3044 163.068 91.661 158.32 95.9982 147.127ZM81.7735 161.065C83.4378 161.062 84.6937 160.8 85.7152 160.332C86.7351 159.865 87.6383 159.139 88.5198 158.042C90.2768 155.855 91.7839 152.426 93.8213 147.207C88.6903 149.452 85.3252 151.099 83.2124 152.947C82.1529 153.873 81.4655 154.807 81.0411 155.847C80.6173 156.885 80.4075 158.148 80.4726 159.804C80.5106 160.21 80.5435 160.617 80.5711 161.024C80.9758 161.036 81.3773 161.051 81.7735 161.065Z" fill="black"/>
<path d="M120.175 152.513C119.561 153.908 119.067 155.098 118.722 155.981C114.329 167.157 112.859 172.251 118.428 177.372C119.215 178.037 119.991 178.714 120.74 179.4C121.454 178.669 122.196 177.962 122.952 177.275C128.304 171.93 126.61 166.906 121.754 155.933C121.369 155.053 120.83 153.887 120.175 152.513Z" fill="#5900FE"/>
<path fill-rule="evenodd" clip-rule="evenodd" d="M118.722 155.981C114.329 167.157 112.859 172.251 118.428 177.372C119.215 178.037 119.991 178.714 120.74 179.4C121.454 178.669 122.196 177.962 122.952 177.275C128.304 171.93 126.61 166.906 121.754 155.933C121.623 155.633 121.474 155.299 121.308 154.936C120.988 154.233 120.607 153.418 120.175 152.513C119.77 153.433 119.417 154.264 119.125 154.976C118.974 155.344 118.839 155.681 118.722 155.981ZM120.268 157.519C118.232 162.737 117.021 166.281 116.835 169.08C116.741 170.485 116.916 171.631 117.351 172.666C117.786 173.702 118.532 174.745 119.753 175.872C120.06 176.133 120.367 176.396 120.673 176.661C120.97 176.379 121.27 176.101 121.571 175.828C122.741 174.653 123.44 173.582 123.831 172.532C124.221 171.481 124.346 170.331 124.193 168.932C123.887 166.143 122.524 162.652 120.268 157.519Z" fill="black"/>
<path d="M119.67 105.361C111.582 105.361 105.029 111.914 105.029 119.999C105.029 128.084 111.582 134.636 119.67 134.636C127.751 134.636 134.304 128.084 134.304 119.999C134.304 111.914 127.751 105.361 119.67 105.361Z" fill="#5900FE"/>
<path fill-rule="evenodd" clip-rule="evenodd" d="M119.67 107.361C112.686 107.361 107.029 113.019 107.029 119.999C107.029 126.979 112.686 132.636 119.67 132.636C126.646 132.636 132.304 126.979 132.304 119.999C132.304 113.018 126.646 107.361 119.67 107.361ZM105.029 119.999C105.029 111.914 111.582 105.361 119.67 105.361C127.751 105.361 134.304 111.914 134.304 119.999C134.304 128.084 127.751 134.636 119.67 134.636C111.582 134.636 105.029 128.084 105.029 119.999Z" fill="black"/>
<path d="M160.856 80.069C160.763 79.0446 160.697 78.03 160.67 77.0086C159.649 77.0086 158.62 76.9741 157.592 76.9328C150.028 76.9294 147.675 81.6775 143.331 92.878C142.982 93.7649 142.547 94.9553 142.051 96.4012C143.466 95.8349 144.646 95.3555 145.529 94.9625C156.529 90.1791 161.174 87.6224 160.856 80.069Z" fill="#5900FE"/>
<path fill-rule="evenodd" clip-rule="evenodd" d="M144.524 95.3948C143.813 95.6927 142.983 96.0281 142.051 96.4012C142.379 95.4453 142.68 94.6011 142.948 93.8824C143.085 93.514 143.213 93.1786 143.331 92.878C147.675 81.6775 150.028 76.9294 157.592 76.9328C158.62 76.9741 159.649 77.0086 160.67 77.0086C160.697 78.03 160.763 79.0446 160.856 80.069C161.174 87.6224 156.529 90.1791 145.529 94.9625C145.228 95.0966 144.892 95.2407 144.524 95.3948ZM158.86 80.1999C158.823 79.7923 158.79 79.3847 158.763 78.9763C158.356 78.9639 157.952 78.9488 157.553 78.9328C155.891 78.9361 154.637 79.1984 153.617 79.6659C152.598 80.1329 151.695 80.8582 150.814 81.9561C149.058 84.1431 147.551 87.5708 145.512 92.7879C150.644 90.5407 154.008 88.8939 156.121 87.0484C157.18 86.1229 157.867 85.191 158.291 84.1533C158.715 83.1164 158.925 81.8552 158.86 80.1999Z" fill="black"/>
<path d="M146.791 143.663C145.901 143.318 144.7 142.876 143.258 142.38C143.824 143.791 144.31 144.978 144.7 145.861C149.49 156.861 152.043 161.509 159.6 161.192C160.621 161.099 161.643 161.03 162.66 161.002C162.664 159.977 162.691 158.956 162.74 157.92C162.733 150.357 157.992 147.997 146.791 143.663Z" fill="#5900FE"/>
<path fill-rule="evenodd" clip-rule="evenodd" d="M144.269 144.857C143.97 144.144 143.631 143.31 143.258 142.38C144.211 142.708 145.058 143.012 145.781 143.28C146.151 143.418 146.489 143.546 146.791 143.663C157.992 147.997 162.733 150.357 162.74 157.92C162.691 158.956 162.664 159.977 162.66 161.002C161.643 161.03 160.621 161.099 159.6 161.192C152.043 161.509 149.49 156.861 144.7 145.861C144.568 145.56 144.424 145.225 144.269 144.857ZM159.469 159.196C159.875 159.159 160.283 159.126 160.693 159.097C160.705 158.691 160.721 158.284 160.74 157.876C160.733 156.218 160.47 154.965 160.002 153.945C159.534 152.925 158.808 152.021 157.711 151.14C155.523 149.383 152.095 147.876 146.874 145.841C149.124 150.975 150.772 154.341 152.618 156.455C153.544 157.515 154.476 158.202 155.514 158.626C156.551 159.05 157.813 159.26 159.469 159.196Z" fill="black"/>
<path d="M152.195 119.488C153.562 118.829 154.721 118.283 155.604 117.907C166.57 113.053 171.608 111.368 176.943 116.717C177.629 117.473 178.337 118.211 179.069 118.922C178.375 119.674 177.705 120.454 177.039 121.237C171.919 126.806 166.822 125.34 155.656 120.933C154.769 120.588 153.589 120.102 152.195 119.488Z" fill="#5900FE"/>
<path fill-rule="evenodd" clip-rule="evenodd" d="M154.652 121.532C153.941 121.242 153.115 120.893 152.195 120.488C153.096 120.053 153.906 119.668 154.607 119.349C154.97 119.183 155.303 119.035 155.604 118.907C166.57 114.053 171.608 112.368 176.943 117.717C177.629 118.473 178.337 119.211 179.069 119.922C178.375 120.674 177.705 121.454 177.039 122.237C171.919 127.806 166.822 126.34 155.656 121.933C155.354 121.816 155.018 121.682 154.652 121.532ZM175.542 120.911C175.8 120.607 176.062 120.301 176.328 119.993C176.046 119.697 175.769 119.399 175.495 119.098C174.323 117.929 173.253 117.229 172.203 116.839C171.152 116.448 170.001 116.322 168.602 116.474C165.813 116.778 162.322 118.137 157.198 120.39C162.41 122.431 165.951 123.643 168.748 123.83C170.152 123.924 171.298 123.75 172.333 123.315C173.37 122.879 174.413 122.133 175.542 120.911Z" fill="black"/>
</svg>
