<svg width="240" height="240" viewBox="0 0 240 240" fill="none" xmlns="http://www.w3.org/2000/svg">
<path fill-rule="evenodd" clip-rule="evenodd" d="M183.261 48.4175C166.478 24.2918 143.892 11.005 119.664 11.005C95.4357 11.005 72.8499 24.2918 56.0664 48.4175C39.8683 71.7029 30.9473 102.526 30.9473 135.209C30.9473 186.922 70.7449 228.995 119.664 228.995C168.582 228.995 208.381 186.922 208.381 135.209C208.381 102.526 199.46 71.7029 183.261 48.4175ZM46.1559 135.209C46.1559 178.536 79.1316 213.786 119.664 213.786C160.197 213.786 193.172 178.536 193.173 135.209C193.173 105.602 185.219 77.8632 170.777 57.1035C156.92 37.1838 138.768 26.2136 119.664 26.2136C100.56 26.2136 82.4082 37.1834 68.551 57.1035C54.1096 77.8632 46.1559 105.602 46.1559 135.209Z" fill="#08BD7D"/>
<path d="M119.664 213.786C79.1316 213.786 46.1559 178.536 46.1559 135.209C46.1559 105.602 54.1096 77.8632 68.551 57.1035C82.4082 37.1834 100.56 26.2136 119.664 26.2136C138.768 26.2136 156.92 37.1838 170.777 57.1035C185.219 77.8632 193.173 105.602 193.173 135.209C193.172 178.536 160.197 213.786 119.664 213.786Z" fill="#F4D63A"/>
<path fill-rule="evenodd" clip-rule="evenodd" d="M183.261 48.4175C166.478 24.2918 143.892 11.005 119.664 11.005C95.4357 11.005 72.8499 24.2918 56.0664 48.4175C39.8683 71.7029 30.9473 102.526 30.9473 135.209C30.9473 186.922 70.7449 228.995 119.664 228.995C168.582 228.995 208.381 186.922 208.381 135.209C208.381 102.526 199.46 71.7029 183.261 48.4175ZM46.1559 135.209C46.1559 178.536 79.1316 213.786 119.664 213.786C160.197 213.786 193.172 178.536 193.173 135.209C193.173 105.602 185.219 77.8632 170.777 57.1035C156.92 37.1838 138.768 26.2136 119.664 26.2136C100.56 26.2136 82.4082 37.1834 68.551 57.1035C54.1096 77.8632 46.1559 105.602 46.1559 135.209Z" stroke="black" stroke-width="2"/>
<path d="M119.664 213.786C79.1316 213.786 46.1559 178.536 46.1559 135.209C46.1559 105.602 54.1096 77.8632 68.551 57.1035C82.4082 37.1834 100.56 26.2136 119.664 26.2136C138.768 26.2136 156.92 37.1838 170.777 57.1035C185.219 77.8632 193.173 105.602 193.173 135.209C193.172 178.536 160.197 213.786 119.664 213.786Z" stroke="black" stroke-width="2"/>
<path fill-rule="evenodd" clip-rule="evenodd" d="M151.353 96.2896C149.399 96.2896 146.399 96.6428 140.919 98.7462C143.022 93.2661 143.375 90.2661 143.375 88.3119C143.375 75.2376 132.738 64.6013 119.664 64.6013C106.591 64.6013 95.9539 75.238 95.9539 88.3119C95.9539 90.2661 96.3071 93.2661 98.4105 98.7462C92.9304 96.6428 89.9304 96.2896 87.9763 96.2896C74.9019 96.2896 64.2656 106.926 64.2656 120C64.2656 133.074 74.9023 143.711 87.9763 143.711C89.9304 143.711 92.9304 143.358 98.4105 141.254C96.3071 146.734 95.9539 149.734 95.9539 151.688C95.9539 164.763 106.591 175.399 119.664 175.399C132.738 175.399 143.375 164.762 143.375 151.688C143.375 149.734 143.022 146.734 140.919 141.254C146.399 143.358 149.399 143.711 151.353 143.711C164.427 143.711 175.063 133.074 175.063 120C175.063 106.926 164.427 96.2896 151.353 96.2896ZM87.9763 130.415C90.0993 130.415 94.8517 128.555 100.577 125.775C100.022 123.946 99.721 122.009 99.721 120.001C99.721 117.993 100.022 116.055 100.577 114.226C94.8514 111.446 90.099 109.586 87.9763 109.586C82.2334 109.586 77.5614 114.258 77.5614 120.001C77.5614 125.743 82.2334 130.415 87.9763 130.415ZM109.25 151.688C109.25 157.431 113.922 162.103 119.664 162.103C125.407 162.103 130.079 157.431 130.08 151.688C130.08 149.565 128.22 144.813 125.439 139.088C123.61 139.642 121.672 139.944 119.665 139.944C117.657 139.944 115.719 139.643 113.89 139.088C111.11 144.813 109.25 149.566 109.25 151.688ZM119.664 113.352C115.999 113.352 113.017 116.335 113.017 120C113.017 123.666 115.999 126.648 119.664 126.648C123.33 126.648 126.312 123.666 126.312 120C126.312 116.335 123.33 113.352 119.664 113.352ZM119.664 100.057C121.672 100.057 123.61 100.358 125.439 100.912C128.219 95.1871 130.079 90.435 130.079 88.3119C130.079 82.5691 125.407 77.8971 119.664 77.8971C113.921 77.8971 109.249 82.5691 109.249 88.3119C109.249 90.435 111.11 95.1874 113.89 100.912C115.719 100.358 117.657 100.057 119.664 100.057ZM138.752 125.774C144.477 128.555 149.23 130.415 151.353 130.415C157.096 130.415 161.768 125.742 161.768 119.999C161.768 114.257 157.096 109.585 151.353 109.585C149.227 109.585 144.474 111.443 138.752 114.223C139.306 116.053 139.608 117.992 139.608 120C139.608 122.008 139.307 123.945 138.752 125.774Z" fill="#F4BDCE"/>
<path d="M100.577 125.775C94.8517 128.555 90.0993 130.415 87.9763 130.415C82.2334 130.415 77.5614 125.743 77.5614 120.001C77.5614 114.258 82.2334 109.586 87.9763 109.586C90.099 109.586 94.8514 111.446 100.577 114.226C100.022 116.055 99.721 117.993 99.721 120.001C99.721 122.009 100.022 123.946 100.577 125.775Z" fill="#F84A01"/>
<path d="M125.439 100.912C123.61 100.358 121.672 100.057 119.664 100.057C117.657 100.057 115.719 100.358 113.89 100.912C111.11 95.1874 109.249 90.435 109.249 88.3119C109.249 82.5691 113.921 77.8971 119.664 77.8971C125.407 77.8971 130.079 82.5691 130.079 88.3119C130.079 90.435 128.219 95.1871 125.439 100.912Z" fill="#F84A01"/>
<path d="M151.353 130.415C149.23 130.415 144.477 128.555 138.752 125.774C139.307 123.945 139.608 122.008 139.608 120C139.608 117.992 139.306 116.053 138.752 114.223C144.474 111.443 149.227 109.585 151.353 109.585C157.096 109.585 161.768 114.257 161.768 119.999C161.768 125.742 157.096 130.415 151.353 130.415Z" fill="#F84A01"/>
<path d="M119.664 162.103C113.922 162.103 109.25 157.431 109.25 151.688C109.25 149.566 111.11 144.813 113.89 139.088C115.719 139.643 117.657 139.944 119.665 139.944C121.672 139.944 123.61 139.642 125.439 139.088C128.22 144.813 130.08 149.565 130.08 151.688C130.079 157.431 125.407 162.103 119.664 162.103Z" fill="#F84A01"/>
<path d="M113.017 120C113.017 116.335 115.999 113.352 119.664 113.352C123.33 113.352 126.312 116.335 126.312 120C126.312 123.666 123.33 126.648 119.664 126.648C115.999 126.648 113.017 123.666 113.017 120Z" fill="#F84A01"/>
<path fill-rule="evenodd" clip-rule="evenodd" d="M151.353 96.2896C149.399 96.2896 146.399 96.6428 140.919 98.7462C143.022 93.2661 143.375 90.2661 143.375 88.3119C143.375 75.2376 132.738 64.6013 119.664 64.6013C106.591 64.6013 95.9539 75.238 95.9539 88.3119C95.9539 90.2661 96.3071 93.2661 98.4105 98.7462C92.9304 96.6428 89.9304 96.2896 87.9763 96.2896C74.9019 96.2896 64.2656 106.926 64.2656 120C64.2656 133.074 74.9023 143.711 87.9763 143.711C89.9304 143.711 92.9304 143.358 98.4105 141.254C96.3071 146.734 95.9539 149.734 95.9539 151.688C95.9539 164.763 106.591 175.399 119.664 175.399C132.738 175.399 143.375 164.762 143.375 151.688C143.375 149.734 143.022 146.734 140.919 141.254C146.399 143.358 149.399 143.711 151.353 143.711C164.427 143.711 175.063 133.074 175.063 120C175.063 106.926 164.427 96.2896 151.353 96.2896ZM87.9763 130.415C90.0993 130.415 94.8517 128.555 100.577 125.775C100.022 123.946 99.721 122.009 99.721 120.001C99.721 117.993 100.022 116.055 100.577 114.226C94.8514 111.446 90.099 109.586 87.9763 109.586C82.2334 109.586 77.5614 114.258 77.5614 120.001C77.5614 125.743 82.2334 130.415 87.9763 130.415ZM109.25 151.688C109.25 157.431 113.922 162.103 119.664 162.103C125.407 162.103 130.079 157.431 130.08 151.688C130.08 149.565 128.22 144.813 125.439 139.088C123.61 139.642 121.672 139.944 119.665 139.944C117.657 139.944 115.719 139.643 113.89 139.088C111.11 144.813 109.25 149.566 109.25 151.688ZM119.664 113.352C115.999 113.352 113.017 116.335 113.017 120C113.017 123.666 115.999 126.648 119.664 126.648C123.33 126.648 126.312 123.666 126.312 120C126.312 116.335 123.33 113.352 119.664 113.352ZM119.664 100.057C121.672 100.057 123.61 100.358 125.439 100.912C128.219 95.1871 130.079 90.435 130.079 88.3119C130.079 82.5691 125.407 77.8971 119.664 77.8971C113.921 77.8971 109.249 82.5691 109.249 88.3119C109.249 90.435 111.11 95.1874 113.89 100.912C115.719 100.358 117.657 100.057 119.664 100.057ZM138.752 125.774C144.477 128.555 149.23 130.415 151.353 130.415C157.096 130.415 161.768 125.742 161.768 119.999C161.768 114.257 157.096 109.585 151.353 109.585C149.227 109.585 144.474 111.443 138.752 114.223C139.306 116.053 139.608 117.992 139.608 120C139.608 122.008 139.307 123.945 138.752 125.774Z" stroke="black" stroke-width="2"/>
<path d="M100.577 125.775C94.8517 128.555 90.0993 130.415 87.9763 130.415C82.2334 130.415 77.5614 125.743 77.5614 120.001C77.5614 114.258 82.2334 109.586 87.9763 109.586C90.099 109.586 94.8514 111.446 100.577 114.226C100.022 116.055 99.721 117.993 99.721 120.001C99.721 122.009 100.022 123.946 100.577 125.775Z" stroke="black" stroke-width="2"/>
<path d="M125.439 100.912C123.61 100.358 121.672 100.057 119.664 100.057C117.657 100.057 115.719 100.358 113.89 100.912C111.11 95.1874 109.249 90.435 109.249 88.3119C109.249 82.5691 113.921 77.8971 119.664 77.8971C125.407 77.8971 130.079 82.5691 130.079 88.3119C130.079 90.435 128.219 95.1871 125.439 100.912Z" stroke="black" stroke-width="2"/>
<path d="M151.353 130.415C149.23 130.415 144.477 128.555 138.752 125.774C139.307 123.945 139.608 122.008 139.608 120C139.608 117.992 139.306 116.053 138.752 114.223C144.474 111.443 149.227 109.585 151.353 109.585C157.096 109.585 161.768 114.257 161.768 119.999C161.768 125.742 157.096 130.415 151.353 130.415Z" stroke="black" stroke-width="2"/>
<path d="M119.664 162.103C113.922 162.103 109.25 157.431 109.25 151.688C109.25 149.566 111.11 144.813 113.89 139.088C115.719 139.643 117.657 139.944 119.665 139.944C121.672 139.944 123.61 139.642 125.439 139.088C128.22 144.813 130.08 149.565 130.08 151.688C130.079 157.431 125.407 162.103 119.664 162.103Z" stroke="black" stroke-width="2"/>
<path d="M113.017 120C113.017 116.335 115.999 113.352 119.664 113.352C123.33 113.352 126.312 116.335 126.312 120C126.312 123.666 123.33 126.648 119.664 126.648C115.999 126.648 113.017 123.666 113.017 120Z" stroke="black" stroke-width="2"/>
</svg>
