<svg width="240" height="240" viewBox="0 0 240 240" fill="none" xmlns="http://www.w3.org/2000/svg">
<path d="M135.224 73.1573L119.666 49.8248L104.107 73.1573L84.0775 59.8037L82.1764 81.2769L82.0933 83.7732C82.0933 101.971 95.1366 117.474 112.8 120.724L119.633 121.981L126.54 120.716C144.808 117.351 157.851 101.022 157.218 82.5117L157.091 80.4466L155.243 59.8037L135.224 73.1573Z" fill="#F2C0CF"/>
<path d="M190.53 164.404H184.254C169.572 164.404 155.877 170.282 145.803 180.565L130.463 196.225V196.699H141.195C163.098 196.699 181.946 183.615 190.349 164.837L190.53 164.404Z" fill="#006340"/>
<path fill-rule="evenodd" clip-rule="evenodd" d="M119.666 11.0072L141.195 43.3014L173.489 21.7719L178.535 78.5404C181.259 109.177 160.094 136.428 130.439 141.889L130.424 165.499C144.101 151.538 163.166 142.875 184.254 142.875H216.548C216.548 184.491 182.811 218.228 141.195 218.228H130.43V228.993H108.901V218.228H98.1362C56.5199 218.228 22.7832 184.491 22.7832 142.875H55.0774C76.171 142.875 95.2402 151.542 108.918 165.509L108.905 141.898C81.4017 136.838 60.5639 112.739 60.5639 83.7732C60.5639 82.0264 60.6413 80.2804 60.796 78.5404L65.8421 21.7719L98.1362 43.3014L119.666 11.0072ZM119.666 49.8248L135.224 73.1573L155.243 59.8037L157.091 80.4466L157.218 82.5117C157.851 101.022 144.808 117.351 126.54 120.716L119.633 121.981L112.8 120.724C95.1366 117.474 82.0933 101.971 82.0933 83.7732L82.1764 81.2769L84.0775 59.8037L104.107 73.1573L119.666 49.8248ZM190.53 164.404H184.254C169.572 164.404 155.877 170.282 145.803 180.565L130.463 196.225V196.699H141.195C163.098 196.699 181.946 183.615 190.349 164.837L190.53 164.404ZM48.9825 164.837L48.7908 164.404H55.0774L57.8188 164.473C71.4616 165.157 84.0912 170.928 93.5361 180.573L108.869 196.236V196.699H98.1362C76.2329 196.699 57.3854 183.615 48.9825 164.837Z" fill="#08BD7D"/>
<path d="M48.7908 164.404L48.9825 164.837C57.3854 183.615 76.2329 196.699 98.1362 196.699H108.869V196.236L93.5361 180.573C84.0912 170.928 71.4616 165.157 57.8188 164.473L55.0774 164.404H48.7908Z" fill="#006340"/>
<path d="M135.224 73.1573L119.666 49.8248L104.107 73.1573L84.0775 59.8037L82.1764 81.2769L82.0933 83.7732C82.0933 101.971 95.1366 117.474 112.8 120.724L119.633 121.981L126.54 120.716C144.808 117.351 157.851 101.022 157.218 82.5117L157.091 80.4466L155.243 59.8037L135.224 73.1573Z" stroke="black" stroke-width="2"/>
<path d="M190.53 164.404H184.254C169.572 164.404 155.877 170.282 145.803 180.565L130.463 196.225V196.699H141.195C163.098 196.699 181.946 183.615 190.349 164.837L190.53 164.404Z" stroke="black" stroke-width="2"/>
<path fill-rule="evenodd" clip-rule="evenodd" d="M119.666 11.0072L141.195 43.3014L173.489 21.7719L178.535 78.5404C181.259 109.177 160.094 136.428 130.439 141.889L130.424 165.499C144.101 151.538 163.166 142.875 184.254 142.875H216.548C216.548 184.491 182.811 218.228 141.195 218.228H130.43V228.993H108.901V218.228H98.1362C56.5199 218.228 22.7832 184.491 22.7832 142.875H55.0774C76.171 142.875 95.2402 151.542 108.918 165.509L108.905 141.898C81.4017 136.838 60.5639 112.739 60.5639 83.7732C60.5639 82.0264 60.6413 80.2804 60.796 78.5404L65.8421 21.7719L98.1362 43.3014L119.666 11.0072ZM119.666 49.8248L135.224 73.1573L155.243 59.8037L157.091 80.4466L157.218 82.5117C157.851 101.022 144.808 117.351 126.54 120.716L119.633 121.981L112.8 120.724C95.1366 117.474 82.0933 101.971 82.0933 83.7732L82.1764 81.2769L84.0775 59.8037L104.107 73.1573L119.666 49.8248ZM190.53 164.404H184.254C169.572 164.404 155.877 170.282 145.803 180.565L130.463 196.225V196.699H141.195C163.098 196.699 181.946 183.615 190.349 164.837L190.53 164.404ZM48.9825 164.837L48.7908 164.404H55.0774L57.8188 164.473C71.4616 165.157 84.0912 170.928 93.5361 180.573L108.869 196.236V196.699H98.1362C76.2329 196.699 57.3854 183.615 48.9825 164.837Z" stroke="black" stroke-width="2"/>
<path d="M48.7908 164.404L48.9825 164.837C57.3854 183.615 76.2329 196.699 98.1362 196.699H108.869V196.236L93.5361 180.573C84.0912 170.928 71.4616 165.157 57.8188 164.473L55.0774 164.404H48.7908Z" stroke="black" stroke-width="2"/>
</svg>
