<svg width="240" height="241" viewBox="0 0 240 241" fill="none" xmlns="http://www.w3.org/2000/svg">
<path d="M128.034 82.0236L120.386 77.9473L82.2154 98.3204L120.452 118.707L158.623 98.3321L150.976 94.2557L120.439 110.554L112.791 106.478L143.328 90.1779L135.681 86.1015L105.144 102.4L97.4962 98.3233L128.034 82.0236Z" fill="#C21A2A"/>
<path d="M117.598 162.262V123.959L110.287 120.041V151.558L102.976 147.64V116.123L95.6649 112.204V143.721L88.3539 139.803V108.286L81.0429 104.368V142.781" fill="#C21A2A"/>
<path d="M123.484 162.303L159.965 142.753V104.379L123.484 123.929V162.303ZM152.667 139.892L130.779 151.622V142.593L152.667 130.864V139.892ZM152.667 124.092L130.779 135.821V126.792L152.667 115.063V124.092Z" fill="#C21A2A"/>
</svg>
