<svg width="111" height="111" viewBox="0 0 111 111" fill="none" xmlns="http://www.w3.org/2000/svg">
<g clip-path="url(#clip0_985_2266)">
<path d="M88.5986 63.0804L88.5073 62.9558C88.1763 58.6241 86.9229 54.5275 84.924 50.8339C84.7183 47.5178 84.1677 43.8811 83.2243 40.139C82.1744 35.9297 80.6058 31.6011 78.6417 27.4206C77.6513 25.3339 76.5642 23.2834 75.3849 21.3077C74.2216 19.3533 72.954 17.4629 71.5875 15.6448C70.242 13.8556 68.8319 12.177 67.3751 10.6416C65.9187 9.10607 64.4227 7.71431 62.9317 6.49765C61.5392 5.358 60.0649 4.32211 58.5207 3.39832C57.0961 2.55763 55.7467 1.91117 54.5547 1.47568C54.2725 1.37017 53.9879 1.27132 53.7011 1.1792C53.4432 1.09731 53.1828 1.02358 52.9202 0.958121C52.6703 0.896031 52.4535 0.836734 52.2361 0.79441L51.6457 0.69064C51.4749 0.660562 51.3149 0.639293 51.1724 0.628551L50.8231 0.599117L50.5429 0.579566C50.2866 0.563178 50.0293 0.570874 49.7744 0.602554C47.6561 0.878629 46.1627 2.81953 46.4388 4.93789L46.7277 7.15464L46.7451 7.28763L46.763 7.44468C46.7677 7.50506 46.7771 7.5708 46.7943 7.66125L46.841 7.94011C46.8579 8.04023 46.8884 8.16634 46.9125 8.28837L47.0004 8.70539L47.1147 9.18771C47.276 9.88381 47.5053 10.7709 47.7753 11.8453L48.7281 15.5587C49.0998 16.9466 49.4827 18.4915 49.9319 20.12C50.3756 21.7526 50.857 23.4907 51.3797 25.2866C51.9046 27.0816 52.4561 28.9478 53.0555 30.8334C53.276 31.5295 53.5046 32.2329 53.7329 32.9355C53.6809 32.9353 53.6294 32.9338 53.5774 32.9338C50.4261 32.9338 47.3729 33.32 44.4682 34.0404C43.666 31.791 42.7555 29.5818 41.7397 27.4204C40.7493 25.3337 39.6624 23.2832 38.4829 21.3075C37.3196 19.3531 36.052 17.4627 34.6855 15.6446C33.34 13.8554 31.9299 12.1768 30.4731 10.6413C29.0167 9.10586 27.5207 7.7141 26.0297 6.49744C24.6372 5.35779 23.1629 4.32189 21.6187 3.3981C20.1941 2.55742 18.8447 1.91095 17.6527 1.47546C17.3706 1.36996 17.0859 1.2711 16.7991 1.17898C16.5412 1.09712 16.2808 1.0234 16.0182 0.957906C15.7683 0.895816 15.5515 0.836519 15.3341 0.794195L14.7437 0.690426C14.5729 0.660347 14.4129 0.639078 14.2704 0.628336L13.9211 0.598902L13.6409 0.579351C13.3846 0.562963 13.1273 0.57066 12.8724 0.60234C10.7541 0.878414 9.2607 2.81931 9.53678 4.93767L9.82574 7.15443L9.84314 7.28742L9.86098 7.44447C9.8657 7.50484 9.87516 7.57058 9.89234 7.66103L9.93896 7.9399C9.95594 8.04002 9.98644 8.16613 10.0105 8.28816L10.0984 8.70517L10.2127 9.1875C10.374 9.88359 10.6033 10.7707 10.8733 11.8451L11.8262 15.5585C12.1978 16.9464 12.5807 18.4913 13.0299 20.1198C13.4736 21.7524 13.955 23.4905 14.4778 25.2864C15.0026 27.0814 15.5541 28.9475 16.1537 30.8332C16.7599 32.7446 17.3839 34.6502 18.0259 36.5498C18.6773 38.4522 19.3497 40.3474 20.0431 42.235C20.7152 44.0647 21.4168 45.8835 22.1477 47.6905C22.4058 48.3294 22.6675 48.9668 22.9329 49.6026C20.5138 53.6281 18.9989 58.1803 18.6401 63.0256L18.6006 63.0798C18.6006 63.3445 18.5974 63.5986 18.5927 63.8485C18.5786 64.1555 18.5691 64.4628 18.5643 64.7702C18.1159 74.8655 13.599 71.9844 13.599 82.8286C13.599 93.7369 22.9759 102.577 34.5452 102.577C46.5767 102.577 46.9282 105.67 53.1513 105.67C59.3745 105.67 60.5785 102.577 72.6097 102.577C84.1793 102.577 93.56 93.7369 93.56 82.8286C93.5604 70.9254 88.5986 75.206 88.5986 63.0804Z" fill="#B4ACAE"/>
<path d="M54.6231 92.4759L54.8354 92.423C57.139 91.8491 59.3086 90.1019 59.5953 89.8641C59.8086 89.6872 59.9428 89.4328 59.9686 89.1569C59.9944 88.881 59.9095 88.6062 59.7328 88.3929L54.6231 92.4759ZM54.6231 92.4759V92.6947M54.6231 92.4759V92.6947M54.6231 92.6947V97.3306C54.6231 97.6077 54.513 97.8734 54.3171 98.0693C54.1212 98.2653 53.8555 98.3753 53.5784 98.3753C53.3013 98.3753 53.0356 98.2653 52.8396 98.0693C52.6437 97.8734 52.5337 97.6077 52.5337 97.3306V92.7426V92.5181M54.6231 92.6947L52.5337 92.5181M52.5337 92.5181L52.3145 92.4693M52.5337 92.5181L52.3145 92.4693M52.3145 92.4693C49.9728 91.9482 47.8596 90.0848 47.5826 89.8325M52.3145 92.4693L47.5826 89.8325M47.5826 89.8325C47.3815 89.6453 47.2623 89.3863 47.2508 89.1117C47.2393 88.8367 47.3368 88.5683 47.522 88.3647C47.7073 88.1612 47.9655 88.039 48.2404 88.0247C48.5149 88.0104 48.7841 88.1049 48.9894 88.2878L47.5826 89.8325ZM28.2741 72.3978V72.3977C28.2739 69.7356 30.4285 67.5855 33.0864 67.5855C35.7395 67.5855 37.8943 69.7354 37.8943 72.3978V78.6497C37.8943 81.3076 35.7393 83.4626 33.0864 83.4626C30.4287 83.4626 28.2741 81.3074 28.2741 78.6497V72.3978ZM69.2577 72.3978C69.2577 69.7349 71.4036 67.5855 74.0607 67.5855C76.7183 67.5855 78.8686 69.7352 78.8686 72.3978V78.6497C78.8686 81.3077 76.718 83.4626 74.0607 83.4626C71.404 83.4626 69.2577 81.3081 69.2577 78.6497V72.3978ZM59.0256 88.0195C59.3015 88.0453 59.5558 88.1795 59.7327 88.3928L58.0828 88.0397L58.2614 88.2553C58.2615 88.2553 58.2615 88.2552 58.2615 88.2552C58.4749 88.0785 58.7497 87.9937 59.0256 88.0195Z" stroke="black" stroke-width="0.56"/>
<path d="M71.2707 54.819C73.3477 55.4756 75.5654 54.3292 76.224 52.2582L76.2738 52.1017L76.3156 51.9699C76.3423 51.8831 76.3872 51.7536 76.4334 51.5856L76.5138 51.3041C76.5211 51.2772 76.5293 51.2542 76.5353 51.2226L76.5518 51.1167L76.5867 50.8905L76.6609 50.3816L76.7275 49.8204C76.7749 49.4253 76.8135 49.0293 76.8433 48.6325C76.8769 48.212 76.8908 47.7527 76.9082 47.2694C76.9154 47.0233 76.9176 46.777 76.9148 46.5307C76.9135 46.2775 76.9148 46.0132 76.9079 45.7515C76.9056 45.4872 76.8904 45.2179 76.8776 44.9414C76.8657 44.6636 76.8495 44.3831 76.8307 44.0988C76.7496 42.9566 76.6174 41.7352 76.4165 40.4668C76.2079 39.1427 75.9457 37.8275 75.6304 36.5245C75.4689 35.8399 75.2898 35.1595 75.0932 34.4841L74.798 33.4515C74.6984 33.1053 74.5813 32.7637 74.4722 32.4175C74.027 31.036 73.5142 29.6532 72.9605 28.2848C72.4015 26.9222 71.7925 25.5804 71.1349 24.2623L70.6382 23.2891L70.1132 22.337C69.7673 21.7071 69.4187 21.0837 69.0431 20.4863C68.8617 20.1858 68.6751 19.8886 68.4888 19.595L68.2121 19.1568L67.9255 18.7297L67.3464 17.8926C67.1528 17.6178 66.9738 17.3449 66.7673 17.0835C65.9782 16.0272 65.191 15.0547 64.3936 14.1838C63.6645 13.3784 62.8883 12.6167 62.069 11.9027C61.8881 11.7444 61.7034 11.5903 61.515 11.4408C61.341 11.2982 61.1639 11.1595 60.9837 11.0246C60.6611 10.7818 60.3296 10.5509 59.9898 10.3325C59.692 10.1313 59.3774 9.96463 59.1274 9.82753C58.9978 9.75882 58.8877 9.69405 58.7713 9.64013L58.4491 9.49909C58.2592 9.41558 58.1098 9.36166 58.0118 9.32352L57.8631 9.2673C57.525 9.13975 57.1577 9.10958 56.8033 9.18021C56.4488 9.25085 56.1214 9.41946 55.8585 9.66678C55.5955 9.9141 55.4077 10.2302 55.3163 10.5789C55.225 10.9276 55.2339 11.2948 55.342 11.6387L55.4548 11.9978L55.4864 12.0984C55.5078 12.1635 55.5346 12.2637 55.5784 12.3791L55.648 12.5725C55.6734 12.6451 55.7024 12.7437 55.7324 12.8381L55.829 13.1448C55.866 13.2484 55.9049 13.3585 55.9441 13.495C55.9844 13.6252 56.0236 13.7636 56.0708 13.902C56.1166 14.0424 56.1654 14.1805 56.2113 14.3491C56.2996 14.6838 56.4203 14.9991 56.5229 15.391C56.6264 15.7793 56.7603 16.1587 56.8734 16.6042C56.9305 16.8231 56.9994 17.0408 57.0657 17.265C57.132 17.4902 57.194 17.7312 57.2599 17.9702C57.3219 18.2135 57.4014 18.4483 57.47 18.7008L57.6811 19.4707L58.1355 21.0867C58.2862 21.6456 58.4583 22.216 58.6209 22.8015C58.7706 23.3986 58.9705 23.9812 59.1347 24.5986C59.3003 25.2137 59.4971 25.8259 59.6772 26.4578L59.9529 27.407L60.2451 28.3624C60.622 29.6469 61.0408 30.9423 61.4355 32.2462C61.6436 32.8949 61.8596 33.5406 62.0578 34.1899C62.1562 34.5138 62.2613 34.8356 62.3731 35.1552L62.688 36.1142L62.9993 37.0657L63.3215 38.0033L63.6325 38.9311C63.7331 39.2388 63.8485 39.54 63.9544 39.8412C64.3649 41.0468 64.793 42.204 65.1884 43.2975L65.7787 44.8848C65.9825 45.3954 66.1533 45.8876 66.3399 46.3574C66.7063 47.2984 67.0348 48.1486 67.3365 48.8965C67.4889 49.2674 67.6119 49.6106 67.7517 49.9308C67.8787 50.2442 67.9852 50.5272 68.0993 50.787C68.2866 51.2591 68.4779 51.5014 68.5735 51.8985C68.6236 52.0629 68.6741 52.1882 68.7031 52.273L68.7496 52.4012C69.1572 53.5059 70.0598 54.4363 71.2707 54.819ZM31.2655 52.4022L31.2191 52.274C31.1897 52.1892 31.1396 52.0639 31.0894 51.8995C30.9938 51.5024 30.8022 51.2601 30.6152 50.788C30.5011 50.5279 30.3946 50.2451 30.2677 49.9318C30.1278 49.6116 30.0048 49.2684 29.8525 48.8975C29.551 48.1496 29.2223 47.2994 28.8559 46.3584C28.6692 45.8886 28.4984 45.3964 28.2946 44.8858L27.7043 43.2985C27.3089 42.205 26.8809 41.0474 26.4703 39.8421C26.3641 39.541 26.2487 39.2398 26.1484 38.9321L25.8375 38.0043L25.5153 37.0666L25.204 36.1152L24.8894 35.1561C24.7786 34.8372 24.672 34.5157 24.5741 34.1909C24.3756 33.5415 24.1599 32.8958 23.9518 32.2472C23.5571 30.9433 23.1383 29.6479 22.7617 28.3634L22.4695 27.408L22.1938 26.4588C22.0137 25.8269 21.8168 25.2151 21.6513 24.5996C21.4871 23.9822 21.2872 23.3996 21.1375 22.8025C20.9746 22.2173 20.8028 21.6466 20.6521 21.0877L20.1977 19.4717L19.9866 18.7018C19.918 18.4496 19.8385 18.2145 19.7765 17.9712C19.7106 17.7322 19.6486 17.4909 19.5823 17.266C19.516 17.0418 19.4471 16.8241 19.39 16.6052C19.2769 16.1597 19.143 15.7803 19.0395 15.392C18.9369 15.0001 18.8162 14.6851 18.7279 14.3501C18.6817 14.1818 18.6332 14.0437 18.5874 13.903C18.5399 13.7646 18.501 13.6265 18.4607 13.496C18.4212 13.3595 18.3826 13.2494 18.3456 13.1458L18.249 12.8391C18.219 12.7447 18.19 12.6461 18.1646 12.5734L18.095 12.3801C18.0512 12.2644 18.0244 12.1641 18.003 12.0993L17.9714 11.9987L17.8586 11.6397C17.7505 11.2958 17.7416 10.9285 17.8329 10.5798C17.9243 10.2311 18.1121 9.91509 18.375 9.66777C18.638 9.42045 18.9654 9.25184 19.3199 9.1812C19.6743 9.11056 20.0416 9.14074 20.3797 9.26829L20.5284 9.32451C20.626 9.36265 20.7757 9.41657 20.9657 9.50007L21.2879 9.64112C21.4043 9.69504 21.5144 9.7598 21.644 9.82852C21.8943 9.96562 22.2086 10.1326 22.5064 10.3335C23.0355 10.6738 23.5447 11.0438 24.0316 11.4418C24.2156 11.5888 24.4039 11.743 24.5856 11.9037C25.4048 12.6178 26.181 13.3795 26.9102 14.1847C27.7079 15.0557 28.4948 16.0282 29.2839 17.0845C29.4904 17.3459 29.6694 17.6184 29.863 17.8936L30.4421 18.7307L30.7287 19.1578L31.0054 19.596C31.1917 19.8896 31.378 20.1868 31.5597 20.4873C31.9353 21.0847 32.2839 21.708 32.6298 22.338L33.1548 23.2901L33.6515 24.2633C34.309 25.5815 34.9179 26.9232 35.4771 28.2858C36.0308 29.6538 36.5436 31.037 36.9888 32.4185C37.0979 32.7647 37.215 33.1063 37.3146 33.4524L37.6098 34.4851C37.8064 35.1605 37.9855 35.8409 38.147 36.5255C38.4621 37.8285 38.7244 39.1437 38.9331 40.4678C39.1231 41.672 39.2613 42.8838 39.3473 44.0997C39.3661 44.3841 39.3826 44.6642 39.3942 44.9424C39.407 45.2189 39.4222 45.4881 39.4245 45.7525C39.4318 46.0142 39.4301 46.2785 39.4314 46.5317C39.4344 46.7779 39.4322 47.0242 39.4248 47.2704C39.407 47.754 39.3932 48.2133 39.3599 48.6335C39.3252 49.0632 39.2893 49.4643 39.2441 49.8214L39.1775 50.3826L39.1033 50.8915L39.0683 51.1177L39.0519 51.2236C39.0459 51.2548 39.0377 51.2781 39.0304 51.3051L38.95 51.5865C38.9038 51.7545 38.8586 51.8838 38.8322 51.9709L38.7903 52.1027L38.7406 52.2592C38.082 54.3298 35.8643 55.4766 33.7873 54.82C32.5744 54.4363 31.6715 53.5059 31.2655 52.4022Z" fill="#FFC7EF"/>
<circle cx="32.7504" cy="71.6073" r="3.31291" fill="#333333"/>
<circle cx="73.5745" cy="71.5781" r="3.3421" fill="#333333"/>
<path d="M58.8928 101.611L55.3745 100.862C54.8924 100.552 54.2687 100.38 53.6219 100.379C52.9752 100.378 52.3503 100.547 51.8659 100.856L48.2482 101.61C47.9682 101.788 47.744 102.007 47.5904 102.252C47.4368 102.497 47.3574 102.763 47.3574 103.032V107.988C47.3574 109.036 48.5393 109.887 49.9972 109.887C53.607 109.887 53.5651 108.674 53.5651 108.674C53.5651 108.674 53.607 109.887 56.5948 109.887H57.133C58.591 109.887 59.7728 109.036 59.7728 107.988V103.026C59.773 102.759 59.6947 102.495 59.543 102.251C59.3914 102.007 59.1698 101.789 58.8928 101.611Z" fill="#F4F3EF"/>
</g>
<defs>
<clipPath id="clip0_985_2266">
<rect width="110" height="110" fill="white" transform="translate(0.25 0.368591)"/>
</clipPath>
</defs>
</svg>
