<svg width="186" height="244" viewBox="0 0 186 244" fill="none" xmlns="http://www.w3.org/2000/svg">
<g filter="url(#filter0_d_1033_2311)">
<rect x="5" y="5" width="172" height="230" rx="8" fill="white"/>
<rect x="5" y="5" width="172" height="230" rx="8" stroke="black" stroke-width="2"/>
<rect x="32.9492" y="32.1816" width="116.1" height="175.636" fill="#FDF8EE" stroke="black" stroke-width="2"/>
<path d="M51.9219 63.9688C51.9624 64.0222 51.9813 63.9906 51.9219 63.9688V63.9688Z" fill="black"/>
<path d="M54.9861 49.1799C53.4974 49.2082 52.1646 49.8518 51.2185 50.8642C50.7465 51.2425 50.342 51.4928 50.1387 51.1966C49.7335 50.7372 50.9975 50.082 51.7767 49.3842L51.6527 49.3864C52.7909 48.3822 53.4989 46.8984 53.4684 45.2548C53.4133 42.2976 50.9908 39.9452 48.0571 40.001C45.1235 40.0563 42.7901 42.4984 42.8451 45.4556C42.8793 47.297 43.8323 48.9041 45.255 49.8412C46.0107 50.3804 46.854 50.8687 46.5307 51.2651C46.3382 51.5688 45.9247 51.3333 45.4392 50.9735C44.4564 49.9972 43.1 49.4048 41.6115 49.4327C38.6778 49.4881 36.3443 51.9306 36.3994 54.8877C36.4544 57.8445 38.8772 60.1969 41.8105 60.1411C44.5136 60.0903 46.705 58.0129 46.9906 55.3742C46.991 55.373 46.9925 55.3742 46.9925 55.3742C47.034 55.1417 47.1007 54.6349 47.2689 54.6451C47.4676 54.6564 47.5278 54.6089 47.5443 55.5008C47.6867 59.866 45.2883 63.847 45.2291 63.9559C45.2234 63.9665 45.2201 63.9672 45.2152 63.974C45.2351 63.9646 45.2642 63.9567 45.3083 63.9559C45.4762 63.9529 48.5725 63.9559 48.5725 63.9559C48.5725 63.9559 51.6687 63.9589 51.8365 63.9559C51.8754 63.9552 51.9014 63.9612 51.921 63.9687C51.9169 63.9631 51.9145 63.9635 51.91 63.9559C51.847 63.8497 49.3032 59.8356 49.2832 55.468C49.2666 54.5765 49.3285 54.6213 49.5264 54.6021C49.6943 54.5859 49.7795 55.0897 49.8296 55.3191C49.83 55.3203 49.8315 55.3191 49.8315 55.3191C50.2152 57.9466 52.4825 59.9399 55.1854 59.8886C58.1188 59.8329 60.4526 57.3908 60.3975 54.434C60.3423 51.4769 57.9198 49.1245 54.9861 49.1799Z" fill="black"/>
<path d="M45.2148 63.9741C45.1658 63.9963 45.1813 64.0193 45.2148 63.9741V63.9741Z" fill="black"/>
<path d="M137.125 176.031C137.165 175.978 137.184 176.009 137.125 176.031V176.031Z" fill="black"/>
<path d="M140.189 190.82C138.7 190.792 137.368 190.148 136.422 189.136C135.95 188.757 135.545 188.507 135.342 188.803C134.937 189.263 136.201 189.918 136.98 190.616L136.856 190.614C137.994 191.618 138.702 193.102 138.672 194.745C138.616 197.702 136.194 200.055 133.26 199.999C130.327 199.944 127.993 197.502 128.048 194.544C128.082 192.703 129.035 191.096 130.458 190.159C131.214 189.62 132.057 189.131 131.734 188.735C131.541 188.431 131.128 188.667 130.642 189.027C129.66 190.003 128.303 190.595 126.815 190.567C123.881 190.512 121.547 188.069 121.603 185.112C121.658 182.156 124.08 179.803 127.014 179.859C129.717 179.91 131.908 181.987 132.194 184.626C132.194 184.627 132.196 184.626 132.196 184.626C132.237 184.858 132.304 185.365 132.472 185.355C132.671 185.344 132.731 185.391 132.747 184.499C132.89 180.134 130.491 176.153 130.432 176.044C130.427 176.033 130.423 176.033 130.418 176.026C130.438 176.035 130.467 176.043 130.511 176.044C130.679 176.047 133.776 176.044 133.776 176.044C133.776 176.044 136.872 176.041 137.04 176.044C137.079 176.045 137.105 176.039 137.124 176.031C137.12 176.037 137.118 176.037 137.113 176.044C137.05 176.15 134.506 180.164 134.486 184.532C134.47 185.424 134.532 185.379 134.73 185.398C134.897 185.414 134.983 184.91 135.033 184.681C135.033 184.68 135.035 184.681 135.035 184.681C135.418 182.053 137.686 180.06 140.389 180.111C143.322 180.167 145.656 182.609 145.601 185.566C145.545 188.523 143.123 190.875 140.189 190.82Z" fill="black"/>
<path d="M130.418 176.026C130.369 176.004 130.384 175.981 130.418 176.026V176.026Z" fill="black"/>
<path d="M163.701 189.02C163.726 188.986 163.738 189.006 163.701 189.02V189.02Z" fill="black"/>
<path d="M165.617 198.263C164.687 198.245 163.854 197.843 163.263 197.21C162.968 196.973 162.715 196.817 162.588 197.002C162.334 197.289 163.124 197.699 163.611 198.135L163.534 198.133C164.245 198.761 164.688 199.689 164.669 200.716C164.634 202.564 163.12 204.034 161.287 203.999C159.453 203.965 157.995 202.438 158.029 200.59C158.051 199.439 158.646 198.435 159.535 197.849C160.008 197.512 160.535 197.207 160.333 196.959C160.212 196.77 159.954 196.917 159.65 197.142C159.036 197.752 158.188 198.122 157.258 198.105C155.425 198.07 153.966 196.543 154.001 194.695C154.035 192.847 155.549 191.377 157.383 191.412C159.072 191.444 160.442 192.742 160.62 194.391C160.62 194.392 160.621 194.391 160.621 194.391C160.647 194.536 160.689 194.853 160.794 194.847C160.918 194.84 160.956 194.869 160.966 194.312C161.055 191.584 159.556 189.096 159.519 189.028C159.516 189.021 159.514 189.02 159.51 189.016C159.523 189.022 159.541 189.027 159.569 189.028C159.674 189.029 161.609 189.028 161.609 189.028C161.609 189.028 163.544 189.026 163.649 189.028C163.673 189.028 163.689 189.024 163.702 189.02C163.699 189.023 163.698 189.023 163.695 189.028C163.655 189.094 162.066 191.603 162.053 194.332C162.043 194.89 162.081 194.862 162.205 194.874C162.31 194.884 162.363 194.569 162.394 194.426C162.395 194.425 162.396 194.426 162.396 194.426C162.635 192.783 164.053 191.538 165.742 191.57C167.575 191.604 169.034 193.131 168.999 194.979C168.965 196.827 167.451 198.297 165.617 198.263Z" fill="black"/>
<path d="M159.51 189.016C159.479 189.002 159.489 188.988 159.51 189.016V189.016Z" fill="black"/>
<path d="M21.7012 51.9805C21.7265 52.0139 21.7383 51.9941 21.7012 51.9805V51.9805Z" fill="black"/>
<path d="M23.6173 42.7374C22.6868 42.7551 21.8538 43.1574 21.2625 43.7902C20.9675 44.0266 20.7147 44.183 20.5877 43.9979C20.3344 43.7108 21.1244 43.3012 21.6114 42.8651L21.5339 42.8665C22.2453 42.2389 22.6878 41.3115 22.6687 40.2843C22.6343 38.436 21.1202 36.9657 19.2867 37.0006C17.4531 37.0352 15.9948 38.5615 16.0291 40.4097C16.0505 41.5606 16.6462 42.565 17.5354 43.1507C18.0077 43.4878 18.5347 43.793 18.3327 44.0407C18.2123 44.2305 17.9539 44.0833 17.6505 43.8584C17.0362 43.2482 16.1885 42.878 15.2582 42.8954C13.4246 42.9301 11.9661 44.4566 12.0006 46.3048C12.035 48.1528 13.5493 49.6231 15.3826 49.5882C17.072 49.5564 18.4416 48.2581 18.6201 46.6089C18.6203 46.6081 18.6213 46.6089 18.6213 46.6089C18.6472 46.4636 18.6889 46.1468 18.7941 46.1532C18.9182 46.1602 18.9558 46.1306 18.9661 46.688C19.0551 49.4163 17.5562 51.9044 17.5191 51.9724C17.5156 51.9791 17.5135 51.9795 17.5105 51.9838C17.5229 51.9779 17.5411 51.9729 17.5687 51.9724C17.6736 51.9706 19.6088 51.9724 19.6088 51.9724C19.6088 51.9724 21.5439 51.9743 21.6488 51.9724C21.6731 51.972 21.6894 51.9758 21.7016 51.9805C21.699 51.9769 21.6975 51.9772 21.6947 51.9724C21.6554 51.906 20.0655 49.3972 20.053 46.6675C20.0426 46.1103 20.0813 46.1383 20.205 46.1263C20.3099 46.1162 20.3632 46.431 20.3945 46.5745C20.3947 46.5752 20.3956 46.5745 20.3956 46.5745C20.6355 48.2166 22.0526 49.4624 23.7419 49.4304C25.5753 49.3955 27.0339 47.8693 26.9994 46.0213C26.9649 44.1731 25.4508 42.7028 23.6173 42.7374Z" fill="black"/>
<path d="M17.5097 51.9839C17.4791 51.9978 17.4888 52.0121 17.5097 51.9839V51.9839Z" fill="black"/>
<rect x="152.715" y="10.0615" width="20" height="20" rx="10" fill="#C21A2A"/>
<rect x="152.715" y="10.0615" width="20" height="20" rx="10" stroke="black" stroke-width="0.7"/>
<path d="M163.898 14.2205L162.741 13.604L156.969 16.685L162.751 19.768L168.524 16.6868L167.367 16.0703L162.749 18.535L161.593 17.9186L166.211 15.4536L165.054 14.8371L160.436 17.3019L159.28 16.6854L163.898 14.2205Z" fill="white"/>
<path d="M162.32 26.3547V20.5622L161.214 19.9698V24.736L160.108 24.1435V19.3773L159.003 18.7846V23.5508L157.897 22.9584V18.1921L156.792 17.5996V23.3921" fill="white"/>
<path d="M163.21 26.3609L168.727 23.4044V17.6012L163.21 20.5577V26.3609ZM167.623 22.9718L164.313 24.7456V23.3803L167.623 21.6065V22.9718ZM167.623 20.5823L164.313 22.3561V20.9907L167.623 19.217V20.5823Z" fill="white"/>
<rect x="152.715" y="210.062" width="20" height="20" rx="10" fill="#C21A2A"/>
<rect x="152.715" y="210.062" width="20" height="20" rx="10" stroke="black" stroke-width="0.7"/>
<path d="M163.898 214.22L162.741 213.604L156.969 216.685L162.751 219.768L168.524 216.687L167.367 216.07L162.749 218.535L161.593 217.919L166.211 215.454L165.054 214.837L160.436 217.302L159.28 216.685L163.898 214.22Z" fill="white"/>
<path d="M162.32 226.355V220.562L161.214 219.97V224.736L160.108 224.144V219.377L159.003 218.785V223.551L157.897 222.958V218.192L156.792 217.6V223.392" fill="white"/>
<path d="M163.21 226.361L168.727 223.404V217.601L163.21 220.558V226.361ZM167.623 222.972L164.313 224.746V223.38L167.623 221.606V222.972ZM167.623 220.582L164.313 222.356V220.991L167.623 219.217V220.582Z" fill="white"/>
<rect x="9.71484" y="10.0615" width="20" height="20" rx="10" fill="#C21A2A"/>
<rect x="9.71484" y="10.0615" width="20" height="20" rx="10" stroke="black" stroke-width="0.7"/>
<path d="M20.8979 14.2205L19.7413 13.604L13.9688 16.685L19.7513 19.768L25.5237 16.6868L24.3673 16.0703L19.7494 18.535L18.5927 17.9186L23.2107 15.4536L22.0543 14.8371L17.4363 17.3019L16.2797 16.6854L20.8979 14.2205Z" fill="white"/>
<path d="M19.3197 26.3547V20.5622L18.214 19.9698V24.736L17.1084 24.1435V19.3773L16.0028 18.7846V23.5508L14.8971 22.9584V18.1921L13.7915 17.5996V23.3921" fill="white"/>
<path d="M20.2098 26.3609L25.7267 23.4044V17.6012L20.2098 20.5577V26.3609ZM24.623 22.9718L21.313 24.7456V23.3803L24.623 21.6065V22.9718ZM24.623 20.5823L21.313 22.3561V20.9907L24.623 19.217V20.5823Z" fill="white"/>
<rect x="9.71484" y="210.062" width="20" height="20" rx="10" fill="#C21A2A"/>
<rect x="9.71484" y="210.062" width="20" height="20" rx="10" stroke="black" stroke-width="0.7"/>
<path d="M20.8979 214.22L19.7413 213.604L13.9688 216.685L19.7513 219.768L25.5237 216.687L24.3673 216.07L19.7494 218.535L18.5927 217.919L23.2107 215.454L22.0543 214.837L17.4363 217.302L16.2797 216.685L20.8979 214.22Z" fill="white"/>
<path d="M19.3197 226.355V220.562L18.214 219.97V224.736L17.1084 224.144V219.377L16.0028 218.785V223.551L14.8971 222.958V218.192L13.7915 217.6V223.392" fill="white"/>
<path d="M20.2098 226.361L25.7267 223.404V217.601L20.2098 220.558V226.361ZM24.623 222.972L21.313 224.746V223.38L24.623 221.606V222.972ZM24.623 220.582L21.313 222.356V220.991L24.623 219.217V220.582Z" fill="white"/>
<path fill-rule="evenodd" clip-rule="evenodd" d="M118.351 85.52C111.133 75.1443 101.42 69.4302 90.9998 69.4302C80.58 69.4302 70.8666 75.1443 63.6486 85.52C56.6823 95.5342 52.8457 108.79 52.8457 122.846C52.8457 145.086 69.9613 163.18 90.9998 163.18C112.038 163.18 129.154 145.086 129.154 122.846C129.154 108.79 125.317 95.5342 118.351 85.52ZM59.3864 122.846C59.3864 141.48 73.5681 156.639 90.9998 156.639C108.431 156.639 122.613 141.48 122.613 122.846C122.613 110.113 119.193 98.1836 112.982 89.2556C107.022 80.6888 99.2157 75.9709 90.9998 75.9709C82.7838 75.9709 74.9773 80.6886 69.0178 89.2556C62.807 98.1836 59.3864 110.113 59.3864 122.846Z" fill="#08BD7D"/>
<path d="M90.9998 156.639C73.5681 156.639 59.3864 141.48 59.3864 122.846C59.3864 110.113 62.807 98.1836 69.0178 89.2556C74.9773 80.6886 82.7838 75.9709 90.9998 75.9709C99.2157 75.9709 107.022 80.6888 112.982 89.2556C119.193 98.1836 122.613 110.113 122.613 122.846C122.613 141.48 108.431 156.639 90.9998 156.639Z" fill="#F4D63A"/>
<path fill-rule="evenodd" clip-rule="evenodd" d="M118.351 85.52C111.133 75.1443 101.42 69.4302 90.9998 69.4302C80.58 69.4302 70.8666 75.1443 63.6486 85.52C56.6823 95.5342 52.8457 108.79 52.8457 122.846C52.8457 145.086 69.9613 163.18 90.9998 163.18C112.038 163.18 129.154 145.086 129.154 122.846C129.154 108.79 125.317 95.5342 118.351 85.52ZM59.3864 122.846C59.3864 141.48 73.5681 156.639 90.9998 156.639C108.431 156.639 122.613 141.48 122.613 122.846C122.613 110.113 119.193 98.1836 112.982 89.2556C107.022 80.6888 99.2157 75.9709 90.9998 75.9709C82.7838 75.9709 74.9773 80.6886 69.0178 89.2556C62.807 98.1836 59.3864 110.113 59.3864 122.846Z" stroke="black"/>
<path d="M90.9998 156.639C73.5681 156.639 59.3864 141.48 59.3864 122.846C59.3864 110.113 62.807 98.1836 69.0178 89.2556C74.9773 80.6886 82.7838 75.9709 90.9998 75.9709C99.2157 75.9709 107.022 80.6888 112.982 89.2556C119.193 98.1836 122.613 110.113 122.613 122.846C122.613 141.48 108.431 156.639 90.9998 156.639Z" stroke="black"/>
<path fill-rule="evenodd" clip-rule="evenodd" d="M104.627 106.108C103.787 106.108 102.496 106.26 100.14 107.164C101.044 104.808 101.196 103.518 101.196 102.677C101.196 97.0543 96.6216 92.48 90.999 92.48C85.3763 92.48 80.8018 97.0545 80.8018 102.677C80.8018 103.518 80.9538 104.808 81.8583 107.164C79.5016 106.26 78.2113 106.108 77.371 106.108C71.7481 106.108 67.1738 110.682 67.1738 116.305C67.1738 121.928 71.7483 126.502 77.371 126.502C78.2113 126.502 79.5016 126.35 81.8583 125.446C80.9538 127.803 80.8018 129.093 80.8018 129.933C80.8018 135.556 85.3763 140.13 90.999 140.13C96.6216 140.13 101.196 135.556 101.196 129.933C101.196 129.093 101.044 127.803 100.14 125.446C102.496 126.35 103.787 126.502 104.627 126.502C110.25 126.502 114.824 121.928 114.824 116.305C114.824 110.682 110.25 106.108 104.627 106.108ZM77.371 120.784C78.284 120.784 80.3279 119.984 82.79 118.789C82.5515 118.002 82.422 117.169 82.422 116.305C82.422 115.442 82.5515 114.609 82.79 113.822C80.3277 112.626 78.2839 111.826 77.371 111.826C74.9011 111.826 72.8919 113.835 72.8919 116.305C72.8919 118.775 74.9011 120.784 77.371 120.784ZM86.5199 129.933C86.5199 132.403 88.5292 134.412 90.999 134.412C93.4688 134.412 95.478 132.403 95.4784 129.933C95.4784 129.02 94.6783 126.976 93.4825 124.514C92.6959 124.752 91.8624 124.882 90.9991 124.882C90.1357 124.882 89.3023 124.753 88.5157 124.514C87.3198 126.976 86.5199 129.02 86.5199 129.933ZM90.999 113.446C89.4226 113.446 88.14 114.729 88.14 116.305C88.14 117.882 89.4226 119.164 90.999 119.164C92.5754 119.164 93.8579 117.882 93.8579 116.305C93.8579 114.729 92.5754 113.446 90.999 113.446ZM90.999 107.728C91.8623 107.728 92.6958 107.858 93.4824 108.096C94.6781 105.634 95.478 103.59 95.4779 102.677C95.4779 100.207 93.4686 98.198 90.9988 98.198C88.529 98.198 86.5197 100.207 86.5197 102.677C86.5197 103.59 87.3198 105.634 88.5156 108.096C89.3022 107.858 90.1355 107.728 90.999 107.728ZM99.208 118.788C101.67 119.984 103.714 120.784 104.627 120.784C107.097 120.784 109.106 118.775 109.106 116.305C109.106 113.835 107.097 111.826 104.627 111.826C103.713 111.826 101.669 112.625 99.2078 113.821C99.4463 114.608 99.576 115.441 99.576 116.305C99.576 117.168 99.4465 118.002 99.208 118.788Z" fill="#F4BDCE"/>
<path d="M82.79 118.789C80.3279 119.984 78.284 120.784 77.371 120.784C74.9011 120.784 72.8919 118.775 72.8919 116.305C72.8919 113.835 74.9011 111.826 77.371 111.826C78.2839 111.826 80.3277 112.626 82.79 113.822C82.5515 114.609 82.422 115.442 82.422 116.305C82.422 117.169 82.5515 118.002 82.79 118.789Z" fill="#F84A01"/>
<path d="M93.4824 108.096C92.6958 107.858 91.8623 107.728 90.999 107.728C90.1355 107.728 89.3022 107.858 88.5156 108.096C87.3198 105.634 86.5197 103.59 86.5197 102.677C86.5197 100.207 88.529 98.198 90.9988 98.198C93.4686 98.198 95.4779 100.207 95.4779 102.677C95.478 103.59 94.6781 105.634 93.4824 108.096Z" fill="#F84A01"/>
<path d="M104.627 120.784C103.714 120.784 101.67 119.984 99.208 118.788C99.4465 118.002 99.576 117.168 99.576 116.305C99.576 115.441 99.4463 114.608 99.2078 113.821C101.669 112.625 103.713 111.826 104.627 111.826C107.097 111.826 109.106 113.835 109.106 116.305C109.106 118.775 107.097 120.784 104.627 120.784Z" fill="#F84A01"/>
<path d="M90.999 134.412C88.5292 134.412 86.5199 132.403 86.5199 129.933C86.5199 129.02 87.3198 126.976 88.5157 124.514C89.3023 124.753 90.1357 124.882 90.9991 124.882C91.8624 124.882 92.6959 124.752 93.4825 124.514C94.6783 126.976 95.4784 129.02 95.4784 129.933C95.478 132.403 93.4688 134.412 90.999 134.412Z" fill="#F84A01"/>
<path d="M88.14 116.305C88.14 114.729 89.4226 113.446 90.999 113.446C92.5754 113.446 93.8579 114.729 93.8579 116.305C93.8579 117.882 92.5754 119.164 90.999 119.164C89.4226 119.164 88.14 117.882 88.14 116.305Z" fill="#F84A01"/>
<path fill-rule="evenodd" clip-rule="evenodd" d="M104.627 106.108C103.787 106.108 102.496 106.26 100.14 107.164C101.044 104.808 101.196 103.518 101.196 102.677C101.196 97.0543 96.6216 92.48 90.999 92.48C85.3763 92.48 80.8018 97.0545 80.8018 102.677C80.8018 103.518 80.9538 104.808 81.8583 107.164C79.5016 106.26 78.2113 106.108 77.371 106.108C71.7481 106.108 67.1738 110.682 67.1738 116.305C67.1738 121.928 71.7483 126.502 77.371 126.502C78.2113 126.502 79.5016 126.35 81.8583 125.446C80.9538 127.803 80.8018 129.093 80.8018 129.933C80.8018 135.556 85.3763 140.13 90.999 140.13C96.6216 140.13 101.196 135.556 101.196 129.933C101.196 129.093 101.044 127.803 100.14 125.446C102.496 126.35 103.787 126.502 104.627 126.502C110.25 126.502 114.824 121.928 114.824 116.305C114.824 110.682 110.25 106.108 104.627 106.108ZM77.371 120.784C78.284 120.784 80.3279 119.984 82.79 118.789C82.5515 118.002 82.422 117.169 82.422 116.305C82.422 115.442 82.5515 114.609 82.79 113.822C80.3277 112.626 78.2839 111.826 77.371 111.826C74.9011 111.826 72.8919 113.835 72.8919 116.305C72.8919 118.775 74.9011 120.784 77.371 120.784ZM86.5199 129.933C86.5199 132.403 88.5292 134.412 90.999 134.412C93.4688 134.412 95.478 132.403 95.4784 129.933C95.4784 129.02 94.6783 126.976 93.4825 124.514C92.6959 124.752 91.8624 124.882 90.9991 124.882C90.1357 124.882 89.3023 124.753 88.5157 124.514C87.3198 126.976 86.5199 129.02 86.5199 129.933ZM90.999 113.446C89.4226 113.446 88.14 114.729 88.14 116.305C88.14 117.882 89.4226 119.164 90.999 119.164C92.5754 119.164 93.8579 117.882 93.8579 116.305C93.8579 114.729 92.5754 113.446 90.999 113.446ZM90.999 107.728C91.8623 107.728 92.6958 107.858 93.4824 108.096C94.6781 105.634 95.478 103.59 95.4779 102.677C95.4779 100.207 93.4686 98.198 90.9988 98.198C88.529 98.198 86.5197 100.207 86.5197 102.677C86.5197 103.59 87.3198 105.634 88.5156 108.096C89.3022 107.858 90.1355 107.728 90.999 107.728ZM99.208 118.788C101.67 119.984 103.714 120.784 104.627 120.784C107.097 120.784 109.106 118.775 109.106 116.305C109.106 113.835 107.097 111.826 104.627 111.826C103.713 111.826 101.669 112.625 99.2078 113.821C99.4463 114.608 99.576 115.441 99.576 116.305C99.576 117.168 99.4465 118.002 99.208 118.788Z" stroke="black"/>
<path d="M82.79 118.789C80.3279 119.984 78.284 120.784 77.371 120.784C74.9011 120.784 72.8919 118.775 72.8919 116.305C72.8919 113.835 74.9011 111.826 77.371 111.826C78.2839 111.826 80.3277 112.626 82.79 113.822C82.5515 114.609 82.422 115.442 82.422 116.305C82.422 117.169 82.5515 118.002 82.79 118.789Z" stroke="black"/>
<path d="M93.4824 108.096C92.6958 107.858 91.8623 107.728 90.999 107.728C90.1355 107.728 89.3022 107.858 88.5156 108.096C87.3198 105.634 86.5197 103.59 86.5197 102.677C86.5197 100.207 88.529 98.198 90.9988 98.198C93.4686 98.198 95.4779 100.207 95.4779 102.677C95.478 103.59 94.6781 105.634 93.4824 108.096Z" stroke="black"/>
<path d="M104.627 120.784C103.714 120.784 101.67 119.984 99.208 118.788C99.4465 118.002 99.576 117.168 99.576 116.305C99.576 115.441 99.4463 114.608 99.2078 113.821C101.669 112.625 103.713 111.826 104.627 111.826C107.097 111.826 109.106 113.835 109.106 116.305C109.106 118.775 107.097 120.784 104.627 120.784Z" stroke="black"/>
<path d="M90.999 134.412C88.5292 134.412 86.5199 132.403 86.5199 129.933C86.5199 129.02 87.3198 126.976 88.5157 124.514C89.3023 124.753 90.1357 124.882 90.9991 124.882C91.8624 124.882 92.6959 124.752 93.4825 124.514C94.6783 126.976 95.4784 129.02 95.4784 129.933C95.478 132.403 93.4688 134.412 90.999 134.412Z" stroke="black"/>
<path d="M88.14 116.305C88.14 114.729 89.4226 113.446 90.999 113.446C92.5754 113.446 93.8579 114.729 93.8579 116.305C93.8579 117.882 92.5754 119.164 90.999 119.164C89.4226 119.164 88.14 117.882 88.14 116.305Z" stroke="black"/>
</g>
<defs>
<filter id="filter0_d_1033_2311" x="0" y="0" width="186" height="244" filterUnits="userSpaceOnUse" color-interpolation-filters="sRGB">
<feFlood flood-opacity="0" result="BackgroundImageFix"/>
<feColorMatrix in="SourceAlpha" type="matrix" values="0 0 0 0 0 0 0 0 0 0 0 0 0 0 0 0 0 0 127 0" result="hardAlpha"/>
<feOffset dx="2" dy="2"/>
<feGaussianBlur stdDeviation="3"/>
<feComposite in2="hardAlpha" operator="out"/>
<feColorMatrix type="matrix" values="0 0 0 0 0 0 0 0 0 0 0 0 0 0 0 0 0 0 0.15 0"/>
<feBlend mode="normal" in2="BackgroundImageFix" result="effect1_dropShadow_1033_2311"/>
<feBlend mode="normal" in="SourceGraphic" in2="effect1_dropShadow_1033_2311" result="shape"/>
</filter>
</defs>
</svg>
