<svg width="186" height="244" viewBox="0 0 186 244" fill="none" xmlns="http://www.w3.org/2000/svg">
<g filter="url(#filter0_d_1033_2231)">
<rect x="5" y="5" width="172" height="230" rx="8" fill="white"/>
<rect x="5" y="5" width="172" height="230" rx="8" stroke="black" stroke-width="2"/>
<rect x="23.375" y="21.6299" width="135.25" height="196.74" rx="5" fill="#CDDBF3" stroke="black"/>
<path d="M33.4839 25.8247L32.5219 25.312L27.721 27.8745L32.5302 30.4386L37.3312 27.8759L36.3694 27.3632L32.5287 29.4132L31.5667 28.9004L35.4075 26.8503L34.4457 26.3376L30.6049 28.3875L29.643 27.8748L33.4839 25.8247Z" fill="#5900FE"/>
<path d="M32.1713 35.9168V31.0992L31.2517 30.6064V34.5705L30.3322 34.0778V30.1136L29.4126 29.6207V33.5848L28.4931 33.092V29.1279L27.5735 28.6352V33.4528" fill="#5900FE"/>
<path d="M32.9116 35.9219L37.5 33.463V28.6365L32.9116 31.0954V35.9219ZM36.5821 33.1032L33.8291 34.5785V33.4429L36.5821 31.9677V33.1032ZM36.5821 31.1159L33.8291 32.5911V31.4556L36.5821 29.9803V31.1159Z" fill="#5900FE"/>
<path d="M46.4839 25.8247L45.5219 25.312L40.721 27.8745L45.5302 30.4386L50.3312 27.8759L49.3694 27.3632L45.5287 29.4132L44.5667 28.9004L48.4075 26.8503L47.4457 26.3376L43.6049 28.3875L42.643 27.8748L46.4839 25.8247Z" fill="#5900FE"/>
<path d="M45.1713 35.9168V31.0992L44.2517 30.6064V34.5705L43.3322 34.0778V30.1136L42.4126 29.6207V33.5848L41.4931 33.092V29.1279L40.5735 28.6352V33.4528" fill="#5900FE"/>
<path d="M45.9116 35.9219L50.5 33.463V28.6365L45.9116 31.0954V35.9219ZM49.5821 33.1032L46.8291 34.5785V33.4429L49.5821 31.9677V33.1032ZM49.5821 31.1159L46.8291 32.5911V31.4556L49.5821 29.9803V31.1159Z" fill="#5900FE"/>
<path d="M59.4839 25.8247L58.5219 25.312L53.721 27.8745L58.5302 30.4386L63.3312 27.8759L62.3694 27.3632L58.5287 29.4132L57.5667 28.9004L61.4075 26.8503L60.4457 26.3376L56.6049 28.3875L55.643 27.8748L59.4839 25.8247Z" fill="#5900FE"/>
<path d="M58.1713 35.9168V31.0992L57.2517 30.6064V34.5705L56.3322 34.0778V30.1136L55.4126 29.6207V33.5848L54.4931 33.092V29.1279L53.5735 28.6352V33.4528" fill="#5900FE"/>
<path d="M58.9116 35.9219L63.5 33.463V28.6365L58.9116 31.0954V35.9219ZM62.5821 33.1032L59.8291 34.5785V33.4429L62.5821 31.9677V33.1032ZM62.5821 31.1159L59.8291 32.5911V31.4556L62.5821 29.9803V31.1159Z" fill="#5900FE"/>
<path d="M72.4839 25.8247L71.5219 25.312L66.721 27.8745L71.5302 30.4386L76.3312 27.8759L75.3694 27.3632L71.5287 29.4132L70.5667 28.9004L74.4075 26.8503L73.4457 26.3376L69.6049 28.3875L68.643 27.8748L72.4839 25.8247Z" fill="#5900FE"/>
<path d="M71.1713 35.9168V31.0992L70.2517 30.6064V34.5705L69.3322 34.0778V30.1136L68.4126 29.6207V33.5848L67.4931 33.092V29.1279L66.5735 28.6352V33.4528" fill="#5900FE"/>
<path d="M71.9116 35.9219L76.5 33.463V28.6365L71.9116 31.0954V35.9219ZM75.5821 33.1032L72.8291 34.5785V33.4429L75.5821 31.9677V33.1032ZM75.5821 31.1159L72.8291 32.5911V31.4556L75.5821 29.9803V31.1159Z" fill="#5900FE"/>
<path d="M85.4839 25.8247L84.5219 25.312L79.721 27.8745L84.5302 30.4386L89.3312 27.8759L88.3694 27.3632L84.5287 29.4132L83.5667 28.9004L87.4075 26.8503L86.4457 26.3376L82.6049 28.3875L81.643 27.8748L85.4839 25.8247Z" fill="#5900FE"/>
<path d="M84.1713 35.9168V31.0992L83.2517 30.6064V34.5705L82.3322 34.0778V30.1136L81.4126 29.6207V33.5848L80.4931 33.092V29.1279L79.5735 28.6352V33.4528" fill="#5900FE"/>
<path d="M84.9116 35.9219L89.5 33.463V28.6365L84.9116 31.0954V35.9219ZM88.5821 33.1032L85.8291 34.5785V33.4429L88.5821 31.9677V33.1032ZM88.5821 31.1159L85.8291 32.5911V31.4556L88.5821 29.9803V31.1159Z" fill="#5900FE"/>
<path d="M98.4839 25.8247L97.5219 25.312L92.721 27.8745L97.5302 30.4386L102.331 27.8759L101.369 27.3632L97.5287 29.4132L96.5667 28.9004L100.407 26.8503L99.4457 26.3376L95.6049 28.3875L94.643 27.8748L98.4839 25.8247Z" fill="#5900FE"/>
<path d="M97.1713 35.9168V31.0992L96.2517 30.6064V34.5705L95.3322 34.0778V30.1136L94.4126 29.6207V33.5848L93.4931 33.092V29.1279L92.5735 28.6352V33.4528" fill="#5900FE"/>
<path d="M97.9116 35.9219L102.5 33.463V28.6365L97.9116 31.0954V35.9219ZM101.582 33.1032L98.8291 34.5785V33.4429L101.582 31.9677V33.1032ZM101.582 31.1159L98.8291 32.5911V31.4556L101.582 29.9803V31.1159Z" fill="#5900FE"/>
<path d="M111.484 25.8247L110.522 25.312L105.721 27.8745L110.53 30.4386L115.331 27.8759L114.369 27.3632L110.529 29.4132L109.567 28.9004L113.407 26.8503L112.446 26.3376L108.605 28.3875L107.643 27.8748L111.484 25.8247Z" fill="#5900FE"/>
<path d="M110.171 35.9168V31.0992L109.252 30.6064V34.5705L108.332 34.0778V30.1136L107.413 29.6207V33.5848L106.493 33.092V29.1279L105.574 28.6352V33.4528" fill="#5900FE"/>
<path d="M110.912 35.9219L115.5 33.463V28.6365L110.912 31.0954V35.9219ZM114.582 33.1032L111.829 34.5785V33.4429L114.582 31.9677V33.1032ZM114.582 31.1159L111.829 32.5911V31.4556L114.582 29.9803V31.1159Z" fill="#5900FE"/>
<path d="M124.484 25.8247L123.522 25.312L118.721 27.8745L123.53 30.4386L128.331 27.8759L127.369 27.3632L123.529 29.4132L122.567 28.9004L126.407 26.8503L125.446 26.3376L121.605 28.3875L120.643 27.8748L124.484 25.8247Z" fill="#5900FE"/>
<path d="M123.171 35.9168V31.0992L122.252 30.6064V34.5705L121.332 34.0778V30.1136L120.413 29.6207V33.5848L119.493 33.092V29.1279L118.574 28.6352V33.4528" fill="#5900FE"/>
<path d="M123.912 35.9219L128.5 33.463V28.6365L123.912 31.0954V35.9219ZM127.582 33.1032L124.829 34.5785V33.4429L127.582 31.9677V33.1032ZM127.582 31.1159L124.829 32.5911V31.4556L127.582 29.9803V31.1159Z" fill="#5900FE"/>
<path d="M137.484 25.8247L136.522 25.312L131.721 27.8745L136.53 30.4386L141.331 27.8759L140.369 27.3632L136.529 29.4132L135.567 28.9004L139.407 26.8503L138.446 26.3376L134.605 28.3875L133.643 27.8748L137.484 25.8247Z" fill="#5900FE"/>
<path d="M136.171 35.9168V31.0992L135.252 30.6064V34.5705L134.332 34.0778V30.1136L133.413 29.6207V33.5848L132.493 33.092V29.1279L131.574 28.6352V33.4528" fill="#5900FE"/>
<path d="M136.912 35.9219L141.5 33.463V28.6365L136.912 31.0954V35.9219ZM140.582 33.1032L137.829 34.5785V33.4429L140.582 31.9677V33.1032ZM140.582 31.1159L137.829 32.5911V31.4556L140.582 29.9803V31.1159Z" fill="#5900FE"/>
<path d="M150.484 25.8247L149.522 25.312L144.721 27.8745L149.53 30.4386L154.331 27.8759L153.369 27.3632L149.529 29.4132L148.567 28.9004L152.407 26.8503L151.446 26.3376L147.605 28.3875L146.643 27.8748L150.484 25.8247Z" fill="#5900FE"/>
<path d="M149.171 35.9168V31.0992L148.252 30.6064V34.5705L147.332 34.0778V30.1136L146.413 29.6207V33.5848L145.493 33.092V29.1279L144.574 28.6352V33.4528" fill="#5900FE"/>
<path d="M149.912 35.9219L154.5 33.463V28.6365L149.912 31.0954V35.9219ZM153.582 33.1032L150.829 34.5785V33.4429L153.582 31.9677V33.1032ZM153.582 31.1159L150.829 32.5911V31.4556L153.582 29.9803V31.1159Z" fill="#5900FE"/>
<path d="M33.4839 39.5659L32.5219 39.0532L27.721 41.6157L32.5302 44.1798L37.3312 41.6171L36.3694 41.1044L32.5287 43.1544L31.5667 42.6417L35.4075 40.5915L34.4457 40.0788L30.6049 42.1288L29.643 41.616L33.4839 39.5659Z" fill="#5900FE"/>
<path d="M32.1713 49.658V44.8404L31.2517 44.3476V48.3117L30.3322 47.819V43.8549L29.4126 43.3619V47.326L28.4931 46.8332V42.8691L27.5735 42.3764V47.194" fill="#5900FE"/>
<path d="M32.9116 49.6631L37.5 47.2042V42.3777L32.9116 44.8366V49.6631ZM36.5821 46.8444L33.8291 48.3197V47.1841L36.5821 45.7089V46.8444ZM36.5821 44.8571L33.8291 46.3323V45.1968L36.5821 43.7215V44.8571Z" fill="#5900FE"/>
<path d="M33.4839 53.3071L32.5219 52.7944L27.721 55.3569L32.5302 57.921L37.3312 55.3584L36.3694 54.8456L32.5287 56.8956L31.5667 56.3829L35.4075 54.3328L34.4457 53.82L30.6049 55.87L29.643 55.3573L33.4839 53.3071Z" fill="#5900FE"/>
<path d="M32.1713 63.3992V58.5816L31.2517 58.0888V62.0529L30.3322 61.5602V57.5961L29.4126 57.1031V61.0672L28.4931 60.5745V56.6104L27.5735 56.1176V60.9352" fill="#5900FE"/>
<path d="M32.9116 63.4043L37.5 60.9455V56.1189L32.9116 58.5778V63.4043ZM36.5821 60.5856L33.8291 62.0609V60.9253L36.5821 59.4501V60.5856ZM36.5821 58.5983L33.8291 60.0735V58.938L36.5821 57.4627V58.5983Z" fill="#5900FE"/>
<path d="M33.4839 67.0484L32.5219 66.5356L27.721 69.0981L32.5302 71.6622L37.3312 69.0996L36.3694 68.5869L32.5287 70.6368L31.5667 70.1241L35.4075 68.074L34.4457 67.5613L30.6049 69.6112L29.643 69.0985L33.4839 67.0484Z" fill="#5900FE"/>
<path d="M32.1713 77.1404V72.3228L31.2517 71.83V75.7941L30.3322 75.3014V71.3373L29.4126 70.8443V74.8084L28.4931 74.3157V70.3516L27.5735 69.8588V74.6764" fill="#5900FE"/>
<path d="M32.9116 77.1455L37.5 74.6867V69.8601L32.9116 72.319V77.1455ZM36.5821 74.3269L33.8291 75.8021V74.6666L36.5821 73.1913V74.3269ZM36.5821 72.3395L33.8291 73.8148V72.6792L36.5821 71.2039V72.3395Z" fill="#5900FE"/>
<path d="M33.4839 80.7896L32.5219 80.2769L27.721 82.8393L32.5302 85.4034L37.3312 82.8408L36.3694 82.3281L32.5287 84.378L31.5667 83.8653L35.4075 81.8152L34.4457 81.3025L30.6049 83.3524L29.643 82.8397L33.4839 80.7896Z" fill="#5900FE"/>
<path d="M32.1713 90.8816V86.064L31.2517 85.5713V89.5354L30.3322 89.0426V85.0785L29.4126 84.5855V88.5496L28.4931 88.0569V84.0928L27.5735 83.6V88.4176" fill="#5900FE"/>
<path d="M32.9116 90.8868L37.5 88.4279V83.6013L32.9116 86.0602V90.8868ZM36.5821 88.0681L33.8291 89.5433V88.4078L36.5821 86.9325V88.0681ZM36.5821 86.0807L33.8291 87.556V86.4204L36.5821 84.9452V86.0807Z" fill="#5900FE"/>
<path d="M33.4839 94.5303L32.5219 94.0176L27.721 96.58L32.5302 99.1441L37.3312 96.5815L36.3694 96.0688L32.5287 98.1187L31.5667 97.606L35.4075 95.5559L34.4457 95.0432L30.6049 97.0931L29.643 96.5804L33.4839 94.5303Z" fill="#5900FE"/>
<path d="M32.1713 104.622V99.8047L31.2517 99.312V103.276L30.3322 102.783V98.8192L29.4126 98.3263V102.29L28.4931 101.798V97.8335L27.5735 97.3407V102.158" fill="#5900FE"/>
<path d="M32.9116 104.627L37.5 102.169V97.3421L32.9116 99.8009V104.627ZM36.5821 101.809L33.8291 103.284V102.148L36.5821 100.673V101.809ZM36.5821 99.8214L33.8291 101.297V100.161L36.5821 98.6859V99.8214Z" fill="#5900FE"/>
<path d="M33.4839 108.272L32.5219 107.759L27.721 110.321L32.5302 112.885L37.3312 110.323L36.3694 109.81L32.5287 111.86L31.5667 111.347L35.4075 109.297L34.4457 108.784L30.6049 110.834L29.643 110.322L33.4839 108.272Z" fill="#5900FE"/>
<path d="M32.1713 118.364V113.546L31.2517 113.053V117.017L30.3322 116.525V112.56L29.4126 112.067V116.032L28.4931 115.539V111.575L27.5735 111.082V115.9" fill="#5900FE"/>
<path d="M32.9116 118.369L37.5 115.91V111.083L32.9116 113.542V118.369ZM36.5821 115.55L33.8291 117.025V115.89L36.5821 114.414V115.55ZM36.5821 113.563L33.8291 115.038V113.902L36.5821 112.427V113.563Z" fill="#5900FE"/>
<path d="M33.4839 122.013L32.5219 121.5L27.721 124.062L32.5302 126.627L37.3312 124.064L36.3694 123.551L32.5287 125.601L31.5667 125.088L35.4075 123.038L34.4457 122.526L30.6049 124.576L29.643 124.063L33.4839 122.013Z" fill="#5900FE"/>
<path d="M32.1713 132.105V127.287L31.2517 126.794V130.759L30.3322 130.266V126.302L29.4126 125.809V129.773L28.4931 129.28V125.316L27.5735 124.823V129.641" fill="#5900FE"/>
<path d="M32.9116 132.11L37.5 129.651V124.824L32.9116 127.283V132.11ZM36.5821 129.291L33.8291 130.766V129.631L36.5821 128.156V129.291ZM36.5821 127.304L33.8291 128.779V127.644L36.5821 126.168V127.304Z" fill="#5900FE"/>
<path d="M33.4839 135.754L32.5219 135.241L27.721 137.804L32.5302 140.368L37.3312 137.805L36.3694 137.292L32.5287 139.342L31.5667 138.83L35.4075 136.78L34.4457 136.267L30.6049 138.317L29.643 137.804L33.4839 135.754Z" fill="#5900FE"/>
<path d="M32.1713 145.846V141.028L31.2517 140.536V144.5L30.3322 144.007V140.043L29.4126 139.55V143.514L28.4931 143.021V139.057L27.5735 138.564V143.382" fill="#5900FE"/>
<path d="M32.9116 145.851L37.5 143.392V138.566L32.9116 141.025V145.851ZM36.5821 143.032L33.8291 144.508V143.372L36.5821 141.897V143.032ZM36.5821 141.045L33.8291 142.52V141.385L36.5821 139.91V141.045Z" fill="#5900FE"/>
<path d="M33.4839 149.495L32.5219 148.982L27.721 151.545L32.5302 154.109L37.3312 151.546L36.3694 151.034L32.5287 153.084L31.5667 152.571L35.4075 150.521L34.4457 150.008L30.6049 152.058L29.643 151.545L33.4839 149.495Z" fill="#5900FE"/>
<path d="M32.1713 159.587V154.77L31.2517 154.277V158.241L30.3322 157.748V153.784L29.4126 153.291V157.255L28.4931 156.762V152.798L27.5735 152.306V157.123" fill="#5900FE"/>
<path d="M32.9116 159.592L37.5 157.133V152.307L32.9116 154.766V159.592ZM36.5821 156.774L33.8291 158.249V157.113L36.5821 155.638V156.774ZM36.5821 154.786L33.8291 156.262V155.126L36.5821 153.651V154.786Z" fill="#5900FE"/>
<path d="M33.4839 163.236L32.5219 162.724L27.721 165.286L32.5302 167.85L37.3312 165.288L36.3694 164.775L32.5287 166.825L31.5667 166.312L35.4075 164.262L34.4457 163.749L30.6049 165.799L29.643 165.286L33.4839 163.236Z" fill="#5900FE"/>
<path d="M32.1713 173.328V168.511L31.2517 168.018V171.982L30.3322 171.489V167.525L29.4126 167.032V170.996L28.4931 170.504V166.54L27.5735 166.047V170.864" fill="#5900FE"/>
<path d="M32.9116 173.334L37.5 170.875V166.048L32.9116 168.507V173.334ZM36.5821 170.515L33.8291 171.99V170.855L36.5821 169.379V170.515ZM36.5821 168.527L33.8291 170.003V168.867L36.5821 167.392V168.527Z" fill="#5900FE"/>
<path d="M33.4839 176.978L32.5219 176.465L27.721 179.027L32.5302 181.591L37.3312 179.029L36.3694 178.516L32.5287 180.566L31.5667 180.053L35.4075 178.003L34.4457 177.49L30.6049 179.54L29.643 179.028L33.4839 176.978Z" fill="#5900FE"/>
<path d="M32.1713 187.07V182.252L31.2517 181.759V185.723L30.3322 185.231V181.266L29.4126 180.774V184.738L28.4931 184.245V180.281L27.5735 179.788V184.606" fill="#5900FE"/>
<path d="M32.9116 187.075L37.5 184.616V179.789L32.9116 182.248V187.075ZM36.5821 184.256L33.8291 185.731V184.596L36.5821 183.121V184.256ZM36.5821 182.269L33.8291 183.744V182.608L36.5821 181.133V182.269Z" fill="#5900FE"/>
<path d="M33.4839 190.718L32.5219 190.206L27.721 192.768L32.5302 195.332L37.3312 192.769L36.3694 192.257L32.5287 194.307L31.5667 193.794L35.4075 191.744L34.4457 191.231L30.6049 193.281L29.643 192.768L33.4839 190.718Z" fill="#5900FE"/>
<path d="M32.1713 200.81V195.993L31.2517 195.5V199.464L30.3322 198.971V195.007L29.4126 194.514V198.478L28.4931 197.986V194.021L27.5735 193.529V198.346" fill="#5900FE"/>
<path d="M32.9116 200.815L37.5 198.357V193.53L32.9116 195.989V200.815ZM36.5821 197.997L33.8291 199.472V198.336L36.5821 196.861V197.997ZM36.5821 196.009L33.8291 197.485V196.349L36.5821 194.874V196.009Z" fill="#5900FE"/>
<path d="M150.484 39.5659L149.522 39.0532L144.721 41.6157L149.53 44.1798L154.331 41.6171L153.369 41.1044L149.529 43.1544L148.567 42.6417L152.407 40.5915L151.446 40.0788L147.605 42.1288L146.643 41.616L150.484 39.5659Z" fill="#5900FE"/>
<path d="M149.171 49.658V44.8404L148.252 44.3476V48.3117L147.332 47.819V43.8549L146.413 43.3619V47.326L145.493 46.8332V42.8691L144.574 42.3764V47.194" fill="#5900FE"/>
<path d="M149.912 49.6631L154.5 47.2042V42.3777L149.912 44.8366V49.6631ZM153.582 46.8444L150.829 48.3197V47.1841L153.582 45.7089V46.8444ZM153.582 44.8571L150.829 46.3323V45.1968L153.582 43.7215V44.8571Z" fill="#5900FE"/>
<path d="M150.484 53.3071L149.522 52.7944L144.721 55.3569L149.53 57.921L154.331 55.3584L153.369 54.8456L149.529 56.8956L148.567 56.3829L152.407 54.3328L151.446 53.82L147.605 55.87L146.643 55.3573L150.484 53.3071Z" fill="#5900FE"/>
<path d="M149.171 63.3992V58.5816L148.252 58.0888V62.0529L147.332 61.5602V57.5961L146.413 57.1031V61.0672L145.493 60.5745V56.6104L144.574 56.1176V60.9352" fill="#5900FE"/>
<path d="M149.912 63.4043L154.5 60.9455V56.1189L149.912 58.5778V63.4043ZM153.582 60.5856L150.829 62.0609V60.9253L153.582 59.4501V60.5856ZM153.582 58.5983L150.829 60.0735V58.938L153.582 57.4627V58.5983Z" fill="#5900FE"/>
<path d="M150.484 67.0484L149.522 66.5356L144.721 69.0981L149.53 71.6622L154.331 69.0996L153.369 68.5869L149.529 70.6368L148.567 70.1241L152.407 68.074L151.446 67.5613L147.605 69.6112L146.643 69.0985L150.484 67.0484Z" fill="#5900FE"/>
<path d="M149.171 77.1404V72.3228L148.252 71.83V75.7941L147.332 75.3014V71.3373L146.413 70.8443V74.8084L145.493 74.3157V70.3516L144.574 69.8588V74.6764" fill="#5900FE"/>
<path d="M149.912 77.1455L154.5 74.6867V69.8601L149.912 72.319V77.1455ZM153.582 74.3269L150.829 75.8021V74.6666L153.582 73.1913V74.3269ZM153.582 72.3395L150.829 73.8148V72.6792L153.582 71.2039V72.3395Z" fill="#5900FE"/>
<path d="M150.484 80.7896L149.522 80.2769L144.721 82.8393L149.53 85.4034L154.331 82.8408L153.369 82.3281L149.529 84.378L148.567 83.8653L152.407 81.8152L151.446 81.3025L147.605 83.3524L146.643 82.8397L150.484 80.7896Z" fill="#5900FE"/>
<path d="M149.171 90.8816V86.064L148.252 85.5713V89.5354L147.332 89.0426V85.0785L146.413 84.5855V88.5496L145.493 88.0569V84.0928L144.574 83.6V88.4176" fill="#5900FE"/>
<path d="M149.912 90.8868L154.5 88.4279V83.6013L149.912 86.0602V90.8868ZM153.582 88.0681L150.829 89.5433V88.4078L153.582 86.9325V88.0681ZM153.582 86.0807L150.829 87.556V86.4204L153.582 84.9452V86.0807Z" fill="#5900FE"/>
<path d="M150.484 94.5303L149.522 94.0176L144.721 96.58L149.53 99.1441L154.331 96.5815L153.369 96.0688L149.529 98.1187L148.567 97.606L152.407 95.5559L151.446 95.0432L147.605 97.0931L146.643 96.5804L150.484 94.5303Z" fill="#5900FE"/>
<path d="M149.171 104.622V99.8047L148.252 99.312V103.276L147.332 102.783V98.8192L146.413 98.3263V102.29L145.493 101.798V97.8335L144.574 97.3407V102.158" fill="#5900FE"/>
<path d="M149.912 104.627L154.5 102.169V97.3421L149.912 99.8009V104.627ZM153.582 101.809L150.829 103.284V102.148L153.582 100.673V101.809ZM153.582 99.8214L150.829 101.297V100.161L153.582 98.6859V99.8214Z" fill="#5900FE"/>
<path d="M150.484 108.272L149.522 107.759L144.721 110.321L149.53 112.885L154.331 110.323L153.369 109.81L149.529 111.86L148.567 111.347L152.407 109.297L151.446 108.784L147.605 110.834L146.643 110.322L150.484 108.272Z" fill="#5900FE"/>
<path d="M149.171 118.364V113.546L148.252 113.053V117.017L147.332 116.525V112.56L146.413 112.067V116.032L145.493 115.539V111.575L144.574 111.082V115.9" fill="#5900FE"/>
<path d="M149.912 118.369L154.5 115.91V111.083L149.912 113.542V118.369ZM153.582 115.55L150.829 117.025V115.89L153.582 114.414V115.55ZM153.582 113.563L150.829 115.038V113.902L153.582 112.427V113.563Z" fill="#5900FE"/>
<path d="M150.484 122.013L149.522 121.5L144.721 124.062L149.53 126.627L154.331 124.064L153.369 123.551L149.529 125.601L148.567 125.088L152.407 123.038L151.446 122.526L147.605 124.576L146.643 124.063L150.484 122.013Z" fill="#5900FE"/>
<path d="M149.171 132.105V127.287L148.252 126.794V130.759L147.332 130.266V126.302L146.413 125.809V129.773L145.493 129.28V125.316L144.574 124.823V129.641" fill="#5900FE"/>
<path d="M149.912 132.11L154.5 129.651V124.824L149.912 127.283V132.11ZM153.582 129.291L150.829 130.766V129.631L153.582 128.156V129.291ZM153.582 127.304L150.829 128.779V127.644L153.582 126.168V127.304Z" fill="#5900FE"/>
<path d="M150.484 135.754L149.522 135.241L144.721 137.804L149.53 140.368L154.331 137.805L153.369 137.292L149.529 139.342L148.567 138.83L152.407 136.78L151.446 136.267L147.605 138.317L146.643 137.804L150.484 135.754Z" fill="#5900FE"/>
<path d="M149.171 145.846V141.028L148.252 140.536V144.5L147.332 144.007V140.043L146.413 139.55V143.514L145.493 143.021V139.057L144.574 138.564V143.382" fill="#5900FE"/>
<path d="M149.912 145.851L154.5 143.392V138.566L149.912 141.025V145.851ZM153.582 143.032L150.829 144.508V143.372L153.582 141.897V143.032ZM153.582 141.045L150.829 142.52V141.385L153.582 139.91V141.045Z" fill="#5900FE"/>
<path d="M150.484 149.495L149.522 148.982L144.721 151.545L149.53 154.109L154.331 151.546L153.369 151.034L149.529 153.084L148.567 152.571L152.407 150.521L151.446 150.008L147.605 152.058L146.643 151.545L150.484 149.495Z" fill="#5900FE"/>
<path d="M149.171 159.587V154.77L148.252 154.277V158.241L147.332 157.748V153.784L146.413 153.291V157.255L145.493 156.762V152.798L144.574 152.306V157.123" fill="#5900FE"/>
<path d="M149.912 159.592L154.5 157.133V152.307L149.912 154.766V159.592ZM153.582 156.774L150.829 158.249V157.113L153.582 155.638V156.774ZM153.582 154.786L150.829 156.262V155.126L153.582 153.651V154.786Z" fill="#5900FE"/>
<path d="M150.484 163.236L149.522 162.724L144.721 165.286L149.53 167.85L154.331 165.288L153.369 164.775L149.529 166.825L148.567 166.312L152.407 164.262L151.446 163.749L147.605 165.799L146.643 165.286L150.484 163.236Z" fill="#5900FE"/>
<path d="M149.171 173.328V168.511L148.252 168.018V171.982L147.332 171.489V167.525L146.413 167.032V170.996L145.493 170.504V166.54L144.574 166.047V170.864" fill="#5900FE"/>
<path d="M149.912 173.334L154.5 170.875V166.048L149.912 168.507V173.334ZM153.582 170.515L150.829 171.99V170.855L153.582 169.379V170.515ZM153.582 168.527L150.829 170.003V168.867L153.582 167.392V168.527Z" fill="#5900FE"/>
<path d="M150.484 176.978L149.522 176.465L144.721 179.027L149.53 181.591L154.331 179.029L153.369 178.516L149.529 180.566L148.567 180.053L152.407 178.003L151.446 177.49L147.605 179.54L146.643 179.028L150.484 176.978Z" fill="#5900FE"/>
<path d="M149.171 187.07V182.252L148.252 181.759V185.723L147.332 185.231V181.266L146.413 180.774V184.738L145.493 184.245V180.281L144.574 179.788V184.606" fill="#5900FE"/>
<path d="M149.912 187.075L154.5 184.616V179.789L149.912 182.248V187.075ZM153.582 184.256L150.829 185.731V184.596L153.582 183.121V184.256ZM153.582 182.269L150.829 183.744V182.608L153.582 181.133V182.269Z" fill="#5900FE"/>
<path d="M150.484 190.718L149.522 190.206L144.721 192.768L149.53 195.332L154.331 192.769L153.369 192.257L149.529 194.307L148.567 193.794L152.407 191.744L151.446 191.231L147.605 193.281L146.643 192.768L150.484 190.718Z" fill="#5900FE"/>
<path d="M149.171 200.81V195.993L148.252 195.5V199.464L147.332 198.971V195.007L146.413 194.514V198.478L145.493 197.986V194.021L144.574 193.529V198.346" fill="#5900FE"/>
<path d="M149.912 200.815L154.5 198.357V193.53L149.912 195.989V200.815ZM153.582 197.997L150.829 199.472V198.336L153.582 196.861V197.997ZM153.582 196.009L150.829 197.485V196.349L153.582 194.874V196.009Z" fill="#5900FE"/>
<path d="M33.4839 204.459L32.5219 203.947L27.721 206.509L32.5302 209.073L37.3312 206.511L36.3694 205.998L32.5287 208.048L31.5667 207.535L35.4075 205.485L34.4457 204.972L30.6049 207.022L29.643 206.51L33.4839 204.459Z" fill="#5900FE"/>
<path d="M32.1713 214.552V209.734L31.2517 209.241V213.205L30.3322 212.713V208.748L29.4126 208.255V212.22L28.4931 211.727V207.763L27.5735 207.27V212.088" fill="#5900FE"/>
<path d="M32.9116 214.557L37.5 212.098V207.271L32.9116 209.73V214.557ZM36.5821 211.738L33.8291 213.213V212.078L36.5821 210.602V211.738ZM36.5821 209.751L33.8291 211.226V210.09L36.5821 208.615V209.751Z" fill="#5900FE"/>
<path d="M46.4839 204.459L45.5219 203.947L40.721 206.509L45.5302 209.073L50.3312 206.511L49.3694 205.998L45.5287 208.048L44.5667 207.535L48.4075 205.485L47.4457 204.972L43.6049 207.022L42.643 206.51L46.4839 204.459Z" fill="#5900FE"/>
<path d="M45.1713 214.552V209.734L44.2517 209.241V213.205L43.3322 212.713V208.748L42.4126 208.255V212.22L41.4931 211.727V207.763L40.5735 207.27V212.088" fill="#5900FE"/>
<path d="M45.9116 214.557L50.5 212.098V207.271L45.9116 209.73V214.557ZM49.5821 211.738L46.8291 213.213V212.078L49.5821 210.602V211.738ZM49.5821 209.751L46.8291 211.226V210.09L49.5821 208.615V209.751Z" fill="#5900FE"/>
<path d="M59.4839 204.459L58.5219 203.947L53.721 206.509L58.5302 209.073L63.3312 206.511L62.3694 205.998L58.5287 208.048L57.5667 207.535L61.4075 205.485L60.4457 204.972L56.6049 207.022L55.643 206.51L59.4839 204.459Z" fill="#5900FE"/>
<path d="M58.1713 214.552V209.734L57.2517 209.241V213.205L56.3322 212.713V208.748L55.4126 208.255V212.22L54.4931 211.727V207.763L53.5735 207.27V212.088" fill="#5900FE"/>
<path d="M58.9116 214.557L63.5 212.098V207.271L58.9116 209.73V214.557ZM62.5821 211.738L59.8291 213.213V212.078L62.5821 210.602V211.738ZM62.5821 209.751L59.8291 211.226V210.09L62.5821 208.615V209.751Z" fill="#5900FE"/>
<path d="M72.4839 204.459L71.5219 203.947L66.721 206.509L71.5302 209.073L76.3312 206.511L75.3694 205.998L71.5287 208.048L70.5667 207.535L74.4075 205.485L73.4457 204.972L69.6049 207.022L68.643 206.51L72.4839 204.459Z" fill="#5900FE"/>
<path d="M71.1713 214.552V209.734L70.2517 209.241V213.205L69.3322 212.713V208.748L68.4126 208.255V212.22L67.4931 211.727V207.763L66.5735 207.27V212.088" fill="#5900FE"/>
<path d="M71.9116 214.557L76.5 212.098V207.271L71.9116 209.73V214.557ZM75.5821 211.738L72.8291 213.213V212.078L75.5821 210.602V211.738ZM75.5821 209.751L72.8291 211.226V210.09L75.5821 208.615V209.751Z" fill="#5900FE"/>
<path d="M85.4839 204.459L84.5219 203.947L79.721 206.509L84.5302 209.073L89.3312 206.511L88.3694 205.998L84.5287 208.048L83.5667 207.535L87.4075 205.485L86.4457 204.972L82.6049 207.022L81.643 206.51L85.4839 204.459Z" fill="#5900FE"/>
<path d="M84.1713 214.552V209.734L83.2517 209.241V213.205L82.3322 212.713V208.748L81.4126 208.255V212.22L80.4931 211.727V207.763L79.5735 207.27V212.088" fill="#5900FE"/>
<path d="M84.9116 214.557L89.5 212.098V207.271L84.9116 209.73V214.557ZM88.5821 211.738L85.8291 213.213V212.078L88.5821 210.602V211.738ZM88.5821 209.751L85.8291 211.226V210.09L88.5821 208.615V209.751Z" fill="#5900FE"/>
<path d="M98.4839 204.459L97.5219 203.947L92.721 206.509L97.5302 209.073L102.331 206.511L101.369 205.998L97.5287 208.048L96.5667 207.535L100.407 205.485L99.4457 204.972L95.6049 207.022L94.643 206.51L98.4839 204.459Z" fill="#5900FE"/>
<path d="M97.1713 214.552V209.734L96.2517 209.241V213.205L95.3322 212.713V208.748L94.4126 208.255V212.22L93.4931 211.727V207.763L92.5735 207.27V212.088" fill="#5900FE"/>
<path d="M97.9116 214.557L102.5 212.098V207.271L97.9116 209.73V214.557ZM101.582 211.738L98.8291 213.213V212.078L101.582 210.602V211.738ZM101.582 209.751L98.8291 211.226V210.09L101.582 208.615V209.751Z" fill="#5900FE"/>
<path d="M111.484 204.459L110.522 203.947L105.721 206.509L110.53 209.073L115.331 206.511L114.369 205.998L110.529 208.048L109.567 207.535L113.407 205.485L112.446 204.972L108.605 207.022L107.643 206.51L111.484 204.459Z" fill="#5900FE"/>
<path d="M110.171 214.552V209.734L109.252 209.241V213.205L108.332 212.713V208.748L107.413 208.255V212.22L106.493 211.727V207.763L105.574 207.27V212.088" fill="#5900FE"/>
<path d="M110.912 214.557L115.5 212.098V207.271L110.912 209.73V214.557ZM114.582 211.738L111.829 213.213V212.078L114.582 210.602V211.738ZM114.582 209.751L111.829 211.226V210.09L114.582 208.615V209.751Z" fill="#5900FE"/>
<path d="M124.484 204.459L123.522 203.947L118.721 206.509L123.53 209.073L128.331 206.511L127.369 205.998L123.529 208.048L122.567 207.535L126.407 205.485L125.446 204.972L121.605 207.022L120.643 206.51L124.484 204.459Z" fill="#5900FE"/>
<path d="M123.171 214.552V209.734L122.252 209.241V213.205L121.332 212.713V208.748L120.413 208.255V212.22L119.493 211.727V207.763L118.574 207.27V212.088" fill="#5900FE"/>
<path d="M123.912 214.557L128.5 212.098V207.271L123.912 209.73V214.557ZM127.582 211.738L124.829 213.213V212.078L127.582 210.602V211.738ZM127.582 209.751L124.829 211.226V210.09L127.582 208.615V209.751Z" fill="#5900FE"/>
<path d="M137.484 204.459L136.522 203.947L131.721 206.509L136.53 209.073L141.331 206.511L140.369 205.998L136.529 208.048L135.567 207.535L139.407 205.485L138.446 204.972L134.605 207.022L133.643 206.51L137.484 204.459Z" fill="#5900FE"/>
<path d="M136.171 214.552V209.734L135.252 209.241V213.205L134.332 212.713V208.748L133.413 208.255V212.22L132.493 211.727V207.763L131.574 207.27V212.088" fill="#5900FE"/>
<path d="M136.912 214.557L141.5 212.098V207.271L136.912 209.73V214.557ZM140.582 211.738L137.829 213.213V212.078L140.582 210.602V211.738ZM140.582 209.751L137.829 211.226V210.09L140.582 208.615V209.751Z" fill="#5900FE"/>
<path d="M150.484 204.459L149.522 203.947L144.721 206.509L149.53 209.073L154.331 206.511L153.369 205.998L149.529 208.048L148.567 207.535L152.407 205.485L151.446 204.972L147.605 207.022L146.643 206.51L150.484 204.459Z" fill="#5900FE"/>
<path d="M149.171 214.552V209.734L148.252 209.241V213.205L147.332 212.713V208.748L146.413 208.255V212.22L145.493 211.727V207.763L144.574 207.27V212.088" fill="#5900FE"/>
<path d="M149.912 214.557L154.5 212.098V207.271L149.912 209.73V214.557ZM153.582 211.738L150.829 213.213V212.078L153.582 210.602V211.738ZM153.582 209.751L150.829 211.226V210.09L153.582 208.615V209.751Z" fill="#5900FE"/>
<rect x="45.0859" y="46.9575" width="91.8293" height="146.085" rx="45.9147" fill="#9EA7F2" stroke="black"/>
<path fill-rule="evenodd" clip-rule="evenodd" d="M121.277 102.18V101.723C121.277 91.6428 112.91 83.5611 102.601 83.5611C102.372 83.5611 98.8882 83.5611 94.4333 83.4754C93.9764 83.761 93.548 83.9895 93.0911 84.2179C89.3787 86.3597 85.5235 88.0731 82.0395 89.1869C81.8956 88.8991 81.7518 88.6454 81.615 88.4042C81.5346 88.2624 81.4567 88.1249 81.3827 87.9875C84.7239 87.0165 88.5791 85.3317 92.4343 83.1042C102.429 77.3928 108.969 70.0536 106.97 66.6553C105.057 63.3141 95.4042 65.1703 85.4664 70.9674C78.6698 74.9083 73.4724 79.6488 71.5305 83.3041C70.7023 83.3898 69.9027 83.5897 69.0746 83.8181C67.5039 84.1894 65.8762 84.7891 64.3341 85.5887C56.7093 89.6723 52.9969 97.5255 56.0525 103.237C58.3371 107.606 63.9914 109.377 69.8456 108.206L69.9884 108.491C69.6172 109.006 69.3316 109.605 69.1031 110.205C64.277 110.719 60.5074 114.803 60.5074 119.772L61.0215 119.258L60.4218 120L67.9894 119.914H84.524C84.524 114.289 89.2073 109.605 94.8331 109.605V110.947C89.8642 110.947 85.8662 114.945 85.8662 119.829H87.4939H103.2C108.683 119.6 113.567 117.173 116.851 113.318C117.879 114.146 119.221 114.66 120.706 114.66C124.19 114.66 127.017 111.833 127.017 108.349C127.074 105.093 124.533 102.409 121.277 102.18ZM66.79 91.5857C66.79 93.1563 68.0465 94.4128 69.6172 94.4128C71.1592 94.4128 72.4443 93.1563 72.4443 91.5857C72.4443 90.015 71.1878 88.7585 69.6172 88.7585C68.0465 88.7585 66.79 90.015 66.79 91.5857Z" fill="#87C8FD"/>
<path d="M69.6172 94.4128C68.0465 94.4128 66.79 93.1563 66.79 91.5857C66.79 90.015 68.0465 88.7585 69.6172 88.7585C71.1878 88.7585 72.4443 90.015 72.4443 91.5857C72.4443 93.1563 71.1592 94.4128 69.6172 94.4128Z" fill="#5900FE"/>
<path d="M121.277 102.18C121.277 102.038 121.277 101.895 121.277 101.723M121.277 102.18C124.533 102.409 127.074 105.093 127.017 108.349C127.017 111.833 124.19 114.66 120.706 114.66C119.221 114.66 117.879 114.146 116.851 113.318C113.567 117.173 108.683 119.6 103.2 119.829H87.4939H85.8662C85.8662 114.945 89.8642 110.947 94.8331 110.947V109.605C89.2073 109.605 84.524 114.289 84.524 119.914H67.9894L60.4218 120L61.0215 119.258L60.5074 119.772C60.5074 114.803 64.277 110.719 69.1031 110.205C69.3316 109.605 69.6172 109.006 69.9884 108.491L69.8456 108.206C63.9914 109.377 58.3371 107.606 56.0525 103.237C52.9969 97.5255 56.7093 89.6723 64.3341 85.5887C65.8762 84.7891 67.5039 84.1894 69.0746 83.8181C69.9027 83.5897 70.7023 83.3898 71.5305 83.3041C73.4724 79.6488 78.6698 74.9083 85.4664 70.9674C95.4042 65.1703 105.057 63.3141 106.97 66.6553C108.969 70.0536 102.429 77.3928 92.4343 83.1042C88.5791 85.3317 84.7239 87.0165 81.3827 87.9875C81.4567 88.1249 81.5346 88.2624 81.615 88.4042C81.7518 88.6454 81.8956 88.8991 82.0395 89.1869C85.5235 88.0731 89.3787 86.3597 93.0911 84.2179C93.548 83.9895 93.9764 83.761 94.4333 83.4754C98.8882 83.5611 102.372 83.5611 102.601 83.5611C112.91 83.5611 121.277 91.6428 121.277 101.723M121.277 102.18V101.723M69.6172 94.4128C68.0465 94.4128 66.79 93.1563 66.79 91.5857C66.79 90.015 68.0465 88.7585 69.6172 88.7585C71.1878 88.7585 72.4443 90.015 72.4443 91.5857C72.4443 93.1563 71.1592 94.4128 69.6172 94.4128Z" stroke="black"/>
<path fill-rule="evenodd" clip-rule="evenodd" d="M60.723 138.65L60.723 139.107C60.723 149.187 69.0902 157.269 79.3994 157.269C79.6278 157.269 83.1118 157.269 87.5667 157.355C88.0236 157.069 88.452 156.841 88.9089 156.612C92.6213 154.47 96.4765 152.757 99.9605 151.643C100.104 151.931 100.248 152.185 100.385 152.426C100.465 152.568 100.543 152.705 100.617 152.843C97.2761 153.814 93.4209 155.498 89.5657 157.726C79.5707 163.437 73.0311 170.776 75.0301 174.175C76.9435 177.516 86.5958 175.66 96.5336 169.863C103.33 165.922 108.528 161.181 110.47 157.526C111.298 157.44 112.097 157.24 112.925 157.012C114.496 156.641 116.124 156.041 117.666 155.241C125.291 151.158 129.003 143.305 125.947 137.593C123.663 133.224 118.009 131.453 112.154 132.624L112.012 132.339C112.383 131.825 112.668 131.225 112.897 130.625C117.723 130.111 121.493 126.027 121.493 121.059L120.979 121.573L121.578 120.83L114.011 120.916L97.476 120.916C97.476 126.542 92.7927 131.225 87.1669 131.225L87.1669 129.883C92.1358 129.883 96.1338 125.885 96.1338 121.001L94.5061 121.001L78.7997 121.001C73.3167 121.23 68.4334 123.657 65.1494 127.512C64.1213 126.684 62.7791 126.17 61.2942 126.17C57.8102 126.17 54.983 128.997 54.983 132.481C54.9259 135.737 57.4675 138.421 60.723 138.65ZM115.21 149.244C115.21 147.674 113.953 146.417 112.383 146.417C110.841 146.417 109.556 147.674 109.556 149.244C109.556 150.815 110.812 152.072 112.383 152.072C113.953 152.072 115.21 150.815 115.21 149.244Z" fill="#87C8FD"/>
<path d="M112.383 146.417C113.953 146.417 115.21 147.674 115.21 149.244C115.21 150.815 113.953 152.072 112.383 152.072C110.812 152.072 109.556 150.815 109.556 149.244C109.556 147.674 110.841 146.417 112.383 146.417Z" fill="#5900FE"/>
<path d="M60.723 138.65C60.723 138.793 60.723 138.935 60.723 139.107M60.723 138.65C57.4675 138.421 54.9259 135.737 54.983 132.481C54.983 128.997 57.8102 126.17 61.2942 126.17C62.7791 126.17 64.1213 126.684 65.1494 127.512C68.4334 123.657 73.3167 121.23 78.7997 121.001L94.5061 121.001L96.1338 121.001C96.1338 125.885 92.1358 129.883 87.1669 129.883L87.1669 131.225C92.7927 131.225 97.476 126.542 97.476 120.916L114.011 120.916L121.578 120.83L120.979 121.573L121.493 121.059C121.493 126.027 117.723 130.111 112.897 130.625C112.668 131.225 112.383 131.825 112.012 132.339L112.154 132.624C118.009 131.453 123.663 133.224 125.947 137.593C129.003 143.305 125.291 151.158 117.666 155.241C116.124 156.041 114.496 156.641 112.925 157.012C112.097 157.24 111.298 157.44 110.47 157.526C108.528 161.181 103.33 165.922 96.5336 169.863C86.5958 175.66 76.9435 177.516 75.0301 174.175C73.0311 170.776 79.5707 163.437 89.5657 157.726C93.4209 155.498 97.2761 153.814 100.617 152.843C100.543 152.705 100.465 152.568 100.385 152.426C100.248 152.185 100.104 151.931 99.9605 151.643C96.4765 152.757 92.6213 154.47 88.9089 156.612C88.452 156.841 88.0236 157.069 87.5667 157.355C83.1118 157.269 79.6278 157.269 79.3994 157.269C69.0902 157.269 60.723 149.187 60.723 139.107M60.723 138.65L60.723 139.107M112.383 146.417C113.953 146.417 115.21 147.674 115.21 149.244C115.21 150.815 113.953 152.072 112.383 152.072C110.812 152.072 109.556 150.815 109.556 149.244C109.556 147.674 110.841 146.417 112.383 146.417Z" stroke="black"/>
</g>
<defs>
<filter id="filter0_d_1033_2231" x="0" y="0" width="186" height="244" filterUnits="userSpaceOnUse" color-interpolation-filters="sRGB">
<feFlood flood-opacity="0" result="BackgroundImageFix"/>
<feColorMatrix in="SourceAlpha" type="matrix" values="0 0 0 0 0 0 0 0 0 0 0 0 0 0 0 0 0 0 127 0" result="hardAlpha"/>
<feOffset dx="2" dy="2"/>
<feGaussianBlur stdDeviation="3"/>
<feComposite in2="hardAlpha" operator="out"/>
<feColorMatrix type="matrix" values="0 0 0 0 0 0 0 0 0 0 0 0 0 0 0 0 0 0 0.15 0"/>
<feBlend mode="normal" in2="BackgroundImageFix" result="effect1_dropShadow_1033_2231"/>
<feBlend mode="normal" in="SourceGraphic" in2="effect1_dropShadow_1033_2231" result="shape"/>
</filter>
</defs>
</svg>
