<svg width="186" height="244" viewBox="0 0 186 244" fill="none" xmlns="http://www.w3.org/2000/svg">
<g filter="url(#filter0_d_1033_2288)">
<rect x="5" y="5" width="172" height="230" rx="8" fill="white"/>
<rect x="5" y="5" width="172" height="230" rx="8" stroke="black" stroke-width="2"/>
<rect x="32.9492" y="32.1816" width="116.1" height="175.636" fill="#FDF8EE" stroke="black" stroke-width="2"/>
<path d="M123.598 181.468C123.278 180.648 122.968 179.968 122.668 179.428C122.368 178.888 121.938 178.618 121.378 178.618C121.178 178.618 121.058 178.578 121.018 178.498C120.958 178.438 120.928 178.328 120.928 178.168L120.928 177.268C120.928 176.968 121.078 176.818 121.378 176.818L130.588 176.818C130.888 176.818 131.038 176.968 131.038 177.268L131.038 178.168C131.038 178.328 131.018 178.438 130.978 178.498C130.918 178.578 130.788 178.618 130.588 178.618C130.048 178.618 129.528 178.818 129.028 179.218C128.508 179.618 128.248 180.108 128.248 180.688C128.248 180.828 128.268 180.958 128.308 181.078C128.328 181.198 128.358 181.328 128.398 181.468L129.328 184.018L137.548 184.018L138.448 181.468C138.488 181.328 138.518 181.188 138.538 181.048C138.558 180.928 138.568 180.818 138.568 180.718C138.568 180.078 138.308 179.568 137.788 179.188C137.268 178.808 136.748 178.618 136.228 178.618C136.008 178.618 135.878 178.578 135.838 178.498C135.798 178.438 135.778 178.328 135.778 178.168L135.778 177.268C135.778 176.968 135.928 176.818 136.228 176.818L143.698 176.818C143.998 176.818 144.148 176.968 144.148 177.268L144.148 178.168C144.148 178.328 144.128 178.438 144.088 178.498C144.028 178.578 143.898 178.618 143.698 178.618C143.098 178.618 142.648 178.898 142.348 179.458C142.028 180.018 141.728 180.688 141.448 181.468L134.998 198.928C134.918 199.188 134.748 199.318 134.488 199.318L130.858 199.318C130.598 199.318 130.428 199.198 130.348 198.958L123.598 181.468ZM136.618 186.628L130.288 186.628L133.528 195.388L136.618 186.628Z" fill="black"/>
<path d="M58.2183 59.1684C58.5383 59.9884 58.8483 60.6684 59.1483 61.2084C59.4483 61.7484 59.8783 62.0184 60.4383 62.0184C60.6383 62.0184 60.7583 62.0584 60.7983 62.1384C60.8583 62.1984 60.8883 62.3084 60.8883 62.4684V63.3684C60.8883 63.6684 60.7383 63.8184 60.4383 63.8184H51.2283C50.9283 63.8184 50.7783 63.6684 50.7783 63.3684V62.4684C50.7783 62.3084 50.7983 62.1984 50.8383 62.1384C50.8983 62.0584 51.0283 62.0184 51.2283 62.0184C51.7683 62.0184 52.2883 61.8184 52.7883 61.4184C53.3083 61.0184 53.5683 60.5284 53.5683 59.9484C53.5683 59.8084 53.5483 59.6784 53.5083 59.5584C53.4883 59.4384 53.4583 59.3084 53.4183 59.1684L52.4883 56.6184H44.2683L43.3683 59.1684C43.3283 59.3084 43.2983 59.4484 43.2783 59.5884C43.2583 59.7084 43.2483 59.8184 43.2483 59.9184C43.2483 60.5584 43.5083 61.0684 44.0283 61.4484C44.5483 61.8284 45.0683 62.0184 45.5883 62.0184C45.8083 62.0184 45.9383 62.0584 45.9783 62.1384C46.0183 62.1984 46.0383 62.3084 46.0383 62.4684V63.3684C46.0383 63.6684 45.8883 63.8184 45.5883 63.8184H38.1183C37.8183 63.8184 37.6683 63.6684 37.6683 63.3684V62.4684C37.6683 62.3084 37.6883 62.1984 37.7283 62.1384C37.7883 62.0584 37.9183 62.0184 38.1183 62.0184C38.7183 62.0184 39.1683 61.7384 39.4683 61.1784C39.7883 60.6184 40.0883 59.9484 40.3683 59.1684L46.8183 41.7084C46.8983 41.4484 47.0683 41.3184 47.3283 41.3184H50.9583C51.2183 41.3184 51.3883 41.4384 51.4683 41.6784L58.2183 59.1684ZM45.1983 54.0084H51.5283L48.2883 45.2484L45.1983 54.0084Z" fill="black"/>
<path d="M155.953 192.918C155.74 192.372 155.533 191.918 155.333 191.558C155.133 191.198 154.847 191.018 154.473 191.018C154.34 191.018 154.26 190.992 154.233 190.938C154.193 190.898 154.173 190.825 154.173 190.718L154.173 190.118C154.173 189.918 154.273 189.818 154.473 189.818L160.613 189.818C160.813 189.818 160.913 189.918 160.913 190.118L160.913 190.718C160.913 190.825 160.9 190.898 160.873 190.938C160.833 190.992 160.747 191.018 160.613 191.018C160.253 191.018 159.907 191.152 159.573 191.418C159.227 191.685 159.053 192.012 159.053 192.398C159.053 192.492 159.067 192.578 159.093 192.658C159.107 192.738 159.127 192.825 159.153 192.918L159.773 194.618L165.253 194.618L165.853 192.918C165.88 192.825 165.9 192.732 165.913 192.638C165.927 192.558 165.933 192.485 165.933 192.418C165.933 191.992 165.76 191.652 165.413 191.398C165.067 191.145 164.72 191.018 164.373 191.018C164.227 191.018 164.14 190.992 164.113 190.938C164.087 190.898 164.073 190.825 164.073 190.718L164.073 190.118C164.073 189.918 164.173 189.818 164.373 189.818L169.353 189.818C169.553 189.818 169.653 189.918 169.653 190.118L169.653 190.718C169.653 190.825 169.64 190.898 169.613 190.938C169.573 190.992 169.487 191.018 169.353 191.018C168.953 191.018 168.653 191.205 168.453 191.578C168.24 191.952 168.04 192.398 167.853 192.918L163.553 204.558C163.5 204.732 163.387 204.818 163.213 204.818L160.793 204.818C160.62 204.818 160.507 204.738 160.453 204.578L155.953 192.918ZM164.633 196.358L160.413 196.358L162.573 202.198L164.633 196.358Z" fill="black"/>
<path d="M25.5934 48.7184C25.8068 49.265 26.0134 49.7184 26.2134 50.0784C26.4134 50.4384 26.7001 50.6184 27.0734 50.6184C27.2068 50.6184 27.2868 50.645 27.3134 50.6984C27.3534 50.7384 27.3734 50.8117 27.3734 50.9184V51.5184C27.3734 51.7184 27.2734 51.8184 27.0734 51.8184H20.9334C20.7334 51.8184 20.6334 51.7184 20.6334 51.5184V50.9184C20.6334 50.8117 20.6468 50.7384 20.6734 50.6984C20.7134 50.645 20.8001 50.6184 20.9334 50.6184C21.2934 50.6184 21.6401 50.485 21.9734 50.2184C22.3201 49.9517 22.4934 49.625 22.4934 49.2384C22.4934 49.145 22.4801 49.0584 22.4534 48.9784C22.4401 48.8984 22.4201 48.8117 22.3934 48.7184L21.7734 47.0184H16.2934L15.6934 48.7184C15.6668 48.8117 15.6468 48.905 15.6334 48.9984C15.6201 49.0784 15.6134 49.1517 15.6134 49.2184C15.6134 49.645 15.7868 49.985 16.1334 50.2384C16.4801 50.4917 16.8268 50.6184 17.1734 50.6184C17.3201 50.6184 17.4068 50.645 17.4334 50.6984C17.4601 50.7384 17.4734 50.8117 17.4734 50.9184V51.5184C17.4734 51.7184 17.3734 51.8184 17.1734 51.8184H12.1934C11.9934 51.8184 11.8934 51.7184 11.8934 51.5184V50.9184C11.8934 50.8117 11.9068 50.7384 11.9334 50.6984C11.9734 50.645 12.0601 50.6184 12.1934 50.6184C12.5934 50.6184 12.8934 50.4317 13.0934 50.0584C13.3068 49.685 13.5068 49.2384 13.6934 48.7184L17.9934 37.0784C18.0468 36.905 18.1601 36.8184 18.3334 36.8184H20.7534C20.9268 36.8184 21.0401 36.8984 21.0934 37.0584L25.5934 48.7184ZM16.9134 45.2784H21.1334L18.9734 39.4384L16.9134 45.2784Z" fill="black"/>
<rect x="152.715" y="10.0615" width="20" height="20" rx="10" fill="#C21A2A"/>
<rect x="152.715" y="10.0615" width="20" height="20" rx="10" stroke="black" stroke-width="0.7"/>
<path d="M163.898 14.2205L162.741 13.604L156.969 16.685L162.751 19.768L168.524 16.6868L167.367 16.0703L162.749 18.535L161.593 17.9186L166.211 15.4536L165.054 14.8371L160.436 17.3019L159.28 16.6854L163.898 14.2205Z" fill="white"/>
<path d="M162.32 26.3547V20.5622L161.214 19.9698V24.736L160.108 24.1435V19.3773L159.003 18.7846V23.5508L157.897 22.9584V18.1921L156.792 17.5996V23.3921" fill="white"/>
<path d="M163.21 26.3609L168.727 23.4044V17.6012L163.21 20.5577V26.3609ZM167.623 22.9718L164.313 24.7456V23.3803L167.623 21.6065V22.9718ZM167.623 20.5823L164.313 22.3561V20.9907L167.623 19.217V20.5823Z" fill="white"/>
<rect x="152.715" y="210.062" width="20" height="20" rx="10" fill="#C21A2A"/>
<rect x="152.715" y="210.062" width="20" height="20" rx="10" stroke="black" stroke-width="0.7"/>
<path d="M163.898 214.22L162.741 213.604L156.969 216.685L162.751 219.768L168.524 216.687L167.367 216.07L162.749 218.535L161.593 217.919L166.211 215.454L165.054 214.837L160.436 217.302L159.28 216.685L163.898 214.22Z" fill="white"/>
<path d="M162.32 226.355V220.562L161.214 219.97V224.736L160.108 224.144V219.377L159.003 218.785V223.551L157.897 222.958V218.192L156.792 217.6V223.392" fill="white"/>
<path d="M163.21 226.361L168.727 223.404V217.601L163.21 220.558V226.361ZM167.623 222.972L164.313 224.746V223.38L167.623 221.606V222.972ZM167.623 220.582L164.313 222.356V220.991L167.623 219.217V220.582Z" fill="white"/>
<rect x="9.71484" y="10.0615" width="20" height="20" rx="10" fill="#C21A2A"/>
<rect x="9.71484" y="10.0615" width="20" height="20" rx="10" stroke="black" stroke-width="0.7"/>
<path d="M20.8979 14.2205L19.7413 13.604L13.9688 16.685L19.7513 19.768L25.5237 16.6868L24.3673 16.0703L19.7494 18.535L18.5927 17.9186L23.2107 15.4536L22.0543 14.8371L17.4363 17.3019L16.2797 16.6854L20.8979 14.2205Z" fill="white"/>
<path d="M19.3197 26.3547V20.5622L18.214 19.9698V24.736L17.1084 24.1435V19.3773L16.0028 18.7846V23.5508L14.8971 22.9584V18.1921L13.7915 17.5996V23.3921" fill="white"/>
<path d="M20.2098 26.3609L25.7267 23.4044V17.6012L20.2098 20.5577V26.3609ZM24.623 22.9718L21.313 24.7456V23.3803L24.623 21.6065V22.9718ZM24.623 20.5823L21.313 22.3561V20.9907L24.623 19.217V20.5823Z" fill="white"/>
<rect x="9.71484" y="210.062" width="20" height="20" rx="10" fill="#C21A2A"/>
<rect x="9.71484" y="210.062" width="20" height="20" rx="10" stroke="black" stroke-width="0.7"/>
<path d="M20.8979 214.22L19.7413 213.604L13.9688 216.685L19.7513 219.768L25.5237 216.687L24.3673 216.07L19.7494 218.535L18.5927 217.919L23.2107 215.454L22.0543 214.837L17.4363 217.302L16.2797 216.685L20.8979 214.22Z" fill="white"/>
<path d="M19.3197 226.355V220.562L18.214 219.97V224.736L17.1084 224.144V219.377L16.0028 218.785V223.551L14.8971 222.958V218.192L13.7915 217.6V223.392" fill="white"/>
<path d="M20.2098 226.361L25.7267 223.404V217.601L20.2098 220.558V226.361ZM24.623 222.972L21.313 224.746V223.38L24.623 221.606V222.972ZM24.623 220.582L21.313 222.356V220.991L24.623 219.217V220.582Z" fill="white"/>
<path fill-rule="evenodd" clip-rule="evenodd" d="M81.7446 68.5135C58.8926 71.8894 47.7722 113.606 51.1482 136.458C54.5241 159.31 75.7891 175.101 98.6411 171.725C121.493 168.349 137.284 147.084 133.908 124.232C130.532 101.38 104.597 65.1375 81.7446 68.5135ZM61.4931 134.93C64.0209 152.04 80.0023 163.908 97.1129 161.38C114.223 158.852 126.091 142.871 123.563 125.76C120.691 106.317 98.0196 76.6799 83.2729 78.8585C71.3865 80.6144 57.8772 110.454 61.4931 134.93Z" fill="#F96B6B"/>
<path d="M97.1129 161.38C80.0023 163.908 64.0209 152.04 61.4931 134.93C57.8772 110.454 71.3865 80.6144 83.2729 78.8585C98.0196 76.6799 120.691 106.317 123.563 125.76C126.091 142.871 114.223 158.852 97.1129 161.38Z" fill="#FFE6B8"/>
<path fill-rule="evenodd" clip-rule="evenodd" d="M81.7446 68.5135C58.8926 71.8894 47.7722 113.606 51.1482 136.458C54.5241 159.31 75.7891 175.101 98.6411 171.725C121.493 168.349 137.284 147.084 133.908 124.232C130.532 101.38 104.597 65.1375 81.7446 68.5135ZM61.4931 134.93C64.0209 152.04 80.0023 163.908 97.1129 161.38C114.223 158.852 126.091 142.871 123.563 125.76C120.691 106.317 98.0196 76.6799 83.2729 78.8585C71.3865 80.6144 57.8772 110.454 61.4931 134.93Z" stroke="black"/>
<path d="M97.1129 161.38C80.0023 163.908 64.0209 152.04 61.4931 134.93C57.8772 110.454 71.3865 80.6144 83.2729 78.8585C98.0196 76.6799 120.691 106.317 123.563 125.76C126.091 142.871 114.223 158.852 97.1129 161.38Z" stroke="black"/>
<path d="M90.112 129.364C90.4782 131.76 90.2837 134.209 89.5439 136.517C88.804 138.826 87.539 140.931 85.8481 142.668C84.1572 144.405 82.0866 145.726 79.7989 146.528C77.5111 147.329 75.0687 147.59 72.6635 147.288C72.3445 145.194 72.4398 143.059 72.944 141.002C73.8866 137.298 76.1544 134.068 79.3181 131.923C82.4819 129.778 86.3221 128.868 90.112 129.364Z" fill="#669CAD" stroke="#020202" stroke-miterlimit="10"/>
<path d="M106.598 106.5C108.618 105.93 110.732 105.771 112.815 106.032C113.134 108.125 113.039 110.261 112.535 112.318C111.592 116.022 109.324 119.252 106.161 121.397C102.997 123.541 99.1567 124.452 95.3669 123.956C94.777 120.176 95.5946 116.311 97.6646 113.093C99.7347 109.876 102.913 107.53 106.598 106.5Z" fill="#669CAD" stroke="#020202" stroke-miterlimit="10"/>
<path d="M93.7578 130.274C97.3318 131.654 100.276 134.296 102.032 137.701C103.788 141.106 104.234 145.036 103.286 148.748C102.761 150.787 101.826 152.697 100.538 154.362C98.571 153.613 96.7769 152.471 95.2657 151.006C92.5205 148.334 90.8508 144.747 90.5729 140.926C90.295 137.106 91.4282 133.315 93.7578 130.274Z" fill="#669CAD" stroke="#020202" stroke-miterlimit="10"/>
<path d="M117.11 128.569C118.614 130.061 119.809 131.834 120.629 133.786C118.734 135.298 116.515 136.35 114.145 136.86C111.775 137.369 109.319 137.322 106.97 136.722C104.622 136.123 102.444 134.986 100.609 133.403C98.7733 131.819 97.3301 129.832 96.3925 127.596C99.367 125.196 103.118 123.969 106.936 124.149C110.754 124.328 114.374 125.901 117.11 128.569Z" fill="#669CAD" stroke="#020202" stroke-miterlimit="10"/>
<path d="M70.399 116.69C74.0712 115.647 77.9981 115.984 81.4382 117.639C84.8784 119.294 87.5937 122.15 89.0715 125.67C86.1043 128.073 82.3598 129.306 78.5454 129.137C74.731 128.967 71.1107 127.407 68.3684 124.75C66.8653 123.258 65.6698 121.486 64.8498 119.533C66.4909 118.224 68.3778 117.257 70.399 116.69Z" fill="#669CAD" stroke="#020202" stroke-miterlimit="10"/>
<path d="M84.9414 98.9579C86.9089 99.7066 88.703 100.849 90.2142 102.314C92.9593 104.986 94.629 108.572 94.9069 112.393C95.1848 116.214 94.0516 120.004 91.722 123.045C88.148 121.666 85.2041 119.024 83.448 115.619C81.6919 112.214 81.2457 108.284 82.1938 104.572C82.7186 102.533 83.6535 100.623 84.9414 98.9579Z" fill="#669CAD" stroke="#020202" stroke-miterlimit="10"/>
</g>
<defs>
<filter id="filter0_d_1033_2288" x="0" y="0" width="186" height="244" filterUnits="userSpaceOnUse" color-interpolation-filters="sRGB">
<feFlood flood-opacity="0" result="BackgroundImageFix"/>
<feColorMatrix in="SourceAlpha" type="matrix" values="0 0 0 0 0 0 0 0 0 0 0 0 0 0 0 0 0 0 127 0" result="hardAlpha"/>
<feOffset dx="2" dy="2"/>
<feGaussianBlur stdDeviation="3"/>
<feComposite in2="hardAlpha" operator="out"/>
<feColorMatrix type="matrix" values="0 0 0 0 0 0 0 0 0 0 0 0 0 0 0 0 0 0 0.15 0"/>
<feBlend mode="normal" in2="BackgroundImageFix" result="effect1_dropShadow_1033_2288"/>
<feBlend mode="normal" in="SourceGraphic" in2="effect1_dropShadow_1033_2288" result="shape"/>
</filter>
</defs>
</svg>
