<svg width="186" height="244" viewBox="0 0 186 244" fill="none" xmlns="http://www.w3.org/2000/svg">
<g filter="url(#filter0_d_1033_2179)">
<rect x="5" y="5" width="172" height="230" rx="8" fill="white"/>
<rect x="5" y="5" width="172" height="230" rx="8" stroke="black" stroke-width="2"/>
<rect x="32.9492" y="32.1816" width="116.1" height="175.636" fill="#FBF7ED" stroke="black" stroke-width="2"/>
<path d="M56.6119 51.8559C54.5561 50.3194 48.9808 43.169 47.9198 40.2591C47.8578 40.0892 47.8044 39.9995 47.7103 39.9995C47.6175 39.9995 47.5637 40.0892 47.5021 40.2591C46.4403 43.169 40.8658 50.3194 38.8095 51.8559C38.7562 51.8954 38.7109 51.9703 38.7109 51.9995C38.7109 52.0288 38.7562 52.1037 38.8095 52.1428C40.8658 53.6793 46.4403 60.8296 47.5021 63.74C47.5637 63.9098 47.6175 63.9995 47.7103 63.9995C47.8044 63.9995 47.8578 63.9098 47.9198 63.74C48.9808 60.8296 54.5561 53.6793 56.6119 52.1428C56.6649 52.1037 56.7109 52.0288 56.7109 51.9995C56.7109 51.9703 56.6649 51.8954 56.6119 51.8559Z" fill="#F84A01"/>
<path d="M143.415 187.856C141.359 186.319 135.784 179.169 134.723 176.259C134.661 176.089 134.607 176 134.513 176C134.42 176 134.366 176.089 134.305 176.259C133.243 179.169 127.669 186.319 125.612 187.856C125.559 187.895 125.514 187.97 125.514 188C125.514 188.029 125.559 188.104 125.612 188.143C127.669 189.679 133.243 196.83 134.305 199.74C134.366 199.91 134.42 200 134.513 200C134.607 200 134.661 199.91 134.723 199.74C135.784 196.83 141.359 189.679 143.415 188.143C143.468 188.104 143.514 188.029 143.514 188C143.514 187.97 143.468 187.895 143.415 187.856Z" fill="#F84A01"/>
<path d="M168.032 196.41C166.661 195.449 162.944 190.98 162.237 189.162C162.196 189.056 162.16 189 162.097 189C162.035 189 162 189.056 161.958 189.162C161.251 190.98 157.534 195.449 156.163 196.41C156.128 196.434 156.098 196.481 156.098 196.5C156.098 196.518 156.128 196.565 156.163 196.589C157.534 197.549 161.251 202.018 161.958 203.837C162 203.943 162.035 204 162.097 204C162.16 204 162.196 203.943 162.237 203.837C162.944 202.018 166.661 197.549 168.032 196.589C168.067 196.565 168.098 196.518 168.098 196.5C168.098 196.481 168.067 196.434 168.032 196.41Z" fill="#F84A01"/>
<path d="M26.0317 44.4097C24.6611 43.4494 20.9442 38.9804 20.2369 37.1618C20.1956 37.0556 20.16 36.9995 20.0973 36.9995C20.0354 36.9995 19.9995 37.0556 19.9584 37.1618C19.2505 38.9804 15.5342 43.4494 14.1634 44.4097C14.1278 44.4344 14.0977 44.4812 14.0977 44.4995C14.0977 44.5178 14.1278 44.5646 14.1634 44.5891C15.5342 45.5494 19.2505 50.0183 19.9584 51.8373C19.9995 51.9435 20.0354 51.9995 20.0973 51.9995C20.16 51.9995 20.1956 51.9435 20.2369 51.8373C20.9442 50.0183 24.6611 45.5494 26.0317 44.5891C26.067 44.5646 26.0977 44.5178 26.0977 44.4995C26.0977 44.4812 26.067 44.4344 26.0317 44.4097Z" fill="#F84A01"/>
<rect x="152.715" y="10.0615" width="20" height="20" rx="10" fill="#C21A2A"/>
<rect x="152.715" y="10.0615" width="20" height="20" rx="10" stroke="black" stroke-width="0.7"/>
<path d="M163.898 14.2205L162.741 13.604L156.969 16.685L162.751 19.768L168.524 16.6868L167.367 16.0703L162.749 18.535L161.593 17.9186L166.211 15.4536L165.054 14.8371L160.436 17.3019L159.28 16.6854L163.898 14.2205Z" fill="white"/>
<path d="M162.32 26.3547V20.5622L161.214 19.9698V24.736L160.108 24.1435V19.3773L159.003 18.7846V23.5508L157.897 22.9584V18.1921L156.792 17.5996V23.3921" fill="white"/>
<path d="M163.21 26.3609L168.727 23.4044V17.6012L163.21 20.5577V26.3609ZM167.623 22.9718L164.313 24.7456V23.3803L167.623 21.6065V22.9718ZM167.623 20.5823L164.313 22.3561V20.9907L167.623 19.217V20.5823Z" fill="white"/>
<rect x="152.715" y="210.062" width="20" height="20" rx="10" fill="#C21A2A"/>
<rect x="152.715" y="210.062" width="20" height="20" rx="10" stroke="black" stroke-width="0.7"/>
<path d="M163.898 214.22L162.741 213.604L156.969 216.685L162.751 219.768L168.524 216.687L167.367 216.07L162.749 218.535L161.593 217.919L166.211 215.454L165.054 214.837L160.436 217.302L159.28 216.685L163.898 214.22Z" fill="white"/>
<path d="M162.32 226.355V220.562L161.214 219.97V224.736L160.108 224.144V219.377L159.003 218.785V223.551L157.897 222.958V218.192L156.792 217.6V223.392" fill="white"/>
<path d="M163.21 226.361L168.727 223.404V217.601L163.21 220.558V226.361ZM167.623 222.972L164.313 224.746V223.38L167.623 221.606V222.972ZM167.623 220.582L164.313 222.356V220.991L167.623 219.217V220.582Z" fill="white"/>
<rect x="9.71484" y="10.0615" width="20" height="20" rx="10" fill="#C21A2A"/>
<rect x="9.71484" y="10.0615" width="20" height="20" rx="10" stroke="black" stroke-width="0.7"/>
<path d="M20.8979 14.2205L19.7413 13.604L13.9688 16.685L19.7513 19.768L25.5237 16.6868L24.3673 16.0703L19.7494 18.535L18.5927 17.9186L23.2107 15.4536L22.0543 14.8371L17.4363 17.3019L16.2797 16.6854L20.8979 14.2205Z" fill="white"/>
<path d="M19.3197 26.3547V20.5622L18.214 19.9698V24.736L17.1084 24.1435V19.3773L16.0028 18.7846V23.5508L14.8971 22.9584V18.1921L13.7915 17.5996V23.3921" fill="white"/>
<path d="M20.2098 26.3609L25.7267 23.4044V17.6012L20.2098 20.5577V26.3609ZM24.623 22.9718L21.313 24.7456V23.3803L24.623 21.6065V22.9718ZM24.623 20.5823L21.313 22.3561V20.9907L24.623 19.217V20.5823Z" fill="white"/>
<rect x="9.71484" y="210.062" width="20" height="20" rx="10" fill="#C21A2A"/>
<rect x="9.71484" y="210.062" width="20" height="20" rx="10" stroke="black" stroke-width="0.7"/>
<path d="M20.8979 214.22L19.7413 213.604L13.9688 216.685L19.7513 219.768L25.5237 216.687L24.3673 216.07L19.7494 218.535L18.5927 217.919L23.2107 215.454L22.0543 214.837L17.4363 217.302L16.2797 216.685L20.8979 214.22Z" fill="white"/>
<path d="M19.3197 226.355V220.562L18.214 219.97V224.736L17.1084 224.144V219.377L16.0028 218.785V223.551L14.8971 222.958V218.192L13.7915 217.6V223.392" fill="white"/>
<path d="M20.2098 226.361L25.7267 223.404V217.601L20.2098 220.558V226.361ZM24.623 222.972L21.313 224.746V223.38L24.623 221.606V222.972ZM24.623 220.582L21.313 222.356V220.991L24.623 219.217V220.582Z" fill="white"/>
<path fill-rule="evenodd" clip-rule="evenodd" d="M50.4353 134.881C52.072 122.694 62.5384 113.267 75.1634 113.267H96.6003C96.2451 112.452 95.9219 111.617 95.6401 110.762C95.269 109.643 95.0826 108.475 95.0826 107.288C95.0826 106.39 95.1897 105.489 95.4001 104.598C92.8291 102.896 90.2026 100.726 87.7248 98.25C83.9457 94.4689 80.9005 90.3644 79.1528 86.6924C76.5363 81.1952 77.6114 78.418 78.9722 77.055C80.3352 75.6942 83.1145 74.617 88.6114 77.2335C89.1807 77.5034 89.7621 77.8088 90.3492 78.1422C90.379 73.5754 91.7239 70.6296 94.2732 69.7032C99.7049 67.7372 106.176 76.7198 109.763 86.613C110.751 89.3369 111.513 92.1081 112.001 94.7209C123.092 96.06 132.158 103.257 135.651 113.823C136.023 114.942 136.209 116.11 136.209 117.296C136.209 122.343 132.924 127.045 128.268 129.058C129.42 131.965 130.004 135.038 130.004 138.221C130.004 142.007 129.156 145.692 127.536 149.051H131.938C135.832 149.051 139 152.219 139 156.113C139 160.006 135.832 163.174 131.938 163.174L75.1632 163.176C68.4996 163.176 62.2347 160.581 57.5174 155.867C56.2259 154.574 55.0951 153.166 54.133 151.664C53.3236 151.91 52.4785 152.043 51.6235 152.043C46.8683 152.043 43 148.174 43 143.421C43 139.069 46.2415 135.462 50.4353 134.881ZM95.6283 73.4327C96.9871 72.9407 102.163 77.2913 106.033 87.966C106.829 90.1581 107.464 92.376 107.912 94.4927C107.856 94.4927 107.369 94.5047 107.178 94.5165C105.397 91.6223 102.996 88.6347 100.167 85.8077C98.3104 83.9507 96.3762 82.2726 94.4539 80.8382C93.9421 75.7755 94.9973 73.6609 95.6283 73.4327ZM60.3244 153.062C58.906 151.642 57.7157 150.053 56.7715 148.343L56.7663 148.332C56.635 148.063 54.1787 143.028 54.1786 138.222C54.1786 126.65 63.5916 117.235 75.1632 117.235H99.8337C100.175 117.235 100.522 117.148 100.838 116.961C101.782 116.406 102.097 115.19 101.542 114.246C100.677 112.778 99.9588 111.189 99.4073 109.518C99.1712 108.802 99.0503 108.05 99.0503 107.288C99.0503 106.34 99.2327 105.382 99.5918 104.438C99.6792 104.206 99.7208 103.967 99.7208 103.733C99.7208 102.934 99.2348 102.18 98.4432 101.879L98.461 101.849C95.8444 100.232 93.1086 98.0219 90.5298 95.443C87.0621 91.9754 84.2946 88.2615 82.7354 84.9884C81.295 81.963 81.3745 80.2649 81.7791 79.8602C82.1817 79.4556 83.8819 79.3782 86.9052 80.8165C88.3236 81.4909 89.8253 82.3935 91.3529 83.4827C91.3906 83.5125 91.4303 83.5403 91.4719 83.568C93.4321 84.9747 95.4336 86.6847 97.3619 88.6129C100.27 91.5231 102.77 94.719 104.4 97.6114L104.403 97.6094C104.803 98.3235 105.624 98.742 106.478 98.5913C106.92 98.512 108.081 98.4604 108.221 98.4604C113.667 98.4604 118.765 100.022 122.969 102.974C127.159 105.919 130.242 110.101 131.884 115.067C132.122 115.783 132.241 116.535 132.241 117.296C132.241 119.274 131.459 121.213 130.18 122.766C128.9 124.319 127.123 125.488 125.129 125.93C124.971 125.966 124.814 126.019 124.661 126.095C123.685 126.591 123.292 127.785 123.788 128.761C125.28 131.709 126.036 134.893 126.036 138.222C126.036 142.415 124.804 146.464 122.471 149.926C121.86 150.835 122.1 152.069 123.008 152.68C123.35 152.91 123.735 153.019 124.116 153.019H131.938C133.644 153.019 135.032 154.405 135.032 156.113C135.032 157.82 133.644 159.206 131.938 159.206H103.315C103.774 158.272 104.032 157.222 104.032 156.113C104.032 152.219 100.863 149.051 96.9693 149.051H89.9744V147.674C89.9744 139.949 83.6918 133.667 75.9668 133.667H73.3442C72.2493 133.667 71.3605 134.553 71.3605 135.65C71.3605 136.745 72.2493 137.634 73.3442 137.634H75.9668C81.5037 137.634 86.0069 142.138 86.0069 147.674V151.035C86.0069 152.13 86.8956 153.019 87.9906 153.019H96.9693C98.6753 153.019 100.064 154.405 100.064 156.113C100.064 157.819 98.6753 159.206 96.9693 159.206V159.208H75.1632C69.559 159.208 64.2901 157.026 60.3244 153.062ZM52.2107 148.037C52.0163 148.061 51.8198 148.075 51.6235 148.075C49.0566 148.075 46.9677 145.988 46.9677 143.421C46.9677 141.34 48.3385 139.577 50.2231 138.979C50.3181 142.142 50.9967 145.201 52.2107 148.037Z" fill="#D6D6D6"/>
<path fill-rule="evenodd" clip-rule="evenodd" d="M95.6283 73.4327C96.9871 72.9407 102.163 77.2913 106.033 87.966C106.829 90.1581 107.464 92.376 107.912 94.4927C107.856 94.4927 107.369 94.5047 107.178 94.5165C105.397 91.6223 102.996 88.6347 100.167 85.8077C98.3104 83.9507 96.3762 82.2726 94.4539 80.8382C93.9421 75.7755 94.9973 73.6609 95.6283 73.4327ZM52.2107 148.037C52.0163 148.061 51.8198 148.075 51.6235 148.075C49.0566 148.075 46.9677 145.988 46.9677 143.421C46.9677 141.34 48.3385 139.577 50.2231 138.979C50.3181 142.142 50.9967 145.201 52.2107 148.037Z" fill="#F2C0CF"/>
<path d="M56.7715 148.343C57.7157 150.053 58.906 151.642 60.3244 153.062C64.2901 157.026 69.559 159.208 75.1632 159.208H96.9693V159.206C98.6753 159.206 100.064 157.819 100.064 156.113C100.064 154.405 98.6753 153.019 96.9693 153.019H87.9906C86.8956 153.019 86.0069 152.13 86.0069 151.035V147.674C86.0069 142.138 81.5037 137.634 75.9668 137.634H73.3442C72.2493 137.634 71.3605 136.745 71.3605 135.65C71.3605 134.553 72.2493 133.667 73.3442 133.667H75.9668C83.6918 133.667 89.9744 139.949 89.9744 147.674V149.051H96.9693C100.863 149.051 104.032 152.219 104.032 156.113C104.032 157.222 103.774 158.272 103.315 159.206H131.938C133.644 159.206 135.032 157.82 135.032 156.113C135.032 154.405 133.644 153.019 131.938 153.019H124.116C123.735 153.019 123.35 152.91 123.008 152.68C122.1 152.069 121.86 150.835 122.471 149.926C124.804 146.464 126.036 142.415 126.036 138.222C126.036 134.893 125.28 131.709 123.788 128.761C123.292 127.785 123.685 126.591 124.661 126.095C124.814 126.019 124.971 125.966 125.129 125.93C127.123 125.488 128.9 124.319 130.18 122.766C131.459 121.213 132.241 119.274 132.241 117.296C132.241 116.535 132.122 115.783 131.884 115.067C130.242 110.101 127.159 105.919 122.969 102.974C118.765 100.022 113.667 98.4604 108.221 98.4604C108.081 98.4604 106.92 98.512 106.478 98.5913C105.624 98.742 104.803 98.3235 104.403 97.6094L104.4 97.6114C102.77 94.719 100.27 91.5231 97.3619 88.6129C95.4336 86.6847 93.4321 84.9747 91.4719 83.568C91.4303 83.5403 91.3906 83.5125 91.3529 83.4827C89.8253 82.3935 88.3236 81.4909 86.9052 80.8165C83.8819 79.3782 82.1817 79.4556 81.7791 79.8602C81.3745 80.2649 81.295 81.963 82.7354 84.9884C84.2946 88.2615 87.0621 91.9754 90.5298 95.443C93.1086 98.0219 95.8444 100.232 98.461 101.849L98.4432 101.879C99.2348 102.18 99.7208 102.934 99.7208 103.733C99.7208 103.967 99.6792 104.206 99.5918 104.438C99.2327 105.382 99.0503 106.34 99.0503 107.288C99.0503 108.05 99.1712 108.802 99.4073 109.518C99.9588 111.189 100.677 112.778 101.542 114.246C102.097 115.19 101.782 116.406 100.838 116.961C100.522 117.148 100.175 117.235 99.8337 117.235H75.1632C63.5916 117.235 54.1786 126.65 54.1786 138.222C54.1787 143.028 56.635 148.063 56.7663 148.332L56.7715 148.343Z" fill="#F4BDCE"/>
<path d="M56.7715 148.343C57.7157 150.053 58.906 151.642 60.3244 153.062C64.2901 157.026 69.559 159.208 75.1632 159.208H96.9693V159.206C98.6753 159.206 100.064 157.819 100.064 156.113C100.064 154.405 98.6753 153.019 96.9693 153.019H87.9906C86.8956 153.019 86.0069 152.13 86.0069 151.035V147.674C86.0069 142.138 81.5037 137.634 75.9668 137.634H73.3442C72.2492 137.634 71.3605 136.745 71.3605 135.65C71.3605 134.553 72.2492 133.667 73.3442 133.667H75.9668C83.6918 133.667 89.9744 139.949 89.9744 147.674V149.051H96.9693C100.863 149.051 104.032 152.219 104.032 156.113C104.032 157.222 103.774 158.272 103.315 159.206H131.938C133.644 159.206 135.032 157.82 135.032 156.113C135.032 154.405 133.644 153.019 131.938 153.019H124.116C123.735 153.019 123.35 152.91 123.008 152.68C122.1 152.069 121.86 150.835 122.471 149.926C124.804 146.464 126.036 142.415 126.036 138.222C126.036 134.893 125.28 131.709 123.788 128.761C123.292 127.785 123.685 126.591 124.661 126.095C124.814 126.019 124.971 125.966 125.129 125.93C127.123 125.488 128.9 124.319 130.18 122.766C131.459 121.213 132.241 119.274 132.241 117.296C132.241 116.535 132.122 115.783 131.884 115.067C130.242 110.101 127.159 105.919 122.969 102.974C118.765 100.022 113.667 98.4604 108.221 98.4604C108.081 98.4604 106.92 98.512 106.478 98.5913C105.624 98.742 104.803 98.3235 104.402 97.6094L104.4 97.6114C102.77 94.719 100.27 91.5231 97.3619 88.6129C95.4336 86.6847 93.4321 84.9747 91.4719 83.568C91.4303 83.5403 91.3906 83.5125 91.3529 83.4827C89.8253 82.3935 88.3236 81.4909 86.9052 80.8165C83.8819 79.3782 82.1817 79.4556 81.7791 79.8602C81.3745 80.2649 81.295 81.963 82.7354 84.9884C84.2946 88.2615 87.0621 91.9754 90.5298 95.443C93.1086 98.0219 95.8444 100.232 98.461 101.849L98.4432 101.879C99.2348 102.18 99.7208 102.934 99.7208 103.733C99.7208 103.967 99.6792 104.206 99.5918 104.438C99.2328 105.382 99.0503 106.34 99.0503 107.288C99.0503 108.05 99.1713 108.802 99.4073 109.518C99.9588 111.189 100.677 112.778 101.542 114.246C102.097 115.19 101.782 116.406 100.838 116.961C100.522 117.148 100.175 117.235 99.8337 117.235H75.1632C63.5916 117.235 54.1786 126.65 54.1786 138.222C54.1788 143.028 56.635 148.063 56.7663 148.332M56.7715 148.343C56.7715 148.343 56.7691 148.338 56.7663 148.332M56.7715 148.343L56.7663 148.332M50.4353 134.881C52.072 122.694 62.5384 113.267 75.1634 113.267H96.6003C96.2451 112.452 95.9219 111.617 95.6401 110.762C95.269 109.643 95.0826 108.475 95.0826 107.288C95.0826 106.39 95.1897 105.489 95.4001 104.598C92.8291 102.896 90.2026 100.726 87.7248 98.25C83.9457 94.4689 80.9005 90.3644 79.1528 86.6924C76.5363 81.1952 77.6114 78.418 78.9722 77.055C80.3352 75.6942 83.1145 74.617 88.6114 77.2335C89.1807 77.5034 89.7621 77.8088 90.3492 78.1422C90.379 73.5754 91.7239 70.6296 94.2732 69.7032C99.7049 67.7372 106.176 76.7198 109.763 86.613C110.751 89.3369 111.513 92.1081 112.001 94.7209C123.092 96.06 132.158 103.257 135.651 113.823C136.023 114.942 136.209 116.11 136.209 117.296C136.209 122.343 132.924 127.045 128.268 129.058C129.42 131.965 130.004 135.038 130.004 138.221C130.004 142.007 129.156 145.692 127.536 149.051H131.938C135.832 149.051 139 152.219 139 156.113C139 160.006 135.832 163.174 131.938 163.174L75.1632 163.176C68.4996 163.176 62.2347 160.581 57.5174 155.867C56.2259 154.574 55.0951 153.166 54.133 151.664C53.3236 151.91 52.4785 152.043 51.6235 152.043C46.8683 152.043 43 148.174 43 143.421C43 139.069 46.2415 135.462 50.4353 134.881ZM106.033 87.966C102.163 77.2913 96.9871 72.9407 95.6283 73.4327C94.9973 73.6609 93.9421 75.7755 94.4539 80.8382C96.3762 82.2726 98.3104 83.9507 100.167 85.8077C102.996 88.6347 105.397 91.6223 107.178 94.5165C107.369 94.5047 107.856 94.4927 107.912 94.4927C107.464 92.376 106.829 90.1581 106.033 87.966ZM51.6235 148.075C51.8198 148.075 52.0163 148.061 52.2107 148.037C50.9967 145.201 50.3181 142.142 50.2231 138.979C48.3385 139.577 46.9677 141.34 46.9677 143.421C46.9677 145.988 49.0566 148.075 51.6235 148.075Z" stroke="black"/>
<path d="M117.412 110.209C117.412 111.537 118.489 112.613 119.816 112.613C121.144 112.613 122.221 111.537 122.221 110.209C122.221 108.881 121.144 107.805 119.816 107.805C118.489 107.805 117.412 108.881 117.412 110.209Z" fill="#FFE6B8" stroke="black"/>
<path d="M75.1647 120.211C76.2601 120.211 77.1484 121.099 77.1484 122.195C77.1484 123.29 76.2601 124.178 75.1647 124.178C67.4215 124.178 61.1219 130.478 61.1219 138.221C61.1219 139.316 60.2335 140.205 59.1381 140.205C58.0428 140.205 57.1544 139.316 57.1544 138.221C57.1544 128.29 65.2336 120.211 75.1647 120.211Z" fill="#BE8899" stroke="black"/>
</g>
<defs>
<filter id="filter0_d_1033_2179" x="0" y="0" width="186" height="244" filterUnits="userSpaceOnUse" color-interpolation-filters="sRGB">
<feFlood flood-opacity="0" result="BackgroundImageFix"/>
<feColorMatrix in="SourceAlpha" type="matrix" values="0 0 0 0 0 0 0 0 0 0 0 0 0 0 0 0 0 0 127 0" result="hardAlpha"/>
<feOffset dx="2" dy="2"/>
<feGaussianBlur stdDeviation="3"/>
<feComposite in2="hardAlpha" operator="out"/>
<feColorMatrix type="matrix" values="0 0 0 0 0 0 0 0 0 0 0 0 0 0 0 0 0 0 0.15 0"/>
<feBlend mode="normal" in2="BackgroundImageFix" result="effect1_dropShadow_1033_2179"/>
<feBlend mode="normal" in="SourceGraphic" in2="effect1_dropShadow_1033_2179" result="shape"/>
</filter>
</defs>
</svg>
