<svg width="186" height="244" viewBox="0 0 186 244" fill="none" xmlns="http://www.w3.org/2000/svg">
<g filter="url(#filter0_d_1033_2344)">
<rect x="5" y="5" width="172" height="230" rx="8" fill="white"/>
<rect x="5" y="5" width="172" height="230" rx="8" stroke="black" stroke-width="2"/>
<rect x="32.9492" y="32.1816" width="116.1" height="175.636" fill="#FDF8EE" stroke="black" stroke-width="2"/>
<path d="M57.8898 53.2438C57.6922 47.1052 47.8785 40 47.8785 40C47.8785 40 37.7099 47.3625 37.8971 53.2438C38.0567 58.2735 43.2392 60.0655 46.5303 57.151L43.6457 64H52.1434L49.2565 57.1453C52.5925 59.9869 58.054 58.343 57.8898 53.2438Z" fill="black"/>
<path d="M124.005 186.756C124.202 192.895 134.016 200 134.016 200C134.016 200 144.185 192.638 143.997 186.756C143.838 181.726 138.655 179.935 135.364 182.849L138.249 176L129.751 176L132.638 182.855C129.302 180.013 123.841 181.657 124.005 186.756Z" fill="black"/>
<path d="M167.497 195.723C167.374 199.559 161.24 204 161.24 204C161.24 204 154.885 199.398 155.002 195.723C155.101 192.579 158.34 191.459 160.397 193.281L158.594 189H163.906L162.101 193.284C164.186 191.508 167.6 192.536 167.497 195.723Z" fill="black"/>
<path d="M25.497 45.2774C25.3736 41.4407 19.24 37 19.24 37C19.24 37 12.8846 41.6015 13.0016 45.2774C13.1014 48.4209 16.3404 49.5409 18.3974 47.7194L16.5945 52H21.9056L20.1012 47.7158C22.1862 49.4918 25.5997 48.4644 25.497 45.2774Z" fill="black"/>
<rect x="152.715" y="10.0615" width="20" height="20" rx="10" fill="#C21A2A"/>
<rect x="152.715" y="10.0615" width="20" height="20" rx="10" stroke="black" stroke-width="0.7"/>
<path d="M163.898 14.2205L162.741 13.604L156.969 16.685L162.751 19.768L168.524 16.6868L167.367 16.0703L162.749 18.535L161.593 17.9186L166.211 15.4536L165.054 14.8371L160.436 17.3019L159.28 16.6854L163.898 14.2205Z" fill="white"/>
<path d="M162.32 26.3547V20.5622L161.214 19.9698V24.736L160.108 24.1435V19.3773L159.003 18.7846V23.5508L157.897 22.9584V18.1921L156.792 17.5996V23.3921" fill="white"/>
<path d="M163.21 26.3609L168.727 23.4044V17.6012L163.21 20.5577V26.3609ZM167.623 22.9718L164.313 24.7456V23.3803L167.623 21.6065V22.9718ZM167.623 20.5823L164.313 22.3561V20.9907L167.623 19.217V20.5823Z" fill="white"/>
<rect x="152.715" y="210.062" width="20" height="20" rx="10" fill="#C21A2A"/>
<rect x="152.715" y="210.062" width="20" height="20" rx="10" stroke="black" stroke-width="0.7"/>
<path d="M163.898 214.22L162.741 213.604L156.969 216.685L162.751 219.768L168.524 216.687L167.367 216.07L162.749 218.535L161.593 217.919L166.211 215.454L165.054 214.837L160.436 217.302L159.28 216.685L163.898 214.22Z" fill="white"/>
<path d="M162.32 226.355V220.562L161.214 219.97V224.736L160.108 224.144V219.377L159.003 218.785V223.551L157.897 222.958V218.192L156.792 217.6V223.392" fill="white"/>
<path d="M163.21 226.361L168.727 223.404V217.601L163.21 220.558V226.361ZM167.623 222.972L164.313 224.746V223.38L167.623 221.606V222.972ZM167.623 220.582L164.313 222.356V220.991L167.623 219.217V220.582Z" fill="white"/>
<rect x="9.71484" y="10.0615" width="20" height="20" rx="10" fill="#C21A2A"/>
<rect x="9.71484" y="10.0615" width="20" height="20" rx="10" stroke="black" stroke-width="0.7"/>
<path d="M20.8979 14.2205L19.7413 13.604L13.9688 16.685L19.7513 19.768L25.5237 16.6868L24.3673 16.0703L19.7494 18.535L18.5927 17.9186L23.2107 15.4536L22.0543 14.8371L17.4363 17.3019L16.2797 16.6854L20.8979 14.2205Z" fill="white"/>
<path d="M19.3197 26.3547V20.5622L18.214 19.9698V24.736L17.1084 24.1435V19.3773L16.0028 18.7846V23.5508L14.8971 22.9584V18.1921L13.7915 17.5996V23.3921" fill="white"/>
<path d="M20.2098 26.3609L25.7267 23.4044V17.6012L20.2098 20.5577V26.3609ZM24.623 22.9718L21.313 24.7456V23.3803L24.623 21.6065V22.9718ZM24.623 20.5823L21.313 22.3561V20.9907L24.623 19.217V20.5823Z" fill="white"/>
<rect x="9.71484" y="210.062" width="20" height="20" rx="10" fill="#C21A2A"/>
<rect x="9.71484" y="210.062" width="20" height="20" rx="10" stroke="black" stroke-width="0.7"/>
<path d="M20.8979 214.22L19.7413 213.604L13.9688 216.685L19.7513 219.768L25.5237 216.687L24.3673 216.07L19.7494 218.535L18.5927 217.919L23.2107 215.454L22.0543 214.837L17.4363 217.302L16.2797 216.685L20.8979 214.22Z" fill="white"/>
<path d="M19.3197 226.355V220.562L18.214 219.97V224.736L17.1084 224.144V219.377L16.0028 218.785V223.551L14.8971 222.958V218.192L13.7915 217.6V223.392" fill="white"/>
<path d="M20.2098 226.361L25.7267 223.404V217.601L20.2098 220.558V226.361ZM24.623 222.972L21.313 224.746V223.38L24.623 221.606V222.972ZM24.623 220.582L21.313 222.356V220.991L24.623 219.217V220.582Z" fill="white"/>
<path d="M85.296 151.353C89.193 147.445 91.1415 142.053 90.8045 136.197C90.7925 135.981 90.7669 135.769 90.7412 135.556C90.7217 135.395 90.7022 135.233 90.6886 135.07C85.1168 148.625 74.5949 154.523 69.1917 156.756C69.3164 156.769 69.4428 156.784 69.5695 156.8C69.7638 156.824 69.9589 156.849 70.1502 156.862C76.0169 157.209 81.399 155.261 85.296 151.353Z" fill="#FFE6B8"/>
<path d="M65.2527 155.872C65.4422 155.829 83.2421 151.437 89.7723 131.289C89.7881 131.268 89.8013 131.244 89.8144 131.22C89.8276 131.197 89.8408 131.173 89.8566 131.152C88.8559 127.687 87.1286 124.485 84.7905 121.746C76.038 139.409 60.2392 148.541 55.626 150.911C58.3644 153.249 61.5768 154.976 65.0315 155.977C65.0947 155.935 65.1789 155.893 65.2527 155.872Z" fill="#FFE6B8"/>
<path d="M54.0144 149.415C57.111 147.867 74.479 138.577 83.3053 120.114C81.9782 118.797 80.5142 117.607 78.9344 116.543C78.9292 116.548 78.9266 116.553 78.9239 116.559C78.9213 116.564 78.9187 116.569 78.9134 116.575C77.1439 118.376 75.0057 118.018 73.2784 117.723C71.5511 117.428 70.4558 117.291 69.4867 118.27C68.5177 119.25 68.6546 120.387 68.939 122.157C69.2339 123.895 69.592 126.054 67.8225 127.855C66.0531 129.656 63.9044 129.298 62.1876 129.003C60.4709 128.708 59.365 128.571 58.4065 129.551C57.448 130.53 57.5849 131.657 57.8693 133.427L57.8771 133.474C58.1602 135.214 58.5062 137.34 56.7528 139.125C54.9834 140.926 52.8452 140.568 51.1179 140.273C49.675 140.02 48.6639 139.904 47.8107 140.441C49.4222 143.812 51.5393 146.929 54.0144 149.415Z" fill="#FFE6B8"/>
<path fill-rule="evenodd" clip-rule="evenodd" d="M52.5715 150.911C42.6499 141 38.1736 122.42 47.2631 113.331C56.3526 104.241 74.932 108.718 84.843 118.629C89.6563 123.442 92.5106 129.635 92.8898 136.07C92.9214 136.555 92.932 137.039 92.932 137.524C92.932 143.443 90.7728 148.836 86.7705 152.838C82.4416 157.167 76.4803 159.337 70.0028 158.958C63.5674 158.578 57.3743 155.724 52.5715 150.911ZM85.296 151.353C89.193 147.445 91.1415 142.053 90.8045 136.197C90.7925 135.981 90.7669 135.769 90.7412 135.556C90.7217 135.395 90.7022 135.233 90.6886 135.07C85.1168 148.625 74.5949 154.523 69.1917 156.756C69.3164 156.769 69.4428 156.784 69.5695 156.8C69.7638 156.824 69.9589 156.849 70.1502 156.862C76.0169 157.209 81.399 155.261 85.296 151.353ZM89.8144 131.22C89.8013 131.244 89.7881 131.268 89.7723 131.289C83.2421 151.437 65.4422 155.829 65.2527 155.872C65.1789 155.893 65.0947 155.935 65.0315 155.977C61.5768 154.976 58.3644 153.249 55.626 150.911C60.2392 148.541 76.038 139.409 84.7905 121.746C87.1286 124.485 88.8559 127.687 89.8566 131.152C89.8408 131.173 89.8276 131.197 89.8144 131.22ZM54.0144 149.415C57.111 147.867 74.479 138.577 83.3053 120.114C81.9782 118.797 80.5142 117.607 78.9344 116.543C78.9292 116.548 78.9266 116.553 78.9239 116.559C78.9213 116.564 78.9187 116.569 78.9134 116.575C77.1439 118.376 75.0057 118.018 73.2784 117.723C71.5511 117.428 70.4558 117.291 69.4867 118.27C68.5177 119.25 68.6546 120.387 68.939 122.157C69.2339 123.895 69.592 126.054 67.8225 127.855C66.0531 129.656 63.9044 129.298 62.1876 129.003C60.4709 128.708 59.365 128.571 58.4065 129.551C57.448 130.53 57.5849 131.657 57.8693 133.427L57.8771 133.474C58.1602 135.214 58.5062 137.34 56.7528 139.125C54.9834 140.926 52.8452 140.568 51.1179 140.273C49.675 140.02 48.6639 139.904 47.8107 140.441C49.4222 143.812 51.5393 146.929 54.0144 149.415ZM73.647 115.627C71.9197 115.332 69.7816 114.974 68.0017 116.775C66.2237 118.574 66.5895 120.73 66.8842 122.467L66.8852 122.473C67.1801 124.242 67.3065 125.38 66.3375 126.359C65.3684 127.339 64.2836 127.202 62.5563 126.907C60.829 126.612 58.6909 126.254 56.9214 128.055C55.168 129.84 55.514 131.966 55.7971 133.706L55.8049 133.753C56.0893 135.523 56.2262 136.65 55.2678 137.629C54.3093 138.609 53.2139 138.461 51.4866 138.177C50.1174 137.945 48.4743 137.682 46.9787 138.493C45.3989 134.628 44.4931 130.52 44.4931 126.665C44.4825 122.031 45.778 117.797 48.7482 114.826C55.2467 108.317 67.7489 109.845 77.1122 115.364C76.2275 116.017 75.1848 115.89 73.647 115.627Z" fill="#5900FE"/>
<path d="M68.0017 116.775C69.7816 114.974 71.9197 115.332 73.647 115.627C75.1848 115.89 76.2275 116.017 77.1122 115.364C67.7489 109.845 55.2467 108.317 48.7482 114.826C45.778 117.797 44.4825 122.031 44.4931 126.665C44.4931 130.52 45.3989 134.628 46.9787 138.493C48.4743 137.682 50.1174 137.945 51.4866 138.177C53.2139 138.461 54.3093 138.609 55.2678 137.629C56.2262 136.65 56.0893 135.523 55.8049 133.753L55.7971 133.706C55.514 131.966 55.168 129.84 56.9214 128.055C58.6909 126.254 60.829 126.612 62.5563 126.907C64.2836 127.202 65.3684 127.339 66.3375 126.359C67.3065 125.38 67.1801 124.242 66.8852 122.473L66.8842 122.467C66.5895 120.73 66.2237 118.574 68.0017 116.775Z" fill="#FFE6B8"/>
<path d="M69.1917 156.756C74.5949 154.523 85.1168 148.625 90.6886 135.07M69.1917 156.756L65.0315 155.977M69.1917 156.756C69.3164 156.769 69.4428 156.784 69.5695 156.8C69.7638 156.824 69.9589 156.849 70.1502 156.862C76.0169 157.209 81.399 155.261 85.296 151.353C89.193 147.445 91.1415 142.053 90.8045 136.197C90.7925 135.981 90.7669 135.769 90.7412 135.556C90.7217 135.395 90.7022 135.233 90.6886 135.07M90.6886 135.07L89.8566 131.152M89.8566 131.152C88.8559 127.687 87.1286 124.485 84.7905 121.746M89.8566 131.152C89.8408 131.173 89.8276 131.197 89.8144 131.22C89.8013 131.244 89.7881 131.268 89.7723 131.289C83.2421 151.437 65.4422 155.829 65.2527 155.872C65.1789 155.893 65.0947 155.935 65.0315 155.977M65.0315 155.977C61.5768 154.976 58.3644 153.249 55.626 150.911M55.626 150.911C60.2392 148.541 76.038 139.409 84.7905 121.746M55.626 150.911L54.0144 149.415M84.7905 121.746L83.3053 120.114M83.3053 120.114C74.479 138.577 57.111 147.867 54.0144 149.415M83.3053 120.114C81.9782 118.797 80.5142 117.607 78.9344 116.543M54.0144 149.415C51.5393 146.929 49.4222 143.812 47.8107 140.441M47.8107 140.441C48.6639 139.904 49.675 140.02 51.1179 140.273C52.8452 140.568 54.9834 140.926 56.7528 139.125C58.5062 137.34 58.1602 135.214 57.8771 133.474M47.8107 140.441L46.9787 138.493M57.8693 133.427C57.5849 131.657 57.448 130.53 58.4065 129.551C59.365 128.571 60.4709 128.708 62.1876 129.003C63.9044 129.298 66.0531 129.656 67.8225 127.855C69.592 126.054 69.2339 123.895 68.939 122.157C68.6546 120.387 68.5177 119.25 69.4867 118.27C70.4558 117.291 71.5511 117.428 73.2784 117.723C75.0057 118.018 77.1439 118.376 78.9134 116.575C78.9187 116.569 78.9213 116.564 78.9239 116.559C78.9266 116.553 78.9292 116.548 78.9344 116.543M57.8693 133.427L57.8771 133.474M57.8693 133.427C57.8719 133.443 57.8745 133.458 57.8771 133.474M78.9344 116.543L77.1122 115.364M66.8852 122.473C67.1801 124.242 67.3065 125.38 66.3375 126.359C65.3684 127.339 64.2836 127.202 62.5563 126.907C60.829 126.612 58.6909 126.254 56.9214 128.055C55.168 129.84 55.514 131.966 55.7971 133.706M66.8852 122.473L66.8842 122.467M66.8852 122.473L66.8842 122.467M55.8049 133.753C56.0893 135.523 56.2262 136.65 55.2678 137.629C54.3093 138.609 53.2139 138.461 51.4866 138.177C50.1174 137.945 48.4743 137.682 46.9787 138.493M55.8049 133.753L55.7971 133.706M55.8049 133.753C55.8023 133.737 55.7997 133.722 55.7971 133.706M46.9787 138.493C45.3989 134.628 44.4931 130.52 44.4931 126.665C44.4825 122.031 45.778 117.797 48.7482 114.826C55.2467 108.317 67.7489 109.845 77.1122 115.364M77.1122 115.364C76.2275 116.017 75.1848 115.89 73.647 115.627C71.9197 115.332 69.7816 114.974 68.0017 116.775C66.2237 118.574 66.5895 120.73 66.8842 122.467M47.2631 113.331C38.1736 122.42 42.6499 141 52.5715 150.911C57.3743 155.724 63.5674 158.578 70.0028 158.958C76.4803 159.337 82.4416 157.167 86.7705 152.838C90.7728 148.836 92.932 143.443 92.932 137.524C92.932 137.039 92.9214 136.555 92.8898 136.07C92.5106 129.635 89.6563 123.442 84.843 118.629C74.932 108.718 56.3526 104.241 47.2631 113.331Z" stroke="black" stroke-width="0.8"/>
<path d="M100.534 123.913C105.317 126.666 111.03 127.152 116.599 125.311C116.804 125.244 117.003 125.164 117.201 125.084C117.352 125.024 117.503 124.963 117.658 124.907C103.122 123.034 94.7017 114.397 91.1465 109.756C91.1667 109.879 91.1842 110.006 91.2017 110.132C91.2286 110.326 91.2556 110.521 91.2928 110.709C92.4755 116.466 95.7506 121.16 100.534 123.913Z" fill="#FF8B07"/>
<path d="M90.9815 105.722C91.0713 105.894 99.9206 121.951 121.073 123.044C121.097 123.053 121.124 123.06 121.15 123.067C121.176 123.073 121.203 123.08 121.227 123.09C124.315 121.226 126.961 118.729 129.001 115.762C109.674 111.879 96.7648 98.9821 93.2817 95.1394C91.7319 98.3897 90.8948 101.94 90.8225 105.536C90.8796 105.586 90.9421 105.656 90.9815 105.722Z" fill="#FF8B07"/>
<path d="M94.3093 93.1957C96.6063 95.786 110.075 110.158 130.193 113.905C131.122 112.282 131.892 110.56 132.511 108.759C132.505 108.755 132.499 108.754 132.493 108.753C132.487 108.751 132.482 108.75 132.475 108.746C130.277 107.503 130.07 105.345 129.908 103.601C129.746 101.856 129.594 100.762 128.397 100.08C127.2 99.3974 126.137 99.8241 124.502 100.557C122.899 101.291 120.906 102.196 118.709 100.953C116.511 99.7101 116.301 97.542 116.141 95.8073C115.982 94.0728 115.828 92.9691 114.634 92.2968C113.439 91.6245 112.386 92.0484 110.751 92.7811L110.707 92.801C109.099 93.5247 107.135 94.4092 104.958 93.1774C102.76 91.9344 102.553 89.7764 102.39 88.0317C102.261 86.5725 102.111 85.5658 101.372 84.8808C98.5331 87.3097 96.0696 90.1615 94.3093 93.1957Z" fill="#FF8B07"/>
<path fill-rule="evenodd" clip-rule="evenodd" d="M92.4911 92.189C99.4967 80.0403 116.284 70.9078 127.417 77.3351C138.549 83.7623 139.034 102.867 132.026 115.006C128.622 120.901 123.379 125.261 117.261 127.293C116.801 127.448 116.336 127.584 115.868 127.709C110.15 129.241 104.383 128.552 99.4807 125.722C94.179 122.661 90.5403 117.464 89.2301 111.109C87.9307 104.795 89.0849 98.0739 92.4911 92.189ZM100.534 123.913C105.317 126.666 111.03 127.152 116.599 125.311C116.804 125.244 117.003 125.164 117.201 125.084C117.352 125.024 117.503 124.963 117.658 124.907C103.122 123.034 94.7017 114.397 91.1465 109.756C91.1667 109.879 91.1842 110.006 91.2017 110.132C91.2286 110.326 91.2556 110.521 91.2928 110.709C92.4755 116.466 95.7506 121.16 100.534 123.913ZM121.15 123.067C121.124 123.06 121.097 123.053 121.073 123.044C99.9206 121.951 91.0713 105.894 90.9815 105.722C90.9421 105.656 90.8796 105.586 90.8225 105.536C90.8948 101.94 91.7319 98.3897 93.2817 95.1394C96.7648 98.9821 109.674 111.879 129.001 115.762C126.961 118.729 124.315 121.226 121.227 123.09C121.203 123.08 121.176 123.073 121.15 123.067ZM94.3093 93.1957C96.6063 95.786 110.075 110.158 130.193 113.905C131.122 112.282 131.892 110.56 132.511 108.759C132.505 108.755 132.499 108.754 132.493 108.753C132.487 108.751 132.482 108.75 132.475 108.746C130.277 107.503 130.07 105.345 129.908 103.601C129.746 101.856 129.594 100.762 128.397 100.08C127.2 99.3974 126.137 99.8241 124.502 100.557C122.899 101.291 120.906 102.196 118.709 100.953C116.511 99.7101 116.301 97.542 116.141 95.8073C115.982 94.0728 115.828 92.9691 114.634 92.2968C113.439 91.6245 112.386 92.0484 110.751 92.7811L110.707 92.801C109.099 93.5247 107.135 94.4092 104.958 93.1774C102.76 91.9344 102.553 89.7764 102.39 88.0317C102.261 86.5725 102.111 85.5658 101.372 84.8808C98.5331 87.3097 96.0696 90.1615 94.3093 93.1957ZM132.028 103.414C131.865 101.669 131.658 99.5115 129.457 98.2584C127.26 97.0066 125.271 97.918 123.67 98.6522L123.665 98.6547C122.032 99.3976 120.966 99.8141 119.769 99.1316C118.572 98.449 118.423 97.3658 118.261 95.621C118.099 93.8762 117.891 91.7183 115.694 90.4753C113.516 89.2435 111.552 90.128 109.945 90.8517L109.901 90.8716C108.265 91.6043 107.212 92.0282 106.018 91.3559C104.824 90.6836 104.683 89.5874 104.51 87.8454C104.38 86.4628 104.209 84.8076 103.038 83.5729C106.363 81.0464 110.096 79.1083 113.82 78.1106C118.294 76.901 122.719 77.0565 126.356 79.1567C134.326 83.7491 136.086 96.2205 133.179 106.693C132.319 106.008 132.171 104.968 132.028 103.414Z" fill="#F4BDCE"/>
<path d="M129.457 98.2584C131.658 99.5115 131.865 101.669 132.028 103.414C132.171 104.968 132.319 106.008 133.179 106.693C136.086 96.2205 134.326 83.7491 126.356 79.1567C122.719 77.0565 118.294 76.901 113.82 78.1106C110.096 79.1083 106.363 81.0464 103.038 83.5729C104.209 84.8076 104.38 86.4628 104.51 87.8454C104.683 89.5874 104.824 90.6836 106.018 91.3559C107.212 92.0282 108.265 91.6043 109.901 90.8716L109.945 90.8517C111.552 90.128 113.516 89.2435 115.694 90.4753C117.891 91.7183 118.099 93.8762 118.261 95.621C118.423 97.3658 118.572 98.449 119.769 99.1316C120.966 99.8141 122.032 99.3976 123.665 98.6547L123.67 98.6522C125.271 97.918 127.26 97.0066 129.457 98.2584Z" fill="#FF8B07"/>
<path d="M91.1465 109.756C94.7017 114.397 103.122 123.034 117.658 124.907M91.1465 109.756L90.8225 105.536M91.1465 109.756C91.1667 109.879 91.1842 110.006 91.2017 110.132C91.2286 110.326 91.2556 110.521 91.2928 110.709C92.4755 116.466 95.7506 121.16 100.534 123.913C105.317 126.666 111.03 127.152 116.599 125.311C116.804 125.244 117.003 125.164 117.201 125.084C117.352 125.024 117.503 124.963 117.658 124.907M117.658 124.907L121.227 123.09M121.227 123.09C124.315 121.226 126.961 118.729 129.001 115.762M121.227 123.09C121.203 123.08 121.176 123.073 121.15 123.067C121.124 123.06 121.097 123.053 121.073 123.044C99.9206 121.951 91.0713 105.894 90.9815 105.722C90.9421 105.656 90.8796 105.586 90.8225 105.536M90.8225 105.536C90.8948 101.94 91.7319 98.3897 93.2817 95.1394M93.2817 95.1394C96.7648 98.9821 109.674 111.879 129.001 115.762M93.2817 95.1394L94.3093 93.1957M129.001 115.762L130.193 113.905M130.193 113.905C110.075 110.158 96.6063 95.786 94.3093 93.1957M130.193 113.905C131.122 112.282 131.892 110.56 132.511 108.759M94.3093 93.1957C96.0696 90.1615 98.5331 87.3097 101.372 84.8808M101.372 84.8808C102.111 85.5658 102.261 86.5725 102.39 88.0317C102.553 89.7764 102.76 91.9344 104.958 93.1774C107.135 94.4092 109.099 93.5247 110.707 92.801M101.372 84.8808L103.038 83.5729M110.751 92.7811C112.386 92.0484 113.439 91.6245 114.634 92.2968C115.828 92.9691 115.982 94.0728 116.141 95.8073C116.301 97.542 116.511 99.7101 118.709 100.953C120.906 102.196 122.899 101.291 124.502 100.557C126.137 99.8241 127.2 99.3974 128.397 100.08C129.594 100.762 129.746 101.856 129.908 103.601C130.07 105.345 130.277 107.503 132.475 108.746C132.482 108.75 132.487 108.751 132.493 108.753C132.499 108.754 132.505 108.755 132.511 108.759M110.751 92.7811L110.707 92.801M110.751 92.7811C110.736 92.7877 110.721 92.7943 110.707 92.801M132.511 108.759L133.179 106.693M123.665 98.6547C122.032 99.3976 120.966 99.8141 119.769 99.1316C118.572 98.449 118.423 97.3658 118.261 95.621C118.099 93.8762 117.891 91.7183 115.694 90.4753C113.516 89.2435 111.552 90.128 109.945 90.8517M123.665 98.6547L123.67 98.6522M123.665 98.6547L123.67 98.6522M109.901 90.8716C108.265 91.6043 107.212 92.0282 106.018 91.3559C104.824 90.6836 104.683 89.5874 104.51 87.8454C104.38 86.4628 104.209 84.8076 103.038 83.5729M109.901 90.8716L109.945 90.8517M109.901 90.8716C109.915 90.865 109.93 90.8584 109.945 90.8517M103.038 83.5729C106.363 81.0464 110.096 79.1083 113.82 78.1106C118.294 76.901 122.719 77.0565 126.356 79.1567C134.326 83.7491 136.086 96.2205 133.179 106.693M133.179 106.693C132.319 106.008 132.171 104.968 132.028 103.414C131.865 101.669 131.658 99.5115 129.457 98.2584C127.26 97.0066 125.271 97.918 123.67 98.6522M127.417 77.3351C116.284 70.9078 99.4967 80.0403 92.4911 92.189C89.0849 98.0739 87.9307 104.795 89.2301 111.109C90.5403 117.464 94.179 122.661 99.4807 125.722C104.383 128.552 110.15 129.241 115.868 127.709C116.336 127.584 116.801 127.448 117.261 127.293C123.379 125.261 128.622 120.901 132.026 115.006C139.034 102.867 138.549 83.7623 127.417 77.3351Z" stroke="black" stroke-width="0.8"/>
</g>
<defs>
<filter id="filter0_d_1033_2344" x="0" y="0" width="186" height="244" filterUnits="userSpaceOnUse" color-interpolation-filters="sRGB">
<feFlood flood-opacity="0" result="BackgroundImageFix"/>
<feColorMatrix in="SourceAlpha" type="matrix" values="0 0 0 0 0 0 0 0 0 0 0 0 0 0 0 0 0 0 127 0" result="hardAlpha"/>
<feOffset dx="2" dy="2"/>
<feGaussianBlur stdDeviation="3"/>
<feComposite in2="hardAlpha" operator="out"/>
<feColorMatrix type="matrix" values="0 0 0 0 0 0 0 0 0 0 0 0 0 0 0 0 0 0 0.15 0"/>
<feBlend mode="normal" in2="BackgroundImageFix" result="effect1_dropShadow_1033_2344"/>
<feBlend mode="normal" in="SourceGraphic" in2="effect1_dropShadow_1033_2344" result="shape"/>
</filter>
</defs>
</svg>
