<svg width="186" height="244" viewBox="0 0 186 244" fill="none" xmlns="http://www.w3.org/2000/svg">
<g filter="url(#filter0_d_1033_2365)">
<rect x="5" y="5" width="172" height="230" rx="8" fill="white"/>
<rect x="5" y="5" width="172" height="230" rx="8" stroke="black" stroke-width="2"/>
<rect x="32.9492" y="32.1816" width="116.1" height="175.636" fill="#FDF8EE" stroke="black" stroke-width="2"/>
<path d="M57.0679 59.1684C57.3879 59.9884 57.6979 60.6684 57.9979 61.2084C58.2979 61.7484 58.7279 62.0184 59.2879 62.0184C59.4879 62.0184 59.6079 62.0584 59.6479 62.1384C59.7079 62.1984 59.7379 62.3084 59.7379 62.4684V63.3684C59.7379 63.6684 59.5879 63.8184 59.2879 63.8184H50.0779C49.7779 63.8184 49.6279 63.6684 49.6279 63.3684V62.4684C49.6279 62.3084 49.6479 62.1984 49.6879 62.1384C49.7479 62.0584 49.8779 62.0184 50.0779 62.0184C50.6179 62.0184 51.1379 61.8184 51.6379 61.4184C52.1579 61.0184 52.4179 60.5284 52.4179 59.9484C52.4179 59.8084 52.3979 59.6784 52.3579 59.5584C52.3379 59.4384 52.3079 59.3084 52.2679 59.1684L51.3379 56.6184H43.1179L42.2179 59.1684C42.1779 59.3084 42.1479 59.4484 42.1279 59.5884C42.1079 59.7084 42.0979 59.8184 42.0979 59.9184C42.0979 60.5584 42.3579 61.0684 42.8779 61.4484C43.3979 61.8284 43.9179 62.0184 44.4379 62.0184C44.6579 62.0184 44.7879 62.0584 44.8279 62.1384C44.8679 62.1984 44.8879 62.3084 44.8879 62.4684V63.3684C44.8879 63.6684 44.7379 63.8184 44.4379 63.8184H36.9679C36.6679 63.8184 36.5179 63.6684 36.5179 63.3684V62.4684C36.5179 62.3084 36.5379 62.1984 36.5779 62.1384C36.6379 62.0584 36.7679 62.0184 36.9679 62.0184C37.5679 62.0184 38.0179 61.7384 38.3179 61.1784C38.6379 60.6184 38.9379 59.9484 39.2179 59.1684L45.6679 41.7084C45.7479 41.4484 45.9179 41.3184 46.1779 41.3184H49.8079C50.0679 41.3184 50.2379 41.4384 50.3179 41.6784L57.0679 59.1684ZM44.0479 54.0084H50.3779L47.1379 45.2484L44.0479 54.0084Z" fill="#F84A01"/>
<path d="M124.172 181.468C123.852 180.648 123.542 179.968 123.242 179.428C122.942 178.888 122.512 178.618 121.952 178.618C121.752 178.618 121.632 178.578 121.592 178.498C121.532 178.438 121.502 178.328 121.502 178.168L121.502 177.268C121.502 176.968 121.652 176.818 121.952 176.818L131.162 176.818C131.462 176.818 131.612 176.968 131.612 177.268L131.612 178.168C131.612 178.328 131.592 178.438 131.552 178.498C131.492 178.578 131.362 178.618 131.162 178.618C130.622 178.618 130.102 178.818 129.602 179.218C129.082 179.618 128.822 180.108 128.822 180.688C128.822 180.828 128.842 180.958 128.882 181.078C128.902 181.198 128.932 181.328 128.972 181.468L129.902 184.018L138.122 184.018L139.022 181.468C139.062 181.328 139.092 181.188 139.112 181.048C139.132 180.928 139.142 180.818 139.142 180.718C139.142 180.078 138.882 179.568 138.362 179.188C137.842 178.808 137.322 178.618 136.802 178.618C136.582 178.618 136.452 178.578 136.412 178.498C136.372 178.438 136.352 178.328 136.352 178.168L136.352 177.268C136.352 176.968 136.502 176.818 136.802 176.818L144.272 176.818C144.572 176.818 144.722 176.968 144.722 177.268L144.722 178.168C144.722 178.328 144.702 178.438 144.662 178.498C144.602 178.578 144.472 178.618 144.272 178.618C143.672 178.618 143.222 178.898 142.922 179.458C142.602 180.018 142.302 180.688 142.022 181.468L135.572 198.928C135.492 199.188 135.322 199.318 135.062 199.318L131.432 199.318C131.172 199.318 131.002 199.198 130.922 198.958L124.172 181.468ZM137.192 186.628L130.862 186.628L134.102 195.388L137.192 186.628Z" fill="#F84A01"/>
<path d="M154.953 192.918C154.74 192.372 154.533 191.918 154.333 191.558C154.133 191.198 153.847 191.018 153.473 191.018C153.34 191.018 153.26 190.992 153.233 190.938C153.193 190.898 153.173 190.825 153.173 190.718L153.173 190.118C153.173 189.918 153.273 189.818 153.473 189.818L159.613 189.818C159.813 189.818 159.913 189.918 159.913 190.118L159.913 190.718C159.913 190.825 159.9 190.898 159.873 190.938C159.833 190.992 159.747 191.018 159.613 191.018C159.253 191.018 158.907 191.152 158.573 191.418C158.227 191.685 158.053 192.012 158.053 192.398C158.053 192.492 158.067 192.578 158.093 192.658C158.107 192.738 158.127 192.825 158.153 192.918L158.773 194.618L164.253 194.618L164.853 192.918C164.88 192.825 164.9 192.732 164.913 192.638C164.927 192.558 164.933 192.485 164.933 192.418C164.933 191.992 164.76 191.652 164.413 191.398C164.067 191.145 163.72 191.018 163.373 191.018C163.227 191.018 163.14 190.992 163.113 190.938C163.087 190.898 163.073 190.825 163.073 190.718L163.073 190.118C163.073 189.918 163.173 189.818 163.373 189.818L168.353 189.818C168.553 189.818 168.653 189.918 168.653 190.118L168.653 190.718C168.653 190.825 168.64 190.898 168.613 190.938C168.573 190.992 168.487 191.018 168.353 191.018C167.953 191.018 167.653 191.205 167.453 191.578C167.24 191.952 167.04 192.398 166.853 192.918L162.553 204.558C162.5 204.732 162.387 204.818 162.213 204.818L159.793 204.818C159.62 204.818 159.507 204.738 159.453 204.578L154.953 192.918ZM163.633 196.358L159.413 196.358L161.573 202.198L163.633 196.358Z" fill="#F84A01"/>
<path d="M24.5934 48.7184C24.8068 49.265 25.0134 49.7184 25.2134 50.0784C25.4134 50.4384 25.7001 50.6184 26.0734 50.6184C26.2068 50.6184 26.2868 50.645 26.3134 50.6984C26.3534 50.7384 26.3734 50.8117 26.3734 50.9184V51.5184C26.3734 51.7184 26.2734 51.8184 26.0734 51.8184H19.9334C19.7334 51.8184 19.6334 51.7184 19.6334 51.5184V50.9184C19.6334 50.8117 19.6468 50.7384 19.6734 50.6984C19.7134 50.645 19.8001 50.6184 19.9334 50.6184C20.2934 50.6184 20.6401 50.485 20.9734 50.2184C21.3201 49.9517 21.4934 49.625 21.4934 49.2384C21.4934 49.145 21.4801 49.0584 21.4534 48.9784C21.4401 48.8984 21.4201 48.8117 21.3934 48.7184L20.7734 47.0184H15.2934L14.6934 48.7184C14.6668 48.8117 14.6468 48.905 14.6334 48.9984C14.6201 49.0784 14.6134 49.1517 14.6134 49.2184C14.6134 49.645 14.7868 49.985 15.1334 50.2384C15.4801 50.4917 15.8268 50.6184 16.1734 50.6184C16.3201 50.6184 16.4068 50.645 16.4334 50.6984C16.4601 50.7384 16.4734 50.8117 16.4734 50.9184V51.5184C16.4734 51.7184 16.3734 51.8184 16.1734 51.8184H11.1934C10.9934 51.8184 10.8934 51.7184 10.8934 51.5184V50.9184C10.8934 50.8117 10.9068 50.7384 10.9334 50.6984C10.9734 50.645 11.0601 50.6184 11.1934 50.6184C11.5934 50.6184 11.8934 50.4317 12.0934 50.0584C12.3068 49.685 12.5068 49.2384 12.6934 48.7184L16.9934 37.0784C17.0468 36.905 17.1601 36.8184 17.3334 36.8184H19.7534C19.9268 36.8184 20.0401 36.8984 20.0934 37.0584L24.5934 48.7184ZM15.9134 45.2784H20.1334L17.9734 39.4384L15.9134 45.2784Z" fill="#F84A01"/>
<rect x="152.715" y="10.0615" width="20" height="20" rx="10" fill="#C21A2A"/>
<rect x="152.715" y="10.0615" width="20" height="20" rx="10" stroke="black" stroke-width="0.7"/>
<path d="M163.898 14.2205L162.741 13.604L156.969 16.685L162.751 19.768L168.524 16.6868L167.367 16.0703L162.749 18.535L161.593 17.9186L166.211 15.4536L165.054 14.8371L160.436 17.3019L159.28 16.6854L163.898 14.2205Z" fill="white"/>
<path d="M162.32 26.3547V20.5622L161.214 19.9698V24.736L160.108 24.1435V19.3773L159.003 18.7846V23.5508L157.897 22.9584V18.1921L156.792 17.5996V23.3921" fill="white"/>
<path d="M163.21 26.3609L168.727 23.4044V17.6012L163.21 20.5577V26.3609ZM167.623 22.9718L164.313 24.7456V23.3803L167.623 21.6065V22.9718ZM167.623 20.5823L164.313 22.3561V20.9907L167.623 19.217V20.5823Z" fill="white"/>
<rect x="152.715" y="210.062" width="20" height="20" rx="10" fill="#C21A2A"/>
<rect x="152.715" y="210.062" width="20" height="20" rx="10" stroke="black" stroke-width="0.7"/>
<path d="M163.898 214.22L162.741 213.604L156.969 216.685L162.751 219.768L168.524 216.687L167.367 216.07L162.749 218.535L161.593 217.919L166.211 215.454L165.054 214.837L160.436 217.302L159.28 216.685L163.898 214.22Z" fill="white"/>
<path d="M162.32 226.355V220.562L161.214 219.97V224.736L160.108 224.144V219.377L159.003 218.785V223.551L157.897 222.958V218.192L156.792 217.6V223.392" fill="white"/>
<path d="M163.21 226.361L168.727 223.404V217.601L163.21 220.558V226.361ZM167.623 222.972L164.313 224.746V223.38L167.623 221.606V222.972ZM167.623 220.582L164.313 222.356V220.991L167.623 219.217V220.582Z" fill="white"/>
<rect x="9.71484" y="10.0615" width="20" height="20" rx="10" fill="#C21A2A"/>
<rect x="9.71484" y="10.0615" width="20" height="20" rx="10" stroke="black" stroke-width="0.7"/>
<path d="M20.8979 14.2205L19.7413 13.604L13.9688 16.685L19.7513 19.768L25.5237 16.6868L24.3673 16.0703L19.7494 18.535L18.5927 17.9186L23.2107 15.4536L22.0543 14.8371L17.4363 17.3019L16.2797 16.6854L20.8979 14.2205Z" fill="white"/>
<path d="M19.3197 26.3547V20.5622L18.214 19.9698V24.736L17.1084 24.1435V19.3773L16.0028 18.7846V23.5508L14.8971 22.9584V18.1921L13.7915 17.5996V23.3921" fill="white"/>
<path d="M20.2098 26.3609L25.7267 23.4044V17.6012L20.2098 20.5577V26.3609ZM24.623 22.9718L21.313 24.7456V23.3803L24.623 21.6065V22.9718ZM24.623 20.5823L21.313 22.3561V20.9907L24.623 19.217V20.5823Z" fill="white"/>
<rect x="9.71484" y="210.062" width="20" height="20" rx="10" fill="#C21A2A"/>
<rect x="9.71484" y="210.062" width="20" height="20" rx="10" stroke="black" stroke-width="0.7"/>
<path d="M20.8979 214.22L19.7413 213.604L13.9688 216.685L19.7513 219.768L25.5237 216.687L24.3673 216.07L19.7494 218.535L18.5927 217.919L23.2107 215.454L22.0543 214.837L17.4363 217.302L16.2797 216.685L20.8979 214.22Z" fill="white"/>
<path d="M19.3197 226.355V220.562L18.214 219.97V224.736L17.1084 224.144V219.377L16.0028 218.785V223.551L14.8971 222.958V218.192L13.7915 217.6V223.392" fill="white"/>
<path d="M20.2098 226.361L25.7267 223.404V217.601L20.2098 220.558V226.361ZM24.623 222.972L21.313 224.746V223.38L24.623 221.606V222.972ZM24.623 220.582L21.313 222.356V220.991L24.623 219.217V220.582Z" fill="white"/>
<path fill-rule="evenodd" clip-rule="evenodd" d="M129.836 126.854C128.547 128.817 126.72 130.39 124.583 131.352L121.622 132.684L122.773 135.722C123.299 137.114 123.565 138.594 123.565 140.076C123.562 143.266 122.349 146.445 119.899 148.898C117.446 151.348 114.266 152.561 111.078 152.564C109.595 152.564 108.117 152.298 106.722 151.77L103.685 150.621L102.351 153.582C101.389 155.719 99.8179 157.548 97.8531 158.835C95.8869 160.121 93.5457 160.869 90.9987 160.871C88.4517 160.869 86.1134 160.122 84.1471 158.835C82.1826 157.548 80.611 155.719 79.6477 153.582L78.3135 150.621L75.2766 151.77C73.8837 152.298 72.4045 152.564 70.9222 152.564C67.7325 152.561 64.5517 151.348 62.0984 148.898C59.648 146.445 58.4382 143.267 58.4352 140.079C58.4352 138.595 58.7013 137.116 59.2293 135.722L60.3801 132.684L57.4188 131.352C55.2817 130.389 53.4531 128.814 52.1645 126.849C50.8791 124.883 50.1303 122.543 50.1289 119.998C50.1303 117.454 50.8791 115.116 52.1645 113.149C53.4533 111.185 55.2803 109.612 57.4188 108.648L60.3801 107.316L59.2293 104.279C58.7013 102.884 58.4352 101.405 58.4352 99.9214C58.4382 96.7317 59.6512 93.5539 62.1028 91.0977C64.5532 88.6489 67.7308 87.4375 70.919 87.4344C72.4027 87.4344 73.882 87.7007 75.2765 88.2299L78.3118 89.3795L79.6475 86.4197C80.6108 84.281 82.1837 82.4525 84.1484 81.1654C86.1162 79.8783 88.4545 79.131 91.0015 79.1295C93.547 79.131 95.8852 79.8783 97.8515 81.1654C99.8145 82.4523 101.389 84.281 102.352 86.4197L103.686 89.3795L106.722 88.2299C108.116 87.7007 109.596 87.4344 111.081 87.4344C114.269 87.4375 117.447 88.6489 119.899 91.0977C122.349 93.5539 123.562 96.7331 123.565 99.9229C123.565 101.405 123.299 102.886 122.772 104.279L121.621 107.316L124.583 108.648C126.72 109.61 128.548 111.183 129.836 113.146C131.121 115.113 131.868 117.451 131.871 119.998C131.869 122.548 131.122 124.888 129.836 126.854Z" fill="#FB6836"/>
<path fill-rule="evenodd" clip-rule="evenodd" d="M135.609 109.361C134.158 107.149 132.265 105.263 130.057 103.812C130.323 102.529 130.468 101.227 130.468 99.9231C130.474 94.9772 128.562 89.9982 124.781 86.2155C121.003 82.4376 116.026 80.5273 111.081 80.5301C109.776 80.5301 108.471 80.6783 107.187 80.9429C105.736 78.7363 103.849 76.8429 101.637 75.3908C98.5884 73.3898 94.9161 72.2236 91.0019 72.2251C87.0862 72.2236 83.4124 73.3898 80.3632 75.3908C78.1519 76.8427 76.2644 78.7346 74.8125 80.9429C73.5284 80.6783 72.2246 80.5301 70.9194 80.5301C65.9751 80.5271 60.9977 82.4359 57.2195 86.2155C53.4384 89.9967 51.5266 94.9757 51.5313 99.9214C51.5313 101.227 51.678 102.529 51.9441 103.813C49.7343 105.263 47.8422 107.151 46.3918 109.362C44.3908 112.411 43.2231 116.084 43.2246 119.998C43.2231 123.914 44.3906 127.586 46.3901 130.635C47.842 132.848 49.7341 134.737 51.9439 136.187C51.6778 137.471 51.5311 138.774 51.5311 140.079C51.5265 145.023 53.4384 150.002 57.2165 153.78C60.9964 157.561 65.9767 159.472 70.9226 159.469C72.2263 159.469 73.53 159.321 74.8127 159.057C76.2616 161.265 78.1491 163.158 80.3604 164.608C83.4096 166.61 87.0819 167.777 90.9991 167.775C94.9163 167.777 98.5886 166.61 101.638 164.608C103.849 163.158 105.738 161.265 107.189 159.057C108.471 159.321 109.773 159.469 111.078 159.469C116.024 159.472 121.003 157.561 124.781 153.78C128.563 150.002 130.474 145.022 130.468 140.076C130.468 138.772 130.323 137.471 130.057 136.187C132.265 134.737 134.159 132.851 135.611 130.64C137.61 127.589 138.778 123.915 138.775 119.998C138.778 116.082 137.61 112.408 135.609 109.361ZM124.583 131.352C126.72 130.39 128.547 128.817 129.836 126.854C131.122 124.888 131.869 122.548 131.871 119.998C131.868 117.451 131.121 115.113 129.836 113.146C128.548 111.183 126.72 109.61 124.583 108.648L121.621 107.316L122.772 104.279C123.299 102.886 123.565 101.405 123.565 99.9229C123.562 96.7331 122.349 93.5539 119.899 91.0977C117.447 88.6489 114.269 87.4375 111.081 87.4344C109.596 87.4344 108.116 87.7007 106.722 88.2299L103.686 89.3795L102.352 86.4197C101.389 84.281 99.8145 82.4523 97.8515 81.1654C95.8852 79.8783 93.547 79.131 91.0015 79.1295C88.4545 79.131 86.1162 79.8783 84.1484 81.1654C82.1837 82.4525 80.6108 84.281 79.6475 86.4197L78.3118 89.3795L75.2765 88.2299C73.882 87.7007 72.4027 87.4344 70.919 87.4344C67.7308 87.4375 64.5532 88.6489 62.1028 91.0977C59.6512 93.5539 58.4382 96.7317 58.4352 99.9214C58.4352 101.405 58.7013 102.884 59.2293 104.279L60.3801 107.316L57.4188 108.648C55.2803 109.612 53.4533 111.185 52.1645 113.149C50.8791 115.116 50.1303 117.454 50.1289 119.998C50.1303 122.543 50.8791 124.883 52.1645 126.849C53.4531 128.814 55.2817 130.389 57.4188 131.352L60.3801 132.684L59.2293 135.722C58.7013 137.116 58.4352 138.595 58.4352 140.079C58.4382 143.267 59.648 146.445 62.0984 148.898C64.5517 151.348 67.7325 152.561 70.9222 152.564C72.4045 152.564 73.8837 152.298 75.2766 151.77L78.3135 150.621L79.6477 153.582C80.611 155.719 82.1826 157.548 84.1471 158.835C86.1134 160.122 88.4517 160.869 90.9987 160.871C93.5457 160.869 95.8869 160.121 97.8531 158.835C99.8179 157.548 101.389 155.719 102.351 153.582L103.685 150.621L106.722 151.77C108.117 152.298 109.595 152.564 111.078 152.564C114.266 152.561 117.446 151.348 119.899 148.898C122.349 146.445 123.562 143.266 123.565 140.076C123.565 138.594 123.299 137.114 122.773 135.722L121.622 132.684L124.583 131.352Z" fill="#F4D63A"/>
<path fill-rule="evenodd" clip-rule="evenodd" d="M129.836 126.854C128.547 128.817 126.72 130.39 124.583 131.352L121.622 132.684L122.773 135.722C123.299 137.114 123.565 138.594 123.565 140.076C123.562 143.266 122.349 146.445 119.899 148.898C117.446 151.348 114.266 152.561 111.078 152.564C109.595 152.564 108.117 152.298 106.722 151.77L103.685 150.621L102.351 153.582C101.389 155.719 99.8179 157.548 97.8531 158.835C95.8869 160.121 93.5457 160.869 90.9987 160.871C88.4517 160.869 86.1134 160.122 84.1471 158.835C82.1826 157.548 80.611 155.719 79.6477 153.582L78.3135 150.621L75.2766 151.77C73.8837 152.298 72.4045 152.564 70.9222 152.564C67.7325 152.561 64.5517 151.348 62.0984 148.898C59.648 146.445 58.4382 143.267 58.4352 140.079C58.4352 138.595 58.7013 137.116 59.2293 135.722L60.3801 132.684L57.4188 131.352C55.2817 130.389 53.4531 128.814 52.1645 126.849C50.8791 124.883 50.1303 122.543 50.1289 119.998C50.1303 117.454 50.8791 115.116 52.1645 113.149C53.4533 111.185 55.2803 109.612 57.4188 108.648L60.3801 107.316L59.2293 104.279C58.7013 102.884 58.4352 101.405 58.4352 99.9214C58.4382 96.7317 59.6512 93.5539 62.1028 91.0977C64.5532 88.6489 67.7308 87.4375 70.919 87.4344C72.4027 87.4344 73.882 87.7007 75.2765 88.2299L78.3118 89.3795L79.6475 86.4197C80.6108 84.281 82.1837 82.4525 84.1484 81.1654C86.1162 79.8783 88.4545 79.131 91.0015 79.1295C93.547 79.131 95.8852 79.8783 97.8515 81.1654C99.8145 82.4523 101.389 84.281 102.352 86.4197L103.686 89.3795L106.722 88.2299C108.116 87.7007 109.596 87.4344 111.081 87.4344C114.269 87.4375 117.447 88.6489 119.899 91.0977C122.349 93.5539 123.562 96.7331 123.565 99.9229C123.565 101.405 123.299 102.886 122.772 104.279L121.621 107.316L124.583 108.648C126.72 109.61 128.548 111.183 129.836 113.146C131.121 115.113 131.868 117.451 131.871 119.998C131.869 122.548 131.122 124.888 129.836 126.854Z" stroke="black"/>
<path fill-rule="evenodd" clip-rule="evenodd" d="M135.609 109.361C134.158 107.149 132.265 105.263 130.057 103.812C130.323 102.529 130.468 101.227 130.468 99.9231C130.474 94.9772 128.562 89.9982 124.781 86.2155C121.003 82.4376 116.026 80.5273 111.081 80.5301C109.776 80.5301 108.471 80.6783 107.187 80.9429C105.736 78.7363 103.849 76.8429 101.637 75.3908C98.5884 73.3898 94.9161 72.2236 91.0019 72.2251C87.0862 72.2236 83.4124 73.3898 80.3632 75.3908C78.1519 76.8427 76.2644 78.7346 74.8125 80.9429C73.5284 80.6783 72.2246 80.5301 70.9194 80.5301C65.9751 80.5271 60.9977 82.4359 57.2195 86.2155C53.4384 89.9967 51.5266 94.9757 51.5313 99.9214C51.5313 101.227 51.678 102.529 51.9441 103.813C49.7343 105.263 47.8422 107.151 46.3918 109.362C44.3908 112.411 43.2231 116.084 43.2246 119.998C43.2231 123.914 44.3906 127.586 46.3901 130.635C47.842 132.848 49.7341 134.737 51.9439 136.187C51.6778 137.471 51.5311 138.774 51.5311 140.079C51.5265 145.023 53.4384 150.002 57.2165 153.78C60.9964 157.561 65.9767 159.472 70.9226 159.469C72.2263 159.469 73.53 159.321 74.8127 159.057C76.2616 161.265 78.1491 163.158 80.3604 164.608C83.4096 166.61 87.0819 167.777 90.9991 167.775C94.9163 167.777 98.5886 166.61 101.638 164.608C103.849 163.158 105.738 161.265 107.189 159.057C108.471 159.321 109.773 159.469 111.078 159.469C116.024 159.472 121.003 157.561 124.781 153.78C128.563 150.002 130.474 145.022 130.468 140.076C130.468 138.772 130.323 137.471 130.057 136.187C132.265 134.737 134.159 132.851 135.611 130.64C137.61 127.589 138.778 123.915 138.775 119.998C138.778 116.082 137.61 112.408 135.609 109.361ZM124.583 131.352C126.72 130.39 128.547 128.817 129.836 126.854C131.122 124.888 131.869 122.548 131.871 119.998C131.868 117.451 131.121 115.113 129.836 113.146C128.548 111.183 126.72 109.61 124.583 108.648L121.621 107.316L122.772 104.279C123.299 102.886 123.565 101.405 123.565 99.9229C123.562 96.7331 122.349 93.5539 119.899 91.0977C117.447 88.6489 114.269 87.4375 111.081 87.4344C109.596 87.4344 108.116 87.7007 106.722 88.2299L103.686 89.3795L102.352 86.4197C101.389 84.281 99.8145 82.4523 97.8515 81.1654C95.8852 79.8783 93.547 79.131 91.0015 79.1295C88.4545 79.131 86.1162 79.8783 84.1484 81.1654C82.1837 82.4525 80.6108 84.281 79.6475 86.4197L78.3118 89.3795L75.2765 88.2299C73.882 87.7007 72.4027 87.4344 70.919 87.4344C67.7308 87.4375 64.5532 88.6489 62.1028 91.0977C59.6512 93.5539 58.4382 96.7317 58.4352 99.9214C58.4352 101.405 58.7013 102.884 59.2293 104.279L60.3801 107.316L57.4188 108.648C55.2803 109.612 53.4533 111.185 52.1645 113.149C50.8791 115.116 50.1303 117.454 50.1289 119.998C50.1303 122.543 50.8791 124.883 52.1645 126.849C53.4531 128.814 55.2817 130.389 57.4188 131.352L60.3801 132.684L59.2293 135.722C58.7013 137.116 58.4352 138.595 58.4352 140.079C58.4382 143.267 59.648 146.445 62.0984 148.898C64.5517 151.348 67.7325 152.561 70.9222 152.564C72.4045 152.564 73.8837 152.298 75.2766 151.77L78.3135 150.621L79.6477 153.582C80.611 155.719 82.1826 157.548 84.1471 158.835C86.1134 160.122 88.4517 160.869 90.9987 160.871C93.5457 160.869 95.8869 160.121 97.8531 158.835C99.8179 157.548 101.389 155.719 102.351 153.582L103.685 150.621L106.722 151.77C108.117 152.298 109.595 152.564 111.078 152.564C114.266 152.561 117.446 151.348 119.899 148.898C122.349 146.445 123.562 143.266 123.565 140.076C123.565 138.594 123.299 137.114 122.773 135.722L121.622 132.684L124.583 131.352Z" stroke="black"/>
<path d="M90.7791 105.746C91.0499 105.131 91.2615 104.618 91.4127 104.229C93.341 99.3287 93.984 97.0963 91.5428 94.8533C91.1979 94.5614 90.8575 94.2649 90.5294 93.9639C90.2148 94.2847 89.8927 94.5932 89.5614 94.8957C87.2141 97.2385 87.9552 99.4406 90.0847 104.249C90.2527 104.637 90.4902 105.141 90.7791 105.746Z" fill="#5900FE" stroke="black"/>
<path d="M79.109 109.622C79.4946 109.772 80.021 109.964 80.6533 110.182C80.4113 109.565 80.1935 109.045 80.0285 108.664C77.9277 103.843 76.8086 101.805 73.4964 101.945C73.0485 101.986 72.6008 102.015 72.1548 102.029C72.1533 102.476 72.1412 102.924 72.123 103.376C72.1214 106.694 74.2041 107.726 79.109 109.622Z" fill="#5900FE" stroke="black"/>
<path d="M76.7391 120.222C76.1311 119.956 75.6139 119.742 75.2267 119.591C70.3292 117.66 68.0968 117.014 65.8523 119.453C65.5619 119.8 65.2671 120.14 64.9629 120.471C65.2835 120.781 65.5937 121.108 65.8947 121.439C68.2329 123.781 70.4412 123.044 75.2508 120.916C75.632 120.744 76.1417 120.511 76.7391 120.222Z" fill="#5900FE" stroke="black"/>
<path d="M72.9462 137.506C72.9884 137.951 73.0159 138.398 73.0278 138.845C73.4755 138.845 73.9262 138.86 74.3756 138.876C77.6924 138.878 78.7253 136.797 80.6265 131.89C80.7791 131.502 80.9743 130.971 81.1906 130.338C80.5707 130.588 80.0504 130.804 79.6646 130.972C74.8444 133.067 72.8055 134.191 72.9462 137.506Z" fill="#5900FE" stroke="black"/>
<path d="M91.2223 134.251C90.9532 134.863 90.7367 135.384 90.5856 135.771C88.6602 140.67 88.0158 142.903 90.4568 145.147C90.8017 145.439 91.1419 145.736 91.4701 146.037C91.7833 145.716 92.1084 145.406 92.4396 145.105C94.7855 142.762 94.0429 140.56 91.9147 135.75C91.7458 135.365 91.5097 134.854 91.2223 134.251Z" fill="#5900FE" stroke="black"/>
<path d="M91.0013 113.583C87.4561 113.583 84.584 116.456 84.584 120C84.584 123.543 87.4561 126.415 91.0013 126.415C94.5434 126.415 97.4157 123.543 97.4157 120C97.4157 116.456 94.5436 113.583 91.0013 113.583Z" fill="#5900FE" stroke="black"/>
<path d="M109.055 102.497C109.015 102.048 108.986 101.603 108.974 101.156C108.526 101.156 108.075 101.141 107.625 101.123C104.309 101.121 103.278 103.202 101.373 108.112C101.221 108.5 101.03 109.022 100.812 109.656C101.433 109.408 101.95 109.198 102.337 109.025C107.159 106.929 109.195 105.808 109.055 102.497Z" fill="#5900FE" stroke="black"/>
<path d="M102.891 130.372C102.5 130.221 101.974 130.027 101.342 129.81C101.59 130.428 101.803 130.948 101.974 131.336C104.073 136.157 105.193 138.195 108.505 138.055C108.952 138.015 109.4 137.984 109.846 137.972C109.848 137.523 109.86 137.075 109.881 136.621C109.878 133.306 107.8 132.272 102.891 130.372Z" fill="#5900FE" stroke="black"/>
<path d="M105.258 119.776C105.857 119.487 106.365 119.248 106.752 119.083C111.559 116.955 113.767 116.217 116.105 118.561C116.406 118.893 116.716 119.216 117.037 119.528C116.733 119.857 116.439 120.199 116.148 120.543C113.903 122.984 111.669 122.341 106.775 120.409C106.386 120.258 105.869 120.045 105.258 119.776Z" fill="#5900FE" stroke="black"/>
</g>
<defs>
<filter id="filter0_d_1033_2365" x="0" y="0" width="186" height="244" filterUnits="userSpaceOnUse" color-interpolation-filters="sRGB">
<feFlood flood-opacity="0" result="BackgroundImageFix"/>
<feColorMatrix in="SourceAlpha" type="matrix" values="0 0 0 0 0 0 0 0 0 0 0 0 0 0 0 0 0 0 127 0" result="hardAlpha"/>
<feOffset dx="2" dy="2"/>
<feGaussianBlur stdDeviation="3"/>
<feComposite in2="hardAlpha" operator="out"/>
<feColorMatrix type="matrix" values="0 0 0 0 0 0 0 0 0 0 0 0 0 0 0 0 0 0 0.15 0"/>
<feBlend mode="normal" in2="BackgroundImageFix" result="effect1_dropShadow_1033_2365"/>
<feBlend mode="normal" in="SourceGraphic" in2="effect1_dropShadow_1033_2365" result="shape"/>
</filter>
</defs>
</svg>
