<svg width="186" height="244" viewBox="0 0 186 244" fill="none" xmlns="http://www.w3.org/2000/svg">
<g filter="url(#filter0_d_1033_2208)">
<rect x="5" y="5" width="172" height="230" rx="8" fill="white"/>
<rect x="5" y="5" width="172" height="230" rx="8" stroke="black" stroke-width="2"/>
<rect x="32.9492" y="32.1816" width="116.1" height="175.636" fill="#FDF8EE" stroke="black" stroke-width="2"/>
<path fill-rule="evenodd" clip-rule="evenodd" d="M55.584 40.0088C52.9801 40.0088 50.8824 41.4831 49.3098 43.3985C47.7816 41.4175 45.6879 40.0088 43.084 40.0088C39.4168 40.0088 36.834 43.2392 36.834 46.7626C36.834 48.6524 37.5895 50.0131 38.4168 51.2921L48.1301 63.223C49.2199 64.2707 49.4262 64.2707 50.516 63.223L60.2512 51.2921C61.2246 50.0131 61.834 48.6524 61.834 46.7626C61.834 43.2392 59.2512 40.0088 55.584 40.0088Z" fill="#F84A01"/>
<path fill-rule="evenodd" clip-rule="evenodd" d="M138.918 200.009C136.314 200.009 134.216 198.534 132.644 196.619C131.116 198.6 129.022 200.009 126.418 200.009C122.751 200.009 120.168 196.778 120.168 193.255C120.168 191.365 120.923 190.005 121.751 188.725L131.464 176.795C132.554 175.747 132.76 175.747 133.85 176.795L143.585 188.725C144.559 190.005 145.168 191.365 145.168 193.255C145.168 196.778 142.585 200.009 138.918 200.009Z" fill="#F84A01"/>
<path fill-rule="evenodd" clip-rule="evenodd" d="M165.219 204.009C163.591 204.009 162.28 203.087 161.297 201.89C160.342 203.128 159.034 204.009 157.406 204.009C155.114 204.009 153.5 201.99 153.5 199.788C153.5 198.607 153.972 197.756 154.489 196.957L160.56 189.5C161.241 188.845 161.37 188.845 162.051 189.5L168.136 196.957C168.744 197.756 169.125 198.607 169.125 199.788C169.125 201.99 167.511 204.009 165.219 204.009Z" fill="#F84A01"/>
<path fill-rule="evenodd" clip-rule="evenodd" d="M23.2188 37.0088C21.5913 37.0088 20.2803 37.9303 19.2974 39.1274C18.3423 37.8892 17.0337 37.0088 15.4062 37.0088C13.1143 37.0088 11.5 39.0278 11.5 41.2299C11.5 42.411 11.9722 43.2615 12.4893 44.0609L18.5601 51.5177C19.2412 52.1725 19.3701 52.1725 20.0513 51.5177L26.1357 44.0609C26.7441 43.2615 27.125 42.411 27.125 41.2299C27.125 39.0278 25.5107 37.0088 23.2188 37.0088Z" fill="#F84A01"/>
<rect x="152.715" y="10.0615" width="20" height="20" rx="10" fill="#C21A2A"/>
<rect x="152.715" y="10.0615" width="20" height="20" rx="10" stroke="black" stroke-width="0.7"/>
<path d="M163.898 14.2205L162.741 13.604L156.969 16.685L162.751 19.768L168.524 16.6868L167.367 16.0703L162.749 18.535L161.593 17.9186L166.211 15.4536L165.054 14.8371L160.436 17.3019L159.28 16.6854L163.898 14.2205Z" fill="white"/>
<path d="M162.32 26.3547V20.5622L161.214 19.9698V24.736L160.108 24.1435V19.3773L159.003 18.7846V23.5508L157.897 22.9584V18.1921L156.792 17.5996V23.3921" fill="white"/>
<path d="M163.21 26.3609L168.727 23.4044V17.6012L163.21 20.5577V26.3609ZM167.623 22.9718L164.313 24.7456V23.3803L167.623 21.6065V22.9718ZM167.623 20.5823L164.313 22.3561V20.9907L167.623 19.217V20.5823Z" fill="white"/>
<rect x="152.715" y="210.062" width="20" height="20" rx="10" fill="#C21A2A"/>
<rect x="152.715" y="210.062" width="20" height="20" rx="10" stroke="black" stroke-width="0.7"/>
<path d="M163.898 214.22L162.741 213.604L156.969 216.685L162.751 219.768L168.524 216.687L167.367 216.07L162.749 218.535L161.593 217.919L166.211 215.454L165.054 214.837L160.436 217.302L159.28 216.685L163.898 214.22Z" fill="white"/>
<path d="M162.32 226.355V220.562L161.214 219.97V224.736L160.108 224.144V219.377L159.003 218.785V223.551L157.897 222.958V218.192L156.792 217.6V223.392" fill="white"/>
<path d="M163.21 226.361L168.727 223.404V217.601L163.21 220.558V226.361ZM167.623 222.972L164.313 224.746V223.38L167.623 221.606V222.972ZM167.623 220.582L164.313 222.356V220.991L167.623 219.217V220.582Z" fill="white"/>
<rect x="9.71484" y="10.0615" width="20" height="20" rx="10" fill="#C21A2A"/>
<rect x="9.71484" y="10.0615" width="20" height="20" rx="10" stroke="black" stroke-width="0.7"/>
<path d="M20.8979 14.2205L19.7413 13.604L13.9688 16.685L19.7513 19.768L25.5237 16.6868L24.3673 16.0703L19.7494 18.535L18.5927 17.9186L23.2107 15.4536L22.0543 14.8371L17.4363 17.3019L16.2797 16.6854L20.8979 14.2205Z" fill="white"/>
<path d="M19.3197 26.3547V20.5622L18.214 19.9698V24.736L17.1084 24.1435V19.3773L16.0028 18.7846V23.5508L14.8971 22.9584V18.1921L13.7915 17.5996V23.3921" fill="white"/>
<path d="M20.2098 26.3609L25.7267 23.4044V17.6012L20.2098 20.5577V26.3609ZM24.623 22.9718L21.313 24.7456V23.3803L24.623 21.6065V22.9718ZM24.623 20.5823L21.313 22.3561V20.9907L24.623 19.217V20.5823Z" fill="white"/>
<rect x="9.71484" y="210.062" width="20" height="20" rx="10" fill="#C21A2A"/>
<rect x="9.71484" y="210.062" width="20" height="20" rx="10" stroke="black" stroke-width="0.7"/>
<path d="M20.8979 214.22L19.7413 213.604L13.9688 216.685L19.7513 219.768L25.5237 216.687L24.3673 216.07L19.7494 218.535L18.5927 217.919L23.2107 215.454L22.0543 214.837L17.4363 217.302L16.2797 216.685L20.8979 214.22Z" fill="white"/>
<path d="M19.3197 226.355V220.562L18.214 219.97V224.736L17.1084 224.144V219.377L16.0028 218.785V223.551L14.8971 222.958V218.192L13.7915 217.6V223.392" fill="white"/>
<path d="M20.2098 226.361L25.7267 223.404V217.601L20.2098 220.558V226.361ZM24.623 222.972L21.313 224.746V223.38L24.623 221.606V222.972ZM24.623 220.582L21.313 222.356V220.991L24.623 219.217V220.582Z" fill="white"/>
<path d="M97.6919 96.1593L91.0006 86.1246L84.3094 96.1593L75.6951 90.4163L74.8774 99.6513L74.8417 100.725C74.8417 108.552 80.4513 115.219 88.0478 116.616L90.9868 117.157L93.957 116.613C101.814 115.166 107.423 108.143 107.151 100.182L107.096 99.2943L106.302 90.4163L97.6919 96.1593Z" fill="#F2C0CF"/>
<path d="M121.478 135.402H118.778C112.464 135.402 106.574 137.93 102.242 142.353L95.6442 149.088V149.291H100.26C109.68 149.291 117.786 143.664 121.4 135.588L121.478 135.402Z" fill="#006340"/>
<path fill-rule="evenodd" clip-rule="evenodd" d="M91.0006 69.4302L100.26 83.3191L114.149 74.0598L116.319 98.4745C117.49 111.65 108.388 123.37 95.6341 125.719L95.6274 135.873C101.51 129.869 109.709 126.143 118.778 126.143H132.667C132.667 144.041 118.158 158.551 100.26 158.551H95.6303V163.18H86.371V158.551H81.7414C63.8433 158.551 49.334 144.041 49.334 126.143H63.2229C72.2947 126.143 80.4959 129.871 86.3784 135.878L86.3726 125.723C74.5443 123.547 65.5825 113.183 65.5825 100.725C65.5825 99.9737 65.6158 99.2228 65.6823 98.4745L67.8525 74.0598L81.7414 83.3191L91.0006 69.4302ZM91.0006 86.1246L97.6919 96.1593L106.302 90.4163L107.096 99.2943L107.151 100.182C107.423 108.143 101.814 115.166 93.957 116.613L90.9868 117.157L88.0478 116.616C80.4513 115.219 74.8417 108.552 74.8417 100.725L74.8774 99.6513L75.6951 90.4163L84.3094 96.1593L91.0006 86.1246ZM121.478 135.402H118.778C112.464 135.402 106.574 137.93 102.242 142.353L95.6442 149.088V149.291H100.26C109.68 149.291 117.786 143.664 121.4 135.588L121.478 135.402ZM60.6016 135.588L60.5192 135.402H63.2229L64.4019 135.432C70.2693 135.726 75.701 138.208 79.763 142.356L86.3571 149.092V149.291H81.7414C72.3213 149.291 64.2155 143.664 60.6016 135.588Z" fill="#08BD7D"/>
<path d="M60.5192 135.402L60.6016 135.588C64.2155 143.664 72.3213 149.291 81.7414 149.291H86.3571V149.092L79.763 142.356C75.701 138.208 70.2693 135.726 64.4019 135.432L63.2229 135.402H60.5192Z" fill="#006340"/>
<path d="M97.6919 96.1593L91.0006 86.1246L84.3094 96.1593L75.6951 90.4163L74.8774 99.6513L74.8417 100.725C74.8417 108.552 80.4513 115.219 88.0478 116.616L90.9868 117.157L93.957 116.613C101.814 115.166 107.423 108.143 107.151 100.182L107.096 99.2943L106.302 90.4163L97.6919 96.1593Z" stroke="black"/>
<path d="M121.478 135.402H118.778C112.464 135.402 106.574 137.93 102.242 142.353L95.6442 149.088V149.291H100.26C109.68 149.291 117.786 143.664 121.4 135.588L121.478 135.402Z" stroke="black"/>
<path fill-rule="evenodd" clip-rule="evenodd" d="M91.0006 69.4302L100.26 83.3191L114.149 74.0598L116.319 98.4745C117.49 111.65 108.388 123.37 95.6341 125.719L95.6274 135.873C101.51 129.869 109.709 126.143 118.778 126.143H132.667C132.667 144.041 118.158 158.551 100.26 158.551H95.6303V163.18H86.371V158.551H81.7414C63.8433 158.551 49.334 144.041 49.334 126.143H63.2229C72.2947 126.143 80.4959 129.871 86.3784 135.878L86.3726 125.723C74.5443 123.547 65.5825 113.183 65.5825 100.725C65.5825 99.9737 65.6158 99.2228 65.6823 98.4745L67.8525 74.0598L81.7414 83.3191L91.0006 69.4302ZM91.0006 86.1246L97.6919 96.1593L106.302 90.4163L107.096 99.2943L107.151 100.182C107.423 108.143 101.814 115.166 93.957 116.613L90.9868 117.157L88.0478 116.616C80.4513 115.219 74.8417 108.552 74.8417 100.725L74.8774 99.6513L75.6951 90.4163L84.3094 96.1593L91.0006 86.1246ZM121.478 135.402H118.778C112.464 135.402 106.574 137.93 102.242 142.353L95.6442 149.088V149.291H100.26C109.68 149.291 117.786 143.664 121.4 135.588L121.478 135.402ZM60.6016 135.588L60.5192 135.402H63.2229L64.4019 135.432C70.2693 135.726 75.701 138.208 79.763 142.356L86.3571 149.092V149.291H81.7414C72.3213 149.291 64.2155 143.664 60.6016 135.588Z" stroke="black"/>
<path d="M60.5192 135.402L60.6016 135.588C64.2155 143.664 72.3213 149.291 81.7414 149.291H86.3571V149.092L79.763 142.356C75.701 138.208 70.2693 135.726 64.4019 135.432L63.2229 135.402H60.5192Z" stroke="black"/>
</g>
<defs>
<filter id="filter0_d_1033_2208" x="0" y="0" width="186" height="244" filterUnits="userSpaceOnUse" color-interpolation-filters="sRGB">
<feFlood flood-opacity="0" result="BackgroundImageFix"/>
<feColorMatrix in="SourceAlpha" type="matrix" values="0 0 0 0 0 0 0 0 0 0 0 0 0 0 0 0 0 0 127 0" result="hardAlpha"/>
<feOffset dx="2" dy="2"/>
<feGaussianBlur stdDeviation="3"/>
<feComposite in2="hardAlpha" operator="out"/>
<feColorMatrix type="matrix" values="0 0 0 0 0 0 0 0 0 0 0 0 0 0 0 0 0 0 0.15 0"/>
<feBlend mode="normal" in2="BackgroundImageFix" result="effect1_dropShadow_1033_2208"/>
<feBlend mode="normal" in="SourceGraphic" in2="effect1_dropShadow_1033_2208" result="shape"/>
</filter>
</defs>
</svg>
